<svg width="200" height="204" xmlns="http://www.w3.org/2000/svg"><path stroke="#000" fill="#fff" d="M34 31.5h134v145H34z"/><path d="M132.175 0c33.993.2 67.587 28.456 67.587 69.637 0 0 1 49.797-1.1 63.624-4.699 31.462-28.194 53.205-60.588 58.715-29.195 5.712-46.491 9.018-52.09 10.12-2.4.501-12.998 1.904-17.597 1.904C32.794 204 .5 177.348 0 134.363c0 0 0-45.89.4-58.013 1.2-31.362 22.896-56.711 64.188-64.827 0 0 50.49-9.82 52.59-10.22C121.977.4 127.276 0 132.175 0zm23.795 36.572l-79.984 15.53v31.261l-31.994 6.213v77.952l79.984-15.53v-31.261l31.994-6.212V36.572zm-31.994 37.473v46.692l-47.99 9.318V83.363l47.99-9.318z" fill="#335DFF" fill-rule="evenodd"/></svg>