<svg version="1.0" xmlns="http://www.w3.org/2000/svg" width="1088" height="1088" viewBox="0 0 816 816"><path d="M508.5 1.1C490.1 2.6 495 1.7 357 28.5c-9.9 1.9-26.1 5.1-36 7-9.9 1.9-26.2 5.1-36.2 7-46.7 9-70.7 15.7-101.3 28.2-26.6 10.8-59.2 29.9-80.5 46.9-11.8 9.6-30.2 28-39.6 39.9-32.7 41.3-50.3 88.8-53.4 144-1.6 28.1-2.5 240.5-1.1 257 3.7 43.3 13.3 77.8 31.5 113 18.8 36.6 43.5 65.7 76.7 90.6 51.2 38.5 120.6 58.5 182.9 52.9 27.6-2.5 54.3-6.7 87.5-13.5 3.9-.8 20.1-4 36-7 32.1-6.2 86.1-16.7 128.8-25 15.3-3 32.4-6.6 37.9-8.1 41.2-10.4 83.9-31.5 115.8-57 11.6-9.3 31-28.9 40.2-40.4 29.9-37.6 49.2-82.5 56.3-130.7 4.3-29.3 5.9-90.8 5.2-190.3-.7-78.4-1.2-92.2-4.8-113C783.5 116.4 695.7 26.6 582.3 4.5 561.7.4 532.9-.9 508.5 1.1zM632 302.5V458l-2.2.5c-3.4.7-18.9 3.8-51.3 10-50.7 9.8-69.9 13.5-72.2 14l-2.3.5v125l-2.2.5c-1.3.3-8.1 1.6-15.3 3-7.1 1.3-53.7 10.3-103.5 20s-104.4 20.3-121.5 23.6c-17 3.3-41.3 8-53.8 10.5-12.6 2.4-23 4.4-23.3 4.4-.2 0-.4-70.2-.4-156 0-87.7.4-156 .9-156 .4 0 28.6-5.4 62.5-12s62.3-12 63.1-12c1.3 0 1.5 12.3 1.5 93 0 51.1.3 93 .6 93s23.8-4.5 52.2-10.1c74.5-14.4 85.1-16.5 111.2-21.5 12.9-2.5 24.5-4.8 25.8-5.1l2.2-.5v-93.5c0-88.5-.1-93.4-1.7-92.9-1 .3-39.1 7.8-84.8 16.6-45.6 8.9-87.4 17-92.9 18.1-5.4 1-10.4 1.9-11.2 1.9-1.2 0-1.4-9.7-1.4-62.3v-62.3l71.3-13.8c39.1-7.6 81.3-15.8 93.7-18.2 51.9-10.1 76.5-14.9 112-21.9 20.6-4 38.7-7.4 40.3-7.4l2.7-.1v155.5z"/></svg>