<svg xmlns="http://www.w3.org/2000/svg" viewBox="0 0 16 16"><path d="M15.125 15.467l-4.392-4.856a5.617 5.617 0 001.533-3.877c0-1.5-.576-2.91-1.623-3.971a5.472 5.472 0 00-3.919-1.645 5.47 5.47 0 00-3.919 1.645 5.62 5.62 0 00-1.623 3.971c0 1.5.576 2.91 1.623 3.971a5.472 5.472 0 003.919 1.645 5.454 5.454 0 003.464-1.232l4.392 4.855a.365.365 0 00.522.023.377.377 0 00.023-.528v-.001zM1.92 6.734c0-2.684 2.155-4.867 4.803-4.867 2.649 0 4.804 2.183 4.804 4.867s-2.155 4.867-4.804 4.867c-2.648 0-4.803-2.183-4.803-4.867z"/></svg>