<svg xmlns="http://www.w3.org/2000/svg" width="640" height="209" viewBox="0 0 640 209"><path d="M552.535 49.7L573.35 108l5.904 21.1 7.006-21.1 20.815-58.3H638l-54.442 151.7-33.425 6.6 14.31-40.3-42.632-118h30.724zM132.247 2.015c34.045.203 67.584 28.433 67.584 69.614 0 0 .164 10.409.169 22.974v1.687c-.002 2.548-.011 5.168-.03 7.793l-.013 1.75c-.106 12.248-.431 24.298-1.237 29.44-4.85 31.468-28.286 53.121-60.614 58.686-29.195 5.666-46.571 9.107-52.127 10.119-1.407.293-5.566.893-9.698 1.345l-.854.091c-2.696.281-5.299.486-7.026.486C32.84 206 .412 179.288.008 136.386v-.49l-.001-.37v-.223l-.001-.514-.003-1.676v-1.252L0 129.406v-5.402l.001-2.03c.003-4.158.012-8.87.03-13.65l.005-1.596c.048-11.71.153-23.511.375-28.32 1.718-31.468 22.932-56.865 64.25-64.96 0 0 47.886-9.308 52.634-10.219 4.849-.91 10.102-1.315 14.95-1.214zm24.852 35.313L76.28 53.011v32.48l-33.337 6.476v78.821l80.92-15.784v-32.379l33.236-6.475V37.328zM296.039 18v31.8h30.023v27h-30.023v51.4c.2 8.8 6.405 14.3 13.01 14.6 5.104.15 9.476-.938 11.343-1.49l.25-.076c.464-.142.716-.234.716-.234l6.505 21.3c-6.905 4.3-16.112 6.4-27.821 6.4-18.214 0-33.626-14.1-34.026-34v-58H245v-27h21.016V23.8l30.023-5.8zM467.97 46.7c26.652 0 47.614 21.66 48.225 49.165l.012.835v70h-30.023v-65.5c-.3-15.5-11.609-27.5-27.52-27.5-15.06 0-28.354 12.643-28.522 27.548V166.7h-30.024v-117h27.121L428.44 65c10.708-12.4 24.619-18.3 39.53-18.3zm-89.868 3v117h-30.023v-117h30.023zm-254.24 26.482v46.342l-47.582 9.309V85.49l47.582-9.309zM378.102 2v29.1l-30.023 5.8V7.8L378.102 2z" fill="#FFF" fill-rule="evenodd"/></svg>