<svg width="1119" height="209" viewBox="0 0 1119 209" xmlns="http://www.w3.org/2000/svg"><g fill="none" fill-rule="evenodd"><path d="M554 48.015l21 59.141 5 18.044 6-18.044 21-59.141h33l-55.1 153.968L549.3 209l14.7-41.7-43-119.285h33zM132.175 0c33.993.2 67.587 28.456 67.587 69.637 0 0 .22 11 .237 24.096v2.53a964.65 964.65 0 01-.043 8.63l-.018 1.73c-.128 10.936-.478 21.384-1.276 26.638-4.699 31.462-28.194 53.205-60.588 58.715-29.195 5.712-46.491 9.018-52.09 10.12-1.412.295-5.66.902-9.856 1.351l-.837.088c-2.645.27-5.19.465-6.904.465C32.794 204 .5 177.348 0 134.363v-2.151l.001-.328.001-1.108c.004-5.187.02-15.294.068-25.597l.012-2.379.009-1.583C.149 90.942.244 81.078.4 76.35c1.2-31.362 22.896-56.711 64.188-64.827l.06-.012c1.94-.377 50.472-9.816 52.53-10.208C121.977.4 127.276 0 132.175 0zM298 15.938v32.077h30v29.07h-30v50.12c0 9.823 7.4 14.033 12 14.033 4.358 0 8.267-.54 12.323-1.79l.677-.215 7 23.055c-3 2.005-12 7.017-29 7.017s-34.6-13.031-35-35.084c-.142-6.98-.217-14.927-.224-23.84v-3.008c.007-8.714.075-18.31.205-28.786l.019-1.503h-21v-29.07h21v-25.86l32-6.215zM155.97 36.572l-79.984 15.53v31.261l-31.994 6.213v77.952l79.984-15.53v-31.261l31.994-6.212V36.572zM468 45.008c28.116-.199 49.371 22.2 49.988 50.27l.012.852v71.17h-32v-66.158c-.1-15.036-11-27.165-26-27.065-14.85.1-27.838 11.792-28 26.615V167.3h-32V48.015h29l1.1 13.933c9.3-10.224 23-16.84 37.9-16.94zm-88 3.007V167.3h-32V48.015h32zm-256.024 26.03v46.692l-47.99 9.318V83.363l47.99-9.318zM380 0v31.175l-32 6.214V6.215L380 0z" fill="#FFF"/><path d="M764.41 154c28.157 0 46.624-18.466 46.624-46.231 0-27.372-18.467-45.445-46.362-45.445h-36.147V154h35.885zm.393-16.24h-18.205V78.564h17.812c17.287 0 28.288 11.786 28.288 29.99 0 17.681-11 29.206-27.895 29.206zm113.165 18.335c29.468 0 48.85-19.252 48.85-48.326 0-28.42-19.251-47.54-47.67-47.54-29.468 0-48.851 19.251-48.851 48.326 0 28.42 19.252 47.54 47.671 47.54zm.393-16.24c-17.68 0-29.598-12.834-29.598-32.086 0-18.466 12.049-31.3 29.991-31.3 17.68 0 29.599 12.834 29.599 32.086 0 18.597-12.18 31.3-29.992 31.3zm116.44 16.11c14.276 0 25.932-4.584 34.444-12.573l-9.953-13.097c-7.596 6.548-15.192 9.168-24.229 9.168-18.073 0-30.515-12.835-30.515-31.694 0-18.335 12.31-30.908 30.122-30.908 8.906 0 16.371 3.012 23.836 9.43l10.085-13.097c-8.906-7.989-20.431-12.835-33.528-12.835-28.812 0-48.981 19.514-48.981 48.196 0 28.027 19.514 47.41 48.72 47.41zm87.104 0c21.871 0 36.67-11.395 36.67-29.206 0-15.192-10.084-24.622-33.265-28.027-13.359-2.095-18.86-4.976-18.86-11.525 0-6.94 6.811-11.263 17.026-11.263 7.596 0 16.11 2.096 23.574 6.941l7.727-13.49c-10.346-6.678-20.168-9.036-31.955-9.036-19.907 0-34.314 11.001-34.314 27.634 0 14.93 10.478 23.05 32.873 25.931 14.275 1.965 19.121 6.156 19.121 12.966 0 8.25-7.727 12.966-18.728 12.966-9.823 0-19.776-3.667-28.027-9.56l-7.989 14.143c9.692 7.335 22.264 11.525 36.147 11.525z" fill="#335DFF"/></g></svg>