<svg fill="none" height="120" viewBox="0 0 240 120" width="240" xmlns="http://www.w3.org/2000/svg"><rect fill="#002fe6" height="120" rx="4" width="240"/><g fill="#fff"><path d="M28.825 31.07a2.633 2.633 0 00-.343-.721 2.216 2.216 0 00-.517-.552 2.086 2.086 0 00-.686-.343c-.258-.08-.54-.12-.845-.12-.547 0-1.034.138-1.462.413s-.764.68-1.009 1.213c-.242.53-.363 1.177-.363 1.94 0 .768.121 1.42.363 1.953.242.534.578.94 1.01 1.218.43.275.93.413 1.5.413.518 0 .965-.1 1.343-.299.381-.199.675-.48.88-.845.205-.368.308-.799.308-1.292l.418.064h-2.764V32.67h4.131v1.224c0 .871-.186 1.625-.557 2.262a3.804 3.804 0 01-1.531 1.471c-.65.342-1.395.512-2.237.512-.938 0-1.762-.21-2.471-.631-.706-.424-1.258-1.026-1.656-1.805-.394-.782-.591-1.71-.591-2.784 0-.822.116-1.556.348-2.202a4.765 4.765 0 01.984-1.646 4.191 4.191 0 011.482-1.034 4.718 4.718 0 011.85-.358 4.85 4.85 0 011.575.249c.487.162.92.394 1.298.696.38.301.694.66.94 1.073s.405.872.482 1.373zm7.049 7.08c-.766 0-1.427-.16-1.984-.478a3.233 3.233 0 01-1.278-1.362c-.298-.59-.447-1.285-.447-2.083 0-.786.15-1.475.447-2.069a3.384 3.384 0 011.263-1.392c.54-.334 1.175-.502 1.904-.502.47 0 .915.076 1.333.229.42.149.792.381 1.113.696.325.315.58.716.766 1.203.186.484.278 1.06.278 1.73v.552H33.01v-1.213h4.534a1.936 1.936 0 00-.224-.92 1.626 1.626 0 00-.611-.641 1.719 1.719 0 00-.905-.234c-.368 0-.69.09-.97.269a1.85 1.85 0 00-.65.696c-.153.285-.23.598-.234.94v1.058c0 .444.081.826.243 1.144.163.315.39.557.681.726.292.165.633.248 1.025.248.261 0 .498-.036.71-.11.213-.075.397-.186.552-.332s.274-.327.353-.542l1.68.189a2.62 2.62 0 01-.606 1.163 2.957 2.957 0 01-1.133.766c-.461.179-.988.268-1.581.268zm8.731-7.786v1.392h-4.39v-1.392zm-3.306-1.83h1.8v7.17c0 .241.036.427.11.556.075.126.175.212.297.259s.259.07.408.07c.113 0 .215-.01.308-.026.096-.016.17-.031.22-.044l.302 1.406c-.096.034-.233.07-.412.11a3.39 3.39 0 01-.647.07 2.935 2.935 0 01-1.218-.204 1.896 1.896 0 01-.86-.706c-.209-.319-.311-.716-.308-1.194zm14.32 3.848l-1.641.18a1.318 1.318 0 00-.244-.468c-.113-.146-.265-.264-.457-.353s-.428-.134-.706-.134c-.375 0-.69.08-.945.243-.252.163-.376.373-.373.632a.66.66 0 00.244.541c.169.14.447.254.835.344l1.303.278c.722.156 1.26.403 1.61.74.355.339.534.781.537 1.328-.003.48-.144.905-.422 1.273-.275.364-.658.65-1.149.855-.49.205-1.054.308-1.69.308-.935 0-1.687-.195-2.257-.586-.57-.395-.91-.943-1.02-1.646l1.756-.17c.08.346.248.606.507.781s.595.264 1.01.264c.427 0 .77-.088 1.028-.264.262-.175.393-.392.393-.65a.68.68 0 00-.254-.543c-.165-.142-.424-.252-.775-.328l-1.303-.273c-.732-.153-1.274-.41-1.625-.77-.352-.365-.526-.826-.522-1.383-.004-.47.124-.878.382-1.223.262-.348.625-.616 1.09-.805.466-.193 1.005-.289 1.615-.289.895 0 1.6.19 2.113.572.517.381.837.897.96 1.546zm6.515 2.406v-4.424h1.8V38h-1.746v-1.357h-.08a2.296 2.296 0 01-.85 1.049c-.39.272-.873.407-1.446.407-.5 0-.943-.11-1.327-.333a2.314 2.314 0 01-.895-.98c-.216-.43-.324-.95-.324-1.56v-4.862h1.8v4.583c0 .484.133.869.398 1.154.265.285.613.427 1.044.427.265 0 .522-.064.77-.193.25-.13.453-.322.612-.577.162-.259.244-.582.244-.97zm3.65 6.076v-10.5h1.77v1.262h.104c.093-.185.224-.382.393-.591.17-.212.398-.393.686-.542.289-.153.657-.229 1.104-.229.59 0 1.122.151 1.596.453.477.298.855.74 1.133 1.327.282.583.423 1.3.423 2.148 0 .838-.138 1.55-.413 2.138-.275.586-.65 1.034-1.123 1.342a2.89 2.89 0 01-1.611.462c-.438 0-.8-.073-1.089-.218a2.216 2.216 0 01-.696-.527 3.408 3.408 0 01-.403-.592h-.074v4.067zm1.765-6.682c0 .494.07.926.209 1.297.142.372.346.662.611.87.269.206.594.309.975.309.398 0 .73-.106.999-.318.269-.216.47-.51.607-.88.139-.375.208-.8.208-1.278a3.63 3.63 0 00-.204-1.263c-.135-.368-.337-.656-.606-.865s-.603-.313-1.004-.313c-.385 0-.711.1-.98.303-.268.202-.472.486-.611.85-.136.365-.204.794-.204 1.288zm6.985 6.682v-10.5h1.77v1.262h.104c.093-.185.224-.382.393-.591.17-.212.398-.393.686-.542.289-.153.657-.229 1.104-.229.59 0 1.122.151 1.596.453.477.298.855.74 1.133 1.327.282.583.423 1.3.423 2.148 0 .838-.138 1.55-.413 2.138-.275.586-.65 1.034-1.123 1.342a2.89 2.89 0 01-1.611.462c-.438 0-.8-.073-1.089-.218a2.216 2.216 0 01-.696-.527 3.408 3.408 0 01-.403-.592h-.074v4.067zm1.765-6.682c0 .494.07.926.209 1.297.142.372.346.662.611.87.269.206.594.309.975.309.398 0 .73-.106.999-.318.269-.216.47-.51.607-.88.139-.375.208-.8.208-1.278a3.63 3.63 0 00-.204-1.263c-.135-.368-.337-.656-.606-.865s-.603-.313-1.004-.313c-.385 0-.711.1-.98.303-.268.202-.472.486-.611.85-.136.365-.204.794-.204 1.288zm10.316 3.967c-.746 0-1.392-.164-1.939-.492a3.343 3.343 0 01-1.273-1.377c-.298-.59-.447-1.28-.447-2.068 0-.79.15-1.48.447-2.073a3.335 3.335 0 011.273-1.383c.547-.328 1.193-.492 1.94-.492.745 0 1.391.164 1.938.492s.97.79 1.268 1.383c.301.593.452 1.284.452 2.073 0 .789-.15 1.478-.452 2.068a3.31 3.31 0 01-1.268 1.377c-.547.328-1.193.492-1.939.492zm.01-1.442c.404 0 .742-.11 1.014-.333a2.01 2.01 0 00.607-.904 3.71 3.71 0 00.204-1.263c0-.468-.068-.89-.204-1.268-.133-.381-.335-.684-.607-.91s-.61-.338-1.014-.338c-.414 0-.759.113-1.034.338a2.041 2.041 0 00-.612.91 3.81 3.81 0 00-.199 1.268c0 .464.067.885.2 1.263.135.377.34.679.61.904.276.222.62.333 1.035.333zM91.802 38v-7.636h1.745v1.272h.08c.138-.44.377-.78.715-1.019a1.97 1.97 0 011.168-.363c.1 0 .21.005.334.015.126.007.23.018.313.035v1.656a1.894 1.894 0 00-.363-.07 3.34 3.34 0 00-.472-.035 1.82 1.82 0 00-.885.214c-.259.14-.463.333-.612.582a1.64 1.64 0 00-.224.86V38zm9.774-7.636v1.392h-4.39v-1.392zm-3.306-1.83h1.799v7.17c0 .241.037.427.11.556.076.126.175.212.298.259s.259.07.408.07c.112 0 .215-.01.308-.026.096-.016.169-.031.219-.044l.303 1.406a4.01 4.01 0 01-.413.11 3.38 3.38 0 01-.646.07 2.934 2.934 0 01-1.218-.204 1.896 1.896 0 01-.86-.706c-.209-.319-.312-.716-.308-1.194zm10.083 4.992V38h-1.799v-7.636h1.72v1.297h.089a2.19 2.19 0 01.84-1.019c.388-.252.867-.378 1.437-.378.527 0 .986.113 1.377.338.395.226.7.552.915.98.219.427.327.946.323 1.556V38h-1.799v-4.584c0-.51-.133-.91-.398-1.198-.262-.288-.625-.432-1.089-.432-.315 0-.595.07-.84.208a1.447 1.447 0 00-.572.592c-.136.259-.204.572-.204.94zm10.063 4.623c-.746 0-1.392-.164-1.939-.492a3.345 3.345 0 01-1.273-1.377c-.298-.59-.447-1.28-.447-2.068 0-.79.149-1.48.447-2.073.302-.594.726-1.054 1.273-1.383s1.193-.492 1.939-.492 1.392.164 1.939.492.969.79 1.268 1.383c.301.593.452 1.284.452 2.073 0 .789-.151 1.478-.452 2.068a3.314 3.314 0 01-1.268 1.377c-.547.328-1.193.492-1.939.492zm.01-1.442c.404 0 .742-.11 1.014-.333a2.01 2.01 0 00.607-.904c.135-.378.203-.8.203-1.263 0-.468-.068-.89-.203-1.268-.133-.381-.335-.684-.607-.91s-.61-.338-1.014-.338c-.415 0-.759.113-1.034.338a2.041 2.041 0 00-.612.91c-.132.378-.199.8-.199 1.268 0 .464.067.885.199 1.263.136.377.34.679.612.904.275.222.619.333 1.034.333zM124.96 38l-2.158-7.636h1.835l1.342 5.369h.069l1.373-5.37h1.814l1.372 5.34h.075l1.322-5.34h1.84L131.681 38h-1.874l-1.432-5.16h-.104L126.839 38zM27.998 61.19c0 .48-.122.906-.366 1.278-.24.368-.588.658-1.044.87-.456.208-1.012.312-1.668.312-.632 0-1.196-.096-1.692-.288s-.918-.456-1.266-.792l.678-.762c.288.268.618.48.99.636s.806.234 1.302.234c.324 0 .624-.052.9-.156.28-.108.504-.268.672-.48.172-.216.258-.486.258-.81a1.3 1.3 0 00-.156-.66c-.1-.18-.278-.34-.534-.48s-.614-.278-1.074-.414a8.68 8.68 0 01-1.44-.558c-.396-.208-.7-.462-.912-.762-.208-.3-.312-.668-.312-1.104 0-.428.118-.804.354-1.128.236-.328.56-.584.972-.768.416-.184.89-.276 1.422-.276.58 0 1.086.084 1.518.252.436.164.828.402 1.176.714l-.66.744a2.762 2.762 0 00-.948-.564c-.34-.12-.684-.18-1.032-.18-.292 0-.558.044-.798.132-.24.084-.432.21-.576.378-.14.168-.21.382-.21.642 0 .228.062.424.186.588.124.16.334.31.63.45.296.136.698.28 1.206.432.444.128.85.288 1.218.48s.66.45.876.774c.22.32.33.742.33 1.266zm5.255-4.014v5.448h1.758v.876h-4.836v-.876h1.926v-4.572h-1.866v-.876zm-.858-3.024c.24 0 .432.074.576.222a.735.735 0 01.222.54.77.77 0 01-.222.558c-.144.148-.336.222-.576.222a.78.78 0 01-.576-.222.781.781 0 01-.216-.558c0-.212.072-.392.216-.54a.78.78 0 01.576-.222zm10.062 2.292l.336 1.02a3.785 3.785 0 01-.852.162c-.3.024-.632.036-.996.036.372.168.652.384.84.648s.282.58.282.948c0 .416-.098.786-.294 1.11a1.98 1.98 0 01-.834.762c-.36.184-.794.276-1.302.276-.2 0-.37-.008-.51-.024-.136-.02-.27-.05-.402-.09a.737.737 0 00-.222.246.686.686 0 00-.084.33c0 .14.056.26.168.36.112.096.33.144.654.144h1.122c.436 0 .824.076 1.164.228.344.152.614.358.81.618s.294.556.294.888c0 .628-.268 1.11-.804 1.446-.536.34-1.296.51-2.28.51-.696 0-1.244-.072-1.644-.216-.396-.144-.678-.358-.846-.642-.164-.284-.246-.64-.246-1.068h1.038c0 .236.046.43.138.582s.26.266.504.342.596.114 1.056.114c.456 0 .824-.038 1.104-.114s.486-.188.618-.336.198-.328.198-.54c0-.28-.126-.494-.378-.642s-.574-.222-.966-.222h-1.11c-.568 0-.986-.12-1.254-.36-.264-.244-.396-.524-.396-.84 0-.208.058-.41.174-.606a1.65 1.65 0 01.522-.516c-.368-.196-.64-.436-.816-.72-.172-.284-.258-.63-.258-1.038 0-.436.108-.82.324-1.152.22-.332.524-.592.912-.78s.834-.282 1.338-.282c.524 0 .952-.024 1.284-.072.336-.052.626-.12.87-.204.248-.088.496-.19.744-.306zm-2.892 1.398c-.472 0-.824.132-1.056.396-.232.26-.348.594-.348 1.002 0 .412.118.75.354 1.014.236.26.594.39 1.074.39.424 0 .748-.122.972-.366.224-.248.336-.598.336-1.05 0-.456-.112-.8-.336-1.032-.224-.236-.556-.354-.996-.354zm4.967 5.658v-6.324h.99l.084.852a2.6 2.6 0 01.948-.744 2.68 2.68 0 011.122-.258c.608 0 1.056.166 1.344.498.288.328.432.786.432 1.374V63.5H48.3v-3.894a5.3 5.3 0 00-.072-.972c-.044-.252-.138-.434-.282-.546s-.362-.168-.654-.168c-.228 0-.444.05-.648.15s-.388.226-.552.378c-.16.152-.296.31-.408.474V63.5zm7.313-2.79v-.972h4.872v.972zm8.43-3.534v4.452c0 .4.082.688.246.864.164.172.414.258.75.258.324 0 .632-.094.924-.282s.52-.412.684-.672v-4.62h1.152V63.5h-.99l-.084-.834c-.24.316-.542.56-.906.732a2.612 2.612 0 01-1.104.252c-.612 0-1.07-.166-1.374-.498-.3-.332-.45-.792-.45-1.38v-4.596zm9.083-.15c.56 0 1.008.138 1.344.414.336.272.578.656.726 1.152.148.492.222 1.072.222 1.74 0 .64-.09 1.21-.27 1.71s-.45.894-.81 1.182c-.36.284-.812.426-1.356.426-.684 0-1.232-.24-1.644-.72v2.994l-1.152.138v-8.886h.99l.084.852c.236-.324.514-.572.834-.744s.664-.258 1.032-.258zm-.294.906c-.328 0-.618.1-.87.3-.252.196-.46.42-.624.672v3.06c.16.236.356.422.588.558.232.132.49.198.774.198.496 0 .87-.192 1.122-.576.252-.388.378-.992.378-1.812 0-.548-.05-.998-.15-1.35-.1-.356-.252-.62-.456-.792-.2-.172-.454-.258-.762-.258zm15.73-3.438c.36 0 .685.032.973.096.287.06.56.146.815.258l-.36.828a3.107 3.107 0 00-.653-.198 3.697 3.697 0 00-.703-.066c-.431 0-.753.084-.965.252s-.318.426-.318.774v1.212h2.136l-.126.876h-2.01V63.5h-1.147v-4.974h-1.482v-.876h1.483v-1.206c0-.396.1-.74.3-1.032.203-.292.481-.518.833-.678.357-.16.765-.24 1.225-.24zm5.976 2.532c.604 0 1.11.136 1.518.408.412.272.722.656.93 1.152.212.492.318 1.074.318 1.746 0 .652-.108 1.228-.324 1.728a2.646 2.646 0 01-.936 1.17c-.412.28-.918.42-1.518.42s-1.108-.136-1.524-.408c-.412-.272-.724-.656-.936-1.152s-.318-1.078-.318-1.746c0-.656.106-1.232.318-1.728.216-.5.532-.89.948-1.17s.924-.42 1.524-.42zm0 .918c-.52 0-.912.196-1.176.588-.264.388-.396.992-.396 1.812 0 .812.13 1.414.39 1.806.26.388.65.582 1.17.582s.91-.194 1.17-.582c.26-.392.39-.998.39-1.818 0-.816-.13-1.418-.39-1.806-.256-.388-.642-.582-1.158-.582zm4.89 5.556v-.852h.96v-4.62h-.96v-.852h1.84l.21 1.482c.24-.524.534-.926.882-1.206.352-.284.808-.426 1.368-.426a2.5 2.5 0 01.486.042c.144.028.29.064.438.108l-.342 1.008c-.132-.04-.252-.068-.36-.084s-.232-.024-.372-.024c-.476 0-.884.172-1.224.516s-.612.85-.816 1.518v2.538h1.284v.852zm4.157-4.104v-1.452l.132-.768h.936l-.18 2.22zm14.285-4.212v8.076h-1.848v-6.21l-1.71 1.068-.804-1.302 2.682-1.632zm1.554 6.882V63.5h-5.406v-1.434zm3.527-7.092l1.614.594-1.968 4.764h4.152v1.422h-6.108v-1.26zm2.964 3.354V63.5h-1.818l-.024-2.976.24-2.196zm13.247-3.93l1.896.198V63.5h-1.68l-.096-.702a2.37 2.37 0 01-.702.642c-.292.176-.646.264-1.062.264-.528 0-.966-.142-1.314-.426-.344-.284-.602-.68-.774-1.188-.168-.512-.252-1.11-.252-1.794 0-.656.102-1.238.306-1.746s.496-.906.876-1.194c.38-.292.832-.438 1.356-.438a1.98 1.98 0 011.446.588zm-.936 3.906c-.328 0-.592.156-.792.468-.2.308-.3.82-.3 1.536 0 .524.042.932.126 1.224.084.288.2.49.348.606s.318.174.51.174a.923.923 0 00.576-.198c.176-.132.332-.312.468-.54v-2.748c-.132-.164-.272-.292-.42-.384s-.32-.138-.516-.138zm9.971 3.36c0 .24.032.414.096.522a.63.63 0 00.324.246l-.39 1.248a2.75 2.75 0 01-.954-.246 1.445 1.445 0 01-.606-.594c-.244.292-.556.51-.936.654-.38.14-.768.21-1.164.21-.656 0-1.18-.186-1.572-.558-.388-.376-.582-.858-.582-1.446 0-.692.27-1.226.81-1.602.544-.376 1.308-.564 2.292-.564h.858v-.24c0-.332-.108-.578-.324-.738-.212-.16-.524-.24-.936-.24-.204 0-.466.03-.786.09-.32.056-.64.138-.96.246l-.438-1.26c.412-.156.84-.274 1.284-.354.448-.08.848-.12 1.2-.12.948 0 1.648.194 2.1.582.456.384.684.94.684 1.668zm-2.976.684c.204 0 .418-.06.642-.18.224-.124.394-.298.51-.522v-1.032h-.468c-.528 0-.916.082-1.164.246-.248.16-.372.396-.372.708 0 .244.074.436.222.576.152.136.362.204.63.204zm10.931-5.22L150.26 63.5c-.188.564-.438 1.036-.75 1.416a3.07 3.07 0 01-1.158.888c-.46.208-1.014.33-1.662.366l-.216-1.338c.42-.052.758-.13 1.014-.234.26-.104.468-.246.624-.426.16-.176.298-.4.414-.672h-.648l-2.022-6.372h2.004l1.236 5.16 1.344-5.16zm3.828 5.22c.316 0 .57-.05.762-.15.196-.1.294-.25.294-.45 0-.136-.038-.25-.114-.342s-.222-.18-.438-.264-.536-.184-.96-.3a4.867 4.867 0 01-1.032-.396 1.905 1.905 0 01-.696-.618c-.164-.252-.246-.566-.246-.942 0-.38.106-.718.318-1.014s.524-.528.936-.696c.412-.172.916-.258 1.512-.258.568 0 1.062.074 1.482.222.424.144.79.328 1.098.552l-.756 1.116a3.744 3.744 0 00-.852-.39c-.304-.1-.61-.15-.918-.15s-.538.042-.69.126a.39.39 0 00-.222.366c0 .108.038.202.114.282.08.076.228.156.444.24.216.08.532.18.948.3.412.116.77.25 1.074.402.308.152.546.356.714.612.168.252.252.586.252 1.002 0 .464-.138.854-.414 1.17-.276.312-.642.546-1.098.702s-.956.234-1.5.234c-.616 0-1.16-.088-1.632-.264s-.874-.408-1.206-.696l.954-1.068c.248.192.528.352.84.48.316.128.66.192 1.032.192zm14.794-5.43c.656 0 1.214.14 1.674.42s.812.674 1.056 1.182c.244.504.366 1.096.366 1.776 0 .708-.124 1.318-.372 1.83-.244.508-.596.898-1.056 1.17s-1.016.408-1.668.408c-.648 0-1.204-.134-1.668-.402a2.658 2.658 0 01-1.062-1.164c-.244-.508-.366-1.118-.366-1.83 0-.676.122-1.268.366-1.776a2.811 2.811 0 011.062-1.188c.464-.284 1.02-.426 1.668-.426zm0 1.398c-.388 0-.676.16-.864.48-.184.316-.276.82-.276 1.512 0 .704.092 1.214.276 1.53.188.316.476.474.864.474s.674-.158.858-.474c.188-.316.282-.83.282-1.542 0-.688-.094-1.19-.282-1.506-.184-.316-.47-.474-.858-.474zm8.592-3.918c.464 0 .874.038 1.23.114.356.072.674.168.954.288l-.522 1.236a3.325 3.325 0 00-.678-.18 4.055 4.055 0 00-.69-.06c-.376 0-.646.068-.81.204-.16.136-.24.362-.24.678v.852h2.076l-.21 1.314h-1.866V63.5h-1.884v-4.656h-1.338V57.53h1.338v-.924c0-.42.1-.796.3-1.128s.496-.594.888-.786c.392-.196.876-.294 1.452-.294zm-153.202 16c.464 0 .874.038 1.23.114.356.072.674.168.954.288l-.522 1.236a3.325 3.325 0 00-.678-.18 4.055 4.055 0 00-.69-.06c-.376 0-.646.068-.81.204-.16.136-.24.362-.24.678v.852h2.076l-.21 1.314H25.64V79.5h-1.884v-4.656h-1.338V73.53h1.338v-.924c0-.42.1-.796.3-1.128s.496-.594.888-.786c.392-.196.876-.294 1.452-.294zm3.3 9.102v-1.272h.84v-3.84h-.84v-1.26h2.285l.348 1.434c.228-.548.518-.956.87-1.224.356-.268.79-.402 1.302-.402.216 0 .408.018.576.054.168.032.326.078.474.138l-.576 1.566a2.69 2.69 0 00-.732-.096c-.416 0-.782.17-1.098.51-.312.34-.55.772-.714 1.296v1.824h1.26V79.5zm4.313-3.708v-1.86l.282-.804h1.26l-.354 2.664zm4.566 1.074c.044.348.134.63.27.846.14.212.318.368.534.468.216.096.458.144.726.144.292 0 .574-.048.846-.144s.534-.224.786-.384l.762 1.032a3.71 3.71 0 01-1.092.63 4.004 4.004 0 01-1.452.246c-.728 0-1.338-.144-1.83-.432-.492-.292-.862-.692-1.11-1.2s-.372-1.092-.372-1.752c0-.628.12-1.198.36-1.71.24-.516.59-.926 1.05-1.23.464-.308 1.03-.462 1.698-.462.608 0 1.134.13 1.578.39.448.26.794.634 1.038 1.122.248.488.372 1.074.372 1.758 0 .108-.004.224-.012.348a3.633 3.633 0 01-.024.33zm1.176-2.676c-.34 0-.614.122-.822.366s-.334.634-.378 1.17h2.34c-.004-.464-.094-.836-.27-1.116s-.466-.42-.87-.42zm6.119 2.676c.044.348.134.63.27.846.14.212.318.368.534.468.216.096.458.144.726.144.292 0 .574-.048.846-.144s.534-.224.786-.384l.762 1.032a3.71 3.71 0 01-1.092.63 4.004 4.004 0 01-1.452.246c-.728 0-1.338-.144-1.83-.432-.492-.292-.862-.692-1.11-1.2s-.372-1.092-.372-1.752c0-.628.12-1.198.36-1.71.24-.516.59-.926 1.05-1.23.464-.308 1.03-.462 1.698-.462.608 0 1.134.13 1.578.39.448.26.794.634 1.038 1.122.248.488.372 1.074.372 1.758 0 .108-.004.224-.012.348a3.633 3.633 0 01-.024.33zm1.176-2.676c-.34 0-.614.122-.822.366s-.334.634-.378 1.17h2.34c-.004-.464-.094-.836-.27-1.116s-.466-.42-.87-.42zm14.327 4.158c.316 0 .57-.05.762-.15.196-.1.294-.25.294-.45 0-.136-.038-.25-.114-.342s-.222-.18-.438-.264-.536-.184-.96-.3a4.867 4.867 0 01-1.032-.396 1.905 1.905 0 01-.696-.618c-.164-.252-.246-.566-.246-.942 0-.38.106-.718.318-1.014s.524-.528.936-.696c.412-.172.916-.258 1.512-.258.568 0 1.062.074 1.482.222.424.144.79.328 1.098.552l-.756 1.116a3.744 3.744 0 00-.852-.39c-.304-.1-.61-.15-.918-.15s-.538.042-.69.126a.39.39 0 00-.222.366c0 .108.038.202.114.282.08.076.228.156.444.24.216.08.532.18.948.3.412.116.77.25 1.074.402.308.152.546.356.714.612.168.252.252.586.252 1.002 0 .464-.138.854-.414 1.17-.276.312-.642.546-1.098.702s-.956.234-1.5.234c-.616 0-1.16-.088-1.632-.264s-.874-.408-1.206-.696l.954-1.068c.248.192.528.352.84.48.316.128.66.192 1.032.192zm6.635-5.22v4.362c0 .308.056.52.168.636.116.116.276.174.48.174.196 0 .392-.062.588-.186s.36-.292.492-.504v-4.482h1.896V79.5h-1.656l-.084-.744c-.216.312-.5.548-.852.708s-.72.24-1.104.24c-.616 0-1.074-.178-1.374-.534-.3-.36-.45-.842-.45-1.446v-4.596zm8.927-.21c.556 0 1.004.138 1.344.414s.588.666.744 1.17c.16.504.24 1.102.24 1.794 0 .656-.096 1.242-.288 1.758-.192.512-.47.916-.834 1.212-.364.292-.806.438-1.326.438-.62 0-1.124-.222-1.512-.666v2.922l-1.896.198v-9.03h1.68l.084.714c.26-.332.544-.568.852-.708.308-.144.612-.216.912-.216zm-.588 1.398c-.22 0-.414.066-.582.198s-.322.312-.462.54v2.688c.132.196.27.34.414.432a.968.968 0 00.522.138c.336 0 .598-.152.786-.456.188-.308.282-.82.282-1.536 0-.528-.038-.936-.114-1.224-.076-.292-.186-.494-.33-.606a.797.797 0 00-.516-.174zm7.884-1.398c.556 0 1.004.138 1.344.414s.588.666.744 1.17c.16.504.24 1.102.24 1.794 0 .656-.096 1.242-.288 1.758-.192.512-.47.916-.834 1.212-.364.292-.806.438-1.326.438-.62 0-1.124-.222-1.512-.666v2.922l-1.896.198v-9.03h1.68l.084.714c.26-.332.544-.568.852-.708.308-.144.612-.216.912-.216zm-.588 1.398c-.22 0-.414.066-.582.198s-.322.312-.462.54v2.688c.132.196.27.34.414.432a.968.968 0 00.522.138c.336 0 .598-.152.786-.456.188-.308.282-.82.282-1.536 0-.528-.038-.936-.114-1.224-.076-.292-.186-.494-.33-.606a.797.797 0 00-.516-.174zm7.115-1.398c.656 0 1.214.14 1.674.42s.812.674 1.056 1.182c.244.504.366 1.096.366 1.776 0 .708-.124 1.318-.372 1.83-.244.508-.596.898-1.056 1.17s-1.016.408-1.668.408c-.648 0-1.204-.134-1.668-.402a2.658 2.658 0 01-1.062-1.164c-.244-.508-.366-1.118-.366-1.83 0-.676.122-1.268.366-1.776a2.811 2.811 0 011.062-1.188c.464-.284 1.02-.426 1.668-.426zm0 1.398c-.388 0-.676.16-.864.48-.184.316-.276.82-.276 1.512 0 .704.092 1.214.276 1.53.188.316.476.474.864.474s.674-.158.858-.474c.188-.316.282-.83.282-1.542 0-.688-.094-1.19-.282-1.506-.184-.316-.47-.474-.858-.474zm4.595 5.184v-1.272h.84v-3.84h-.84v-1.26h2.286l.348 1.434c.228-.548.518-.956.87-1.224.356-.268.79-.402 1.302-.402.216 0 .408.018.576.054.168.032.326.078.474.138l-.576 1.566a2.69 2.69 0 00-.732-.096c-.416 0-.782.17-1.098.51-.312.34-.55.772-.714 1.296v1.824h1.26V79.5zm4.314-3.708v-1.86l.282-.804h1.26l-.354 2.664zm8.657 3.336c-.248.16-.548.296-.9.408s-.748.168-1.188.168c-.832 0-1.45-.212-1.854-.636-.404-.428-.606-1.008-.606-1.74v-2.892h-1.338v-1.308h1.338v-1.38l1.896-.228v1.608h2.052l-.186 1.308h-1.866v2.892c0 .316.072.542.216.678s.374.204.69.204c.224 0 .428-.026.612-.078.188-.056.356-.126.504-.21zm14.219-1.464c0 .24.032.414.096.522a.63.63 0 00.324.246l-.39 1.248a2.75 2.75 0 01-.954-.246 1.445 1.445 0 01-.606-.594c-.244.292-.556.51-.936.654-.38.14-.768.21-1.164.21-.656 0-1.18-.186-1.572-.558-.388-.376-.582-.858-.582-1.446 0-.692.27-1.226.81-1.602.544-.376 1.308-.564 2.292-.564h.858v-.24c0-.332-.108-.578-.324-.738-.212-.16-.524-.24-.936-.24-.204 0-.466.03-.786.09-.32.056-.64.138-.96.246l-.438-1.26c.412-.156.84-.274 1.284-.354.448-.08.848-.12 1.2-.12.948 0 1.648.194 2.1.582.456.384.684.94.684 1.668zm-2.976.684c.204 0 .418-.06.642-.18.224-.124.394-.298.51-.522v-1.032h-.468c-.528 0-.916.082-1.164.246-.248.16-.372.396-.372.708 0 .244.074.436.222.576.152.136.362.204.63.204zm8.285-.138c.26 0 .504-.05.732-.15a4.18 4.18 0 00.69-.396l.846 1.2c-.28.24-.622.44-1.026.6-.4.16-.848.24-1.344.24-.684 0-1.272-.14-1.764-.42a2.892 2.892 0 01-1.134-1.176c-.264-.504-.396-1.088-.396-1.752s.134-1.254.402-1.77c.272-.52.656-.928 1.152-1.224.5-.296 1.092-.444 1.776-.444.484 0 .914.068 1.29.204.38.132.728.33 1.044.594l-.822 1.14c-.216-.152-.444-.27-.684-.354s-.49-.126-.75-.126c-.428 0-.774.152-1.038.456-.26.3-.39.808-.39 1.524 0 .468.062.838.186 1.11.124.268.292.46.504.576.216.112.458.168.726.168zm7.296 0c.26 0 .504-.05.732-.15a4.18 4.18 0 00.69-.396l.846 1.2c-.28.24-.622.44-1.026.6-.4.16-.848.24-1.344.24-.684 0-1.272-.14-1.764-.42a2.892 2.892 0 01-1.134-1.176c-.264-.504-.396-1.088-.396-1.752s.134-1.254.402-1.77c.272-.52.656-.928 1.152-1.224.5-.296 1.092-.444 1.776-.444.484 0 .914.068 1.29.204.38.132.728.33 1.044.594l-.822 1.14c-.216-.152-.444-.27-.684-.354s-.49-.126-.75-.126c-.428 0-.774.152-1.038.456-.26.3-.39.808-.39 1.524 0 .468.062.838.186 1.11.124.268.292.46.504.576.216.112.458.168.726.168zm5.561-1.344c.044.348.134.63.27.846.14.212.318.368.534.468.216.096.458.144.726.144.292 0 .574-.048.846-.144s.534-.224.786-.384l.762 1.032a3.71 3.71 0 01-1.092.63 4.004 4.004 0 01-1.452.246c-.728 0-1.338-.144-1.83-.432-.492-.292-.862-.692-1.11-1.2s-.372-1.092-.372-1.752c0-.628.12-1.198.36-1.71.24-.516.59-.926 1.05-1.23.464-.308 1.03-.462 1.698-.462.608 0 1.134.13 1.578.39.448.26.794.634 1.038 1.122.248.488.372 1.074.372 1.758 0 .108-.004.224-.012.348a3.633 3.633 0 01-.024.33zm1.176-2.676c-.34 0-.614.122-.822.366s-.334.634-.378 1.17h2.34c-.004-.464-.094-.836-.27-1.116s-.466-.42-.87-.42zm7.031 4.158c.316 0 .57-.05.762-.15.196-.1.294-.25.294-.45 0-.136-.038-.25-.114-.342s-.222-.18-.438-.264-.536-.184-.96-.3a4.867 4.867 0 01-1.032-.396 1.905 1.905 0 01-.696-.618c-.164-.252-.246-.566-.246-.942 0-.38.106-.718.318-1.014s.524-.528.936-.696c.412-.172.916-.258 1.512-.258.568 0 1.062.074 1.482.222.424.144.79.328 1.098.552l-.756 1.116a3.744 3.744 0 00-.852-.39c-.304-.1-.61-.15-.918-.15s-.538.042-.69.126a.39.39 0 00-.222.366c0 .108.038.202.114.282.08.076.228.156.444.24.216.08.532.18.948.3.412.116.77.25 1.074.402.308.152.546.356.714.612.168.252.252.586.252 1.002 0 .464-.138.854-.414 1.17-.276.312-.642.546-1.098.702s-.956.234-1.5.234c-.616 0-1.16-.088-1.632-.264s-.874-.408-1.206-.696l.954-1.068c.248.192.528.352.84.48.316.128.66.192 1.032.192zm7.296 0c.316 0 .57-.05.762-.15.196-.1.294-.25.294-.45 0-.136-.038-.25-.114-.342s-.222-.18-.438-.264-.536-.184-.96-.3a4.867 4.867 0 01-1.032-.396 1.905 1.905 0 01-.696-.618c-.164-.252-.246-.566-.246-.942 0-.38.106-.718.318-1.014s.524-.528.936-.696c.412-.172.916-.258 1.512-.258.568 0 1.062.074 1.482.222.424.144.79.328 1.098.552l-.756 1.116a3.744 3.744 0 00-.852-.39c-.304-.1-.61-.15-.918-.15s-.538.042-.69.126a.39.39 0 00-.222.366c0 .108.038.202.114.282.08.076.228.156.444.24.216.08.532.18.948.3.412.116.77.25 1.074.402.308.152.546.356.714.612.168.252.252.586.252 1.002 0 .464-.138.854-.414 1.17-.276.312-.642.546-1.098.702s-.956.234-1.5.234c-.616 0-1.16-.088-1.632-.264s-.874-.408-1.206-.696l.954-1.068c.248.192.528.352.84.48.316.128.66.192 1.032.192zm17.14 1.152h-1.536l-.774-4.578-.834 4.578h-1.5l-1.122-6.324h1.146l.744 5.61.954-4.806h1.26l.894 4.806.744-5.61h1.098zm5.808-6.324v5.448h1.758v.876h-4.836v-.876h1.926v-4.572h-1.866v-.876zm-.858-3.024c.24 0 .432.074.576.222a.735.735 0 01.222.54.77.77 0 01-.222.558c-.144.148-.336.222-.576.222a.78.78 0 01-.576-.222.781.781 0 01-.216-.558c0-.212.072-.392.216-.54a.78.78 0 01.576-.222zm9.977 9.024a2.84 2.84 0 01-.81.342 3.52 3.52 0 01-.948.132c-.704 0-1.244-.184-1.62-.552-.372-.368-.558-.846-.558-1.434V74.04h-1.434v-.864h1.434v-1.428l1.152-.138v1.566h2.16l-.132.864h-2.028v3.612c0 .348.088.61.264.786.18.176.478.264.894.264.236 0 .452-.028.648-.084s.378-.128.546-.216zm3.311-8.658v3.48c.252-.324.554-.566.906-.726a2.572 2.572 0 011.086-.246c.608 0 1.056.166 1.344.498.288.328.432.786.432 1.374V79.5h-1.152V75c0-.38-.082-.654-.246-.822-.16-.172-.416-.258-.768-.258-.224 0-.438.05-.642.15-.2.1-.382.228-.546.384-.164.152-.302.31-.414.474V79.5h-1.152v-8.856zM28.028 89.176l-2.208 6.36c-.152.448-.348.852-.588 1.212s-.55.654-.93.882c-.376.232-.85.376-1.422.432l-.162-.894c.432-.068.774-.172 1.026-.312a1.62 1.62 0 00.6-.546c.148-.224.28-.494.396-.81h-.39l-2.178-6.324h1.23l1.722 5.484 1.716-5.484zm4.38-.15c.603 0 1.11.136 1.517.408.412.272.722.656.93 1.152.212.492.318 1.074.318 1.746 0 .652-.108 1.228-.324 1.728a2.646 2.646 0 01-.936 1.17c-.412.28-.918.42-1.518.42s-1.108-.136-1.524-.408c-.412-.272-.724-.656-.936-1.152s-.318-1.078-.318-1.746c0-.656.106-1.232.318-1.728.216-.5.532-.89.948-1.17s.924-.42 1.524-.42zm0 .918c-.52 0-.913.196-1.177.588-.264.388-.396.992-.396 1.812 0 .812.13 1.414.39 1.806.26.388.65.582 1.17.582s.91-.194 1.17-.582c.26-.392.39-.998.39-1.818 0-.816-.13-1.418-.39-1.806-.256-.388-.642-.582-1.158-.582zm5.98-.768v4.452c0 .4.083.688.247.864.164.172.414.258.75.258.324 0 .632-.094.924-.282s.52-.412.684-.672v-4.62h1.152V95.5h-.99l-.084-.834c-.24.316-.542.56-.906.732a2.612 2.612 0 01-1.104.252c-.612 0-1.07-.166-1.374-.498-.3-.332-.45-.792-.45-1.38v-4.596zm6.204 6.324v-.852h.96v-4.62h-.96v-.852h1.842l.21 1.482c.24-.524.534-.926.882-1.206.352-.284.808-.426 1.368-.426a2.5 2.5 0 01.486.042c.144.028.29.064.438.108l-.342 1.008c-.132-.04-.252-.068-.36-.084s-.232-.024-.372-.024c-.476 0-.884.172-1.224.516s-.612.85-.816 1.518v2.538h1.284v.852zm4.158-4.104v-1.452l.132-.768h.936l-.18 2.22zm13.403-3.174V95.5h-1.188v-7.278H58.42v-.99h6.318l-.126.99zm7.577.954v5.448h1.758v.876h-4.836v-.876h1.926v-4.572h-1.866v-.876zm-.858-3.024c.24 0 .432.074.576.222a.735.735 0 01.222.54.77.77 0 01-.222.558c-.144.148-.336.222-.576.222a.78.78 0 01-.576-.222.781.781 0 01-.216-.558c0-.212.072-.392.216-.54a.78.78 0 01.576-.222zm4.841 9.348v-6.324h.99l.084.852a2.6 2.6 0 01.948-.744 2.68 2.68 0 011.122-.258c.608 0 1.056.166 1.344.498.288.328.432.786.432 1.374V95.5h-1.152v-3.894a5.3 5.3 0 00-.072-.972c-.044-.252-.138-.434-.282-.546s-.362-.168-.654-.168c-.228 0-.444.05-.648.15s-.388.226-.552.378c-.16.152-.296.31-.408.474V95.5zm12.678-6.324l-2.208 6.36c-.152.448-.348.852-.588 1.212s-.55.654-.93.882c-.376.232-.85.376-1.422.432l-.162-.894c.432-.068.774-.172 1.026-.312a1.62 1.62 0 00.6-.546c.148-.224.28-.494.396-.81h-.39l-2.178-6.324h1.23l1.722 5.484 1.716-5.484zm7.157-1.944l.468 8.268H92.9l-.234-4.194a67.226 67.226 0 01-.048-1.728v-.732l.012-.546-1.32 5.73h-1.116l-1.416-5.73c.008.14.014.324.018.552.008.228.012.48.012.756.004.276.004.56 0 .852s-.01.574-.018.846l-.198 4.194H87.5l.468-8.268h1.542l1.272 5.61 1.212-5.61zm5.201-.15c.548 0 1.008.07 1.38.21.376.14.728.344 1.056.612l-.642.756a2.532 2.532 0 00-.816-.462c-.284-.1-.586-.15-.906-.15-.432 0-.834.106-1.206.318-.368.212-.664.56-.888 1.044s-.336 1.134-.336 1.95c0 .796.106 1.436.318 1.92.216.48.506.83.87 1.05.368.216.778.324 1.23.324.456 0 .83-.07 1.122-.21.296-.144.556-.308.78-.492l.594.762a3.53 3.53 0 01-1.014.66c-.412.184-.916.276-1.512.276-.684 0-1.3-.164-1.848-.492s-.982-.81-1.302-1.446c-.316-.64-.474-1.424-.474-2.352s.162-1.71.486-2.346c.328-.636.764-1.116 1.308-1.44a3.44 3.44 0 011.8-.492zm5.633 1.086v2.658h3.036v.942h-3.036v2.802h3.714v.93h-4.908v-8.268h4.818l-.138.936zm17.765 5.88c0 .252.04.436.12.552a.72.72 0 00.378.252l-.27.792c-.288-.036-.538-.122-.75-.258s-.37-.344-.474-.624a2.189 2.189 0 01-.864.666 2.867 2.867 0 01-1.134.222c-.636 0-1.138-.18-1.506-.54s-.552-.834-.552-1.422c0-.66.256-1.166.768-1.518.516-.352 1.256-.528 2.22-.528h.918v-.48c0-.436-.13-.746-.39-.93-.256-.184-.614-.276-1.074-.276-.208 0-.456.026-.744.078s-.594.134-.918.246l-.294-.84a6.39 6.39 0 011.122-.318c.36-.064.696-.096 1.008-.096.816 0 1.426.186 1.83.558.404.368.606.874.606 1.518zm-2.67.738c.296 0 .58-.076.852-.228s.496-.364.672-.636v-1.53h-.84c-.668 0-1.142.114-1.422.342-.28.224-.42.532-.42.924 0 .368.096.648.288.84s.482.288.87.288zm8.243-.108c.308 0 .594-.052.858-.156.268-.104.518-.236.75-.396l.552.75c-.276.236-.61.424-1.002.564s-.784.21-1.176.21c-.636 0-1.18-.136-1.632-.408-.448-.272-.79-.654-1.026-1.146s-.354-1.068-.354-1.728c0-.64.118-1.212.354-1.716.24-.504.586-.9 1.038-1.188.452-.292.998-.438 1.638-.438.416 0 .802.064 1.158.192.36.124.69.308.99.552l-.546.75a3.282 3.282 0 00-.786-.408 2.353 2.353 0 00-.81-.144c-.528 0-.96.196-1.296.588s-.504.996-.504 1.812c0 .544.076.986.228 1.326.156.34.37.59.642.75.272.156.58.234.924.234zm7.296 0c.308 0 .594-.052.858-.156.268-.104.518-.236.75-.396l.552.75c-.276.236-.61.424-1.002.564s-.784.21-1.176.21c-.636 0-1.18-.136-1.632-.408-.448-.272-.79-.654-1.026-1.146s-.354-1.068-.354-1.728c0-.64.118-1.212.354-1.716.24-.504.586-.9 1.038-1.188.452-.292.998-.438 1.638-.438.416 0 .802.064 1.158.192.36.124.69.308.99.552l-.546.75a3.282 3.282 0 00-.786-.408 2.353 2.353 0 00-.81-.144c-.528 0-.96.196-1.296.588s-.504.996-.504 1.812c0 .544.076.986.228 1.326.156.34.37.59.642.75.272.156.58.234.924.234zm6.821-5.652c.604 0 1.11.136 1.518.408.412.272.722.656.93 1.152.212.492.318 1.074.318 1.746 0 .652-.108 1.228-.324 1.728a2.646 2.646 0 01-.936 1.17c-.412.28-.918.42-1.518.42s-1.108-.136-1.524-.408c-.412-.272-.724-.656-.936-1.152s-.318-1.078-.318-1.746c0-.656.106-1.232.318-1.728.216-.5.532-.89.948-1.17s.924-.42 1.524-.42zm0 .918c-.52 0-.912.196-1.176.588-.264.388-.396.992-.396 1.812 0 .812.13 1.414.39 1.806.26.388.65.582 1.17.582s.91-.194 1.17-.582c.26-.392.39-.998.39-1.818 0-.816-.13-1.418-.39-1.806-.256-.388-.642-.582-1.158-.582zm5.981-.768v4.452c0 .4.082.688.246.864.164.172.414.258.75.258.324 0 .632-.094.924-.282s.52-.412.684-.672v-4.62h1.152V95.5h-.99l-.084-.834c-.24.316-.542.56-.906.732a2.612 2.612 0 01-1.104.252c-.612 0-1.07-.166-1.374-.498-.3-.332-.45-.792-.45-1.38v-4.596zm6.144 6.324v-6.324h.99l.084.852a2.6 2.6 0 01.948-.744 2.68 2.68 0 011.122-.258c.608 0 1.056.166 1.344.498.288.328.432.786.432 1.374V95.5h-1.152v-3.894a5.3 5.3 0 00-.072-.972c-.044-.252-.138-.434-.282-.546s-.362-.168-.654-.168c-.228 0-.444.05-.648.15s-.388.226-.552.378c-.16.152-.296.31-.408.474V95.5zm12.431-.324a2.84 2.84 0 01-.81.342 3.52 3.52 0 01-.948.132c-.704 0-1.244-.184-1.62-.552-.372-.368-.558-.846-.558-1.434V90.04h-1.434v-.864h1.434v-1.428l1.152-.138v1.566h2.16l-.132.864h-2.028v3.612c0 .348.088.61.264.786.18.176.478.264.894.264.236 0 .452-.028.648-.084s.378-.128.546-.216zm4.373-.444c.46 0 .822-.084 1.086-.252.268-.168.402-.396.402-.684a.976.976 0 00-.108-.474c-.068-.132-.212-.252-.432-.36-.216-.108-.544-.218-.984-.33-.428-.108-.802-.234-1.122-.378s-.568-.332-.744-.564c-.172-.232-.258-.532-.258-.9 0-.36.1-.672.3-.936.204-.264.49-.468.858-.612.372-.144.804-.216 1.296-.216.52 0 .972.07 1.356.21.388.136.716.304.984.504l-.492.75a3.598 3.598 0 00-.804-.402 3.005 3.005 0 00-1.02-.156c-.468 0-.802.072-1.002.216a.654.654 0 00-.294.558c0 .172.048.316.144.432.1.112.27.216.51.312s.572.202.996.318c.412.112.772.244 1.08.396s.546.352.714.6c.172.244.258.566.258.966 0 .452-.13.82-.39 1.104a2.3 2.3 0 01-1.014.618 4.301 4.301 0 01-1.32.198c-.576 0-1.072-.084-1.488-.252a3.68 3.68 0 01-1.038-.618l.636-.732c.248.204.532.37.852.498.32.124.666.186 1.038.186z"/><path clip-rule="evenodd" d="M155 23c-5.523 0-10 4.477-10 10s4.477 10 10 10 10-4.477 10-10a10.002 10.002 0 00-10-10zm0 18a8 8 0 110-16 8 8 0 010 16zm5-8.09V33a.987.987 0 01-.08.39.993.993 0 01-.21.32l-3 3a1 1 0 01-1.42 0 1.002 1.002 0 010-1.42l1.3-1.29H151a1 1 0 010-2h5.66l-1.23-1.31a1.001 1.001 0 011.45-1.38l2.86 3a1 1 0 01.09.13.731.731 0 01.11.19.9.9 0 01.06.28z" fill-rule="evenodd"/></g></svg>