<svg fill="none" height="120" viewBox="0 0 240 120" width="240" xmlns="http://www.w3.org/2000/svg"><rect fill="#002fe6" height="120" rx="4" width="240"/><g fill="#fff"><path d="M24.825 31.07a2.633 2.633 0 00-.343-.721 2.216 2.216 0 00-.517-.552 2.086 2.086 0 00-.686-.343c-.258-.08-.54-.12-.845-.12-.547 0-1.034.138-1.462.413s-.764.68-1.009 1.213c-.242.53-.363 1.177-.363 1.94 0 .768.121 1.42.363 1.953.242.534.578.94 1.01 1.218.43.275.93.413 1.5.413.518 0 .965-.1 1.343-.299.381-.199.675-.48.88-.845.205-.368.308-.799.308-1.292l.418.064h-2.764V32.67h4.131v1.224c0 .871-.186 1.625-.557 2.262a3.804 3.804 0 01-1.531 1.471c-.65.342-1.395.512-2.237.512-.938 0-1.762-.21-2.471-.631-.706-.424-1.258-1.026-1.656-1.805-.394-.782-.591-1.71-.591-2.784 0-.822.116-1.556.348-2.202a4.765 4.765 0 01.984-1.646 4.191 4.191 0 011.482-1.034 4.718 4.718 0 011.85-.358 4.85 4.85 0 011.575.249c.487.162.92.394 1.298.696.38.301.694.66.94 1.073s.405.872.482 1.373zm7.049 7.08c-.766 0-1.427-.16-1.984-.478a3.233 3.233 0 01-1.278-1.362c-.298-.59-.447-1.285-.447-2.083 0-.786.15-1.475.447-2.069a3.384 3.384 0 011.263-1.392c.54-.334 1.175-.502 1.904-.502.47 0 .915.076 1.333.229.42.149.792.381 1.113.696.325.315.58.716.766 1.203.186.484.278 1.06.278 1.73v.552H29.01v-1.213h4.534a1.936 1.936 0 00-.224-.92 1.626 1.626 0 00-.611-.641 1.719 1.719 0 00-.905-.234c-.368 0-.69.09-.97.269a1.85 1.85 0 00-.65.696c-.153.285-.23.598-.234.94v1.058c0 .444.081.826.243 1.144.163.315.39.557.681.726.292.165.633.248 1.025.248.261 0 .498-.036.71-.11.213-.075.397-.186.552-.332s.274-.327.353-.542l1.68.189a2.62 2.62 0 01-.606 1.163 2.957 2.957 0 01-1.133.766c-.461.179-.988.268-1.581.268zm8.731-7.786v1.392h-4.39v-1.392zm-3.306-1.83h1.8v7.17c0 .241.036.427.11.556.075.126.175.212.297.259s.259.07.408.07c.113 0 .215-.01.308-.026.096-.016.17-.031.22-.044l.302 1.406c-.096.034-.233.07-.412.11a3.39 3.39 0 01-.647.07 2.935 2.935 0 01-1.218-.204 1.896 1.896 0 01-.86-.706c-.209-.319-.311-.716-.308-1.194zm12.405-.716V38H47.86v-8.387h-.06l-2.381 1.521v-1.69l2.53-1.626zm6.12-.139c.488.003.962.09 1.422.259a3.29 3.29 0 011.253.815c.371.374.666.877.885 1.506.219.63.328 1.409.328 2.337.003.875-.09 1.657-.278 2.347-.186.686-.453 1.266-.8 1.74a3.53 3.53 0 01-1.259 1.083 3.61 3.61 0 01-1.655.373c-.643 0-1.213-.126-1.71-.378-.494-.251-.893-.596-1.198-1.034s-.493-.938-.562-1.501h1.815c.092.404.281.726.566.964.289.236.651.353 1.089.353.706 0 1.25-.306 1.63-.92.382-.613.572-1.464.572-2.555h-.07a2.617 2.617 0 01-.63.756c-.26.209-.552.37-.88.482a3.13 3.13 0 01-1.035.17 3.081 3.081 0 01-1.61-.428 3.122 3.122 0 01-1.129-1.174c-.275-.497-.414-1.065-.418-1.705 0-.663.153-1.258.458-1.785a3.32 3.32 0 011.287-1.253c.55-.308 1.194-.459 1.93-.452zm.005 1.492c-.358 0-.68.087-.97.263a1.87 1.87 0 00-.675.706 2.017 2.017 0 00-.244.99c.003.36.085.689.244.984.162.295.383.528.661.7.282.173.603.26.965.26a1.832 1.832 0 001.357-.582c.175-.186.311-.397.407-.632.1-.235.148-.484.145-.746 0-.348-.083-.67-.249-.964a1.919 1.919 0 00-.671-.711 1.768 1.768 0 00-.97-.268zm8.561 7.198v-6.88h1.561v6.88zm-2.66-2.66v-1.56h6.881v1.56zm12.55 7.155v-10.5h1.77v1.262h.105c.092-.185.223-.382.392-.591.17-.212.398-.393.686-.542.289-.153.657-.229 1.104-.229.59 0 1.122.151 1.596.453.477.298.855.74 1.133 1.327.282.583.423 1.3.423 2.148 0 .838-.138 1.55-.413 2.138-.275.586-.65 1.034-1.123 1.342a2.89 2.89 0 01-1.611.462c-.437 0-.8-.073-1.089-.219a2.215 2.215 0 01-.696-.526 3.408 3.408 0 01-.402-.592h-.075v4.067zm1.765-6.682c0 .494.07.926.209 1.297.142.372.346.662.611.87.269.206.594.309.975.309.398 0 .73-.106 1-.318.268-.216.47-.51.606-.88.139-.375.209-.8.209-1.278 0-.474-.068-.895-.204-1.263s-.338-.656-.607-.865-.603-.313-1.004-.313c-.385 0-.711.1-.98.303-.268.202-.472.486-.611.85-.136.365-.204.794-.204 1.288zM83.03 38v-7.636h1.745v1.272h.08c.139-.44.378-.78.716-1.019a1.97 1.97 0 011.168-.363c.1 0 .21.005.333.015.126.007.23.018.313.035v1.655a1.894 1.894 0 00-.363-.07 3.34 3.34 0 00-.472-.034c-.328 0-.623.071-.885.214a1.57 1.57 0 00-.611.582 1.64 1.64 0 00-.224.86V38zm8.617.15c-.765 0-1.427-.16-1.983-.478a3.233 3.233 0 01-1.278-1.362c-.298-.59-.448-1.285-.448-2.083 0-.786.15-1.475.448-2.069a3.384 3.384 0 011.263-1.392c.54-.334 1.175-.502 1.904-.502.47 0 .915.076 1.332.229.421.149.792.381 1.114.696.325.315.58.716.765 1.203.186.484.279 1.06.279 1.73v.552h-6.26v-1.213h4.535a1.935 1.935 0 00-.224-.92 1.625 1.625 0 00-.612-.641 1.719 1.719 0 00-.904-.234c-.368 0-.691.09-.97.269a1.848 1.848 0 00-.651.696c-.153.285-.23.598-.234.94v1.058c0 .444.081.825.244 1.144.162.315.39.556.68.726.293.165.634.248 1.025.248.262 0 .499-.036.711-.11.212-.075.396-.187.552-.332.156-.146.273-.327.353-.542l1.68.189a2.62 2.62 0 01-.606 1.163 2.958 2.958 0 01-1.134.766c-.46.179-.987.268-1.58.268zm4.918-.15v-7.636h1.72v1.297h.09c.16-.437.423-.779.79-1.024.368-.249.808-.373 1.318-.373.517 0 .953.126 1.307.378.358.249.61.588.756 1.02h.08c.169-.425.454-.763.855-1.015.404-.255.883-.383 1.437-.383.702 0 1.276.222 1.72.666s.666 1.092.666 1.944V38h-1.805v-4.847c0-.474-.126-.82-.378-1.04a1.347 1.347 0 00-.924-.332c-.434 0-.774.135-1.019.407-.242.269-.363.618-.363 1.05V38h-1.765v-4.922c0-.394-.12-.71-.358-.945-.236-.235-.544-.353-.925-.353-.259 0-.494.067-.706.2a1.388 1.388 0 00-.507.551c-.126.236-.189.51-.189.825V38zm12.565 0v-7.636h1.8V38zm.905-8.72a1.05 1.05 0 01-.736-.284.911.911 0 01-.308-.69c0-.272.102-.503.308-.692a1.04 1.04 0 01.736-.288c.288 0 .533.096.735.288.206.19.309.42.309.691a.912.912 0 01-.309.691 1.037 1.037 0 01-.735.284zm7.612 5.508v-4.424h1.8V38h-1.745v-1.357h-.079a2.299 2.299 0 01-.851 1.049c-.391.272-.873.407-1.446.407-.501 0-.943-.11-1.328-.333a2.32 2.32 0 01-.895-.98c-.215-.43-.323-.95-.323-1.56v-4.862h1.8v4.583c0 .484.132.869.398 1.154.265.285.613.427 1.044.427.265 0 .522-.064.77-.193.249-.13.453-.322.612-.577.162-.259.243-.582.243-.97zM121.298 38v-7.636h1.72v1.297h.089a2.03 2.03 0 01.791-1.024c.368-.249.807-.373 1.317-.373.517 0 .953.126 1.308.378.358.249.61.588.756 1.02h.079c.169-.425.454-.763.855-1.015.405-.255.884-.383 1.437-.383.703 0 1.276.222 1.72.666s.666 1.092.666 1.944V38h-1.804v-4.847c0-.474-.126-.82-.378-1.04a1.35 1.35 0 00-.925-.332c-.434 0-.774.135-1.019.407-.242.269-.363.618-.363 1.05V38h-1.765v-4.922c0-.394-.119-.71-.358-.945-.235-.235-.543-.353-.925-.353a1.3 1.3 0 00-.705.2 1.383 1.383 0 00-.508.551c-.126.236-.189.51-.189.825V38zm16.037 2.864v-10.5h1.77v1.262h.104c.093-.185.224-.382.393-.591.169-.212.398-.393.686-.542.288-.153.656-.229 1.104-.229.59 0 1.122.151 1.596.453.477.298.855.74 1.133 1.327.282.583.423 1.3.423 2.148 0 .838-.138 1.55-.413 2.138-.275.586-.65 1.034-1.124 1.342a2.887 2.887 0 01-1.61.462c-.438 0-.801-.073-1.089-.219a2.224 2.224 0 01-.696-.526 3.428 3.428 0 01-.403-.592h-.074v4.067zm1.765-6.682c0 .494.069.926.209 1.297.142.372.346.662.611.87.269.206.593.309.975.309.397 0 .73-.106.999-.319.268-.215.47-.508.606-.88.14-.374.209-.8.209-1.277 0-.474-.068-.895-.204-1.263s-.338-.656-.606-.865c-.269-.209-.603-.313-1.004-.313-.385 0-.711.1-.98.303a1.866 1.866 0 00-.611.85c-.136.365-.204.794-.204 1.288zm8.785-6.364V38h-1.8V27.818zm6.717 6.97v-4.424h1.8V38h-1.745v-1.357h-.079a2.299 2.299 0 01-.851 1.049c-.391.271-.873.407-1.446.407-.501 0-.943-.11-1.328-.333a2.32 2.32 0 01-.895-.98c-.215-.43-.323-.95-.323-1.56v-4.862h1.8v4.583c0 .484.133.869.398 1.154.265.285.613.427 1.044.427.265 0 .522-.064.77-.194.249-.129.453-.321.612-.576.162-.259.243-.582.243-.97zm6.972 6.235c-.646 0-1.202-.088-1.666-.264-.464-.172-.837-.404-1.118-.696a2.403 2.403 0 01-.587-.97l1.621-.392c.073.15.179.297.318.442.139.15.327.272.562.368.238.1.538.15.9.15.51 0 .933-.125 1.267-.373.335-.246.503-.65.503-1.213v-1.447h-.09a2.564 2.564 0 01-.408.572c-.175.195-.409.36-.701.492-.288.132-.651.199-1.088.199a3.137 3.137 0 01-1.596-.413c-.474-.278-.852-.693-1.134-1.243-.278-.553-.417-1.246-.417-2.078 0-.839.139-1.546.417-2.123.282-.58.661-1.02 1.139-1.317a2.925 2.925 0 011.596-.453c.447 0 .815.076 1.103.229.292.149.524.33.696.542.173.209.304.406.393.591h.1v-1.262h1.774v7.76c0 .653-.155 1.193-.467 1.621-.312.428-.737.747-1.278.96-.54.212-1.153.318-1.839.318zm.015-4.544c.381 0 .706-.093.974-.279.269-.185.473-.452.612-.8.139-.348.209-.766.209-1.253 0-.48-.07-.901-.209-1.263-.136-.361-.338-.641-.607-.84-.265-.202-.591-.303-.979-.303-.401 0-.736.104-1.004.313a1.896 1.896 0 00-.607.86 3.482 3.482 0 00-.204 1.233c0 .467.068.877.204 1.228.139.348.343.62.611.815.272.193.605.289 1 .289zM167.003 38v-7.636h1.8V38zm.905-8.72a1.05 1.05 0 01-.736-.284.911.911 0 01-.308-.69c0-.272.102-.503.308-.692a1.04 1.04 0 01.736-.288c.288 0 .533.096.735.288.206.19.309.42.309.691a.912.912 0 01-.309.691 1.037 1.037 0 01-.735.284zm4.545 4.246V38h-1.8v-7.636h1.72v1.297h.09a2.19 2.19 0 01.84-1.019c.388-.252.867-.378 1.437-.378.527 0 .986.113 1.377.338.394.226.699.552.915.98.219.427.326.946.323 1.556V38h-1.8v-4.584c0-.51-.132-.91-.398-1.198-.261-.288-.624-.432-1.088-.432-.315 0-.595.07-.84.208a1.447 1.447 0 00-.572.592c-.136.259-.204.572-.204.94zm12.767-1.144l-1.641.18a1.31 1.31 0 00-.243-.468 1.208 1.208 0 00-.458-.353 1.664 1.664 0 00-.706-.134c-.374 0-.689.08-.944.243-.252.162-.376.373-.373.631a.661.661 0 00.244.542c.169.14.447.254.835.343l1.302.279c.723.156 1.26.403 1.611.74.355.339.534.781.537 1.328-.003.48-.144.905-.423 1.273-.275.364-.657.65-1.148.855-.49.205-1.054.308-1.69.308-.935 0-1.687-.195-2.257-.587-.57-.394-.91-.942-1.02-1.645l1.755-.17c.08.346.249.606.507.781.259.176.595.264 1.01.264.427 0 .77-.088 1.029-.264.262-.175.393-.392.393-.65a.68.68 0 00-.254-.543c-.166-.142-.424-.252-.776-.328l-1.302-.273c-.733-.153-1.274-.41-1.626-.77-.351-.365-.525-.826-.522-1.383-.003-.47.124-.878.383-1.223.262-.348.625-.616 1.089-.805.467-.193 1.006-.289 1.616-.289.894 0 1.599.19 2.112.572.518.381.837.897.96 1.546zM24.498 60.69c0 .48-.122.906-.366 1.278-.24.368-.588.658-1.044.87-.456.208-1.012.312-1.668.312-.632 0-1.196-.096-1.692-.288s-.918-.456-1.266-.792l.678-.762c.288.268.618.48.99.636s.806.234 1.302.234c.324 0 .624-.052.9-.156.28-.108.504-.268.672-.48.172-.216.258-.486.258-.81a1.3 1.3 0 00-.156-.66c-.1-.18-.278-.34-.534-.48s-.614-.278-1.074-.414a8.68 8.68 0 01-1.44-.558c-.396-.208-.7-.462-.912-.762-.208-.3-.312-.668-.312-1.104 0-.428.118-.804.354-1.128.236-.328.56-.584.972-.768.416-.184.89-.276 1.422-.276.58 0 1.086.084 1.518.252.436.164.828.402 1.176.714l-.66.744a2.762 2.762 0 00-.948-.564c-.34-.12-.684-.18-1.032-.18-.292 0-.558.044-.798.132-.24.084-.432.21-.576.378-.14.168-.21.382-.21.642 0 .228.062.424.186.588.124.16.334.31.63.45.296.136.698.28 1.206.432.444.128.85.288 1.218.48s.66.45.876.774c.22.32.33.742.33 1.266zm5.255-4.014v5.448h1.758V63h-4.836v-.876h1.926v-4.572h-1.866v-.876zm-.858-3.024c.24 0 .432.074.576.222a.735.735 0 01.222.54.77.77 0 01-.222.558c-.144.148-.336.222-.576.222a.78.78 0 01-.576-.222.781.781 0 01-.216-.558c0-.212.072-.392.216-.54a.78.78 0 01.576-.222zm10.062 2.292l.336 1.02a3.785 3.785 0 01-.852.162c-.3.024-.632.036-.996.036.372.168.652.384.84.648s.282.58.282.948c0 .416-.098.786-.294 1.11a1.98 1.98 0 01-.834.762c-.36.184-.794.276-1.302.276-.2 0-.37-.008-.51-.024-.136-.02-.27-.05-.402-.09a.737.737 0 00-.222.246.686.686 0 00-.084.33c0 .14.056.26.168.36.112.096.33.144.654.144h1.122c.436 0 .824.076 1.164.228.344.152.614.358.81.618s.294.556.294.888c0 .628-.268 1.11-.804 1.446-.536.34-1.296.51-2.28.51-.696 0-1.244-.072-1.644-.216-.396-.144-.678-.358-.846-.642-.164-.284-.246-.64-.246-1.068h1.038c0 .236.046.43.138.582s.26.266.504.342.596.114 1.056.114c.456 0 .824-.038 1.104-.114s.486-.188.618-.336.198-.328.198-.54c0-.28-.126-.494-.378-.642s-.574-.222-.966-.222h-1.11c-.568 0-.986-.12-1.254-.36-.264-.244-.396-.524-.396-.84 0-.208.058-.41.174-.606a1.65 1.65 0 01.522-.516c-.368-.196-.64-.436-.816-.72-.172-.284-.258-.63-.258-1.038 0-.436.108-.82.324-1.152.22-.332.524-.592.912-.78s.834-.282 1.338-.282c.524 0 .952-.024 1.284-.072.336-.052.626-.12.87-.204.248-.088.496-.19.744-.306zm-2.892 1.398c-.472 0-.824.132-1.056.396-.232.26-.348.594-.348 1.002 0 .412.118.75.354 1.014.236.26.594.39 1.074.39.424 0 .748-.122.972-.366.224-.248.336-.598.336-1.05 0-.456-.112-.8-.336-1.032-.224-.236-.556-.354-.996-.354zM41.032 63v-6.324h.99l.084.852a2.6 2.6 0 01.948-.744 2.68 2.68 0 011.122-.258c.608 0 1.056.166 1.344.498.288.328.432.786.432 1.374V63H44.8v-3.894a5.3 5.3 0 00-.072-.972c-.044-.252-.138-.434-.282-.546s-.362-.168-.654-.168c-.228 0-.444.05-.648.15s-.388.226-.552.378c-.16.152-.296.31-.408.474V63zm7.313-2.79v-.972h4.872v.972zm8.43-3.534v4.452c0 .4.082.688.246.864.164.172.414.258.75.258.324 0 .632-.094.924-.282s.52-.412.684-.672v-4.62h1.152V63h-.99l-.084-.834c-.24.316-.542.56-.906.732a2.612 2.612 0 01-1.104.252c-.612 0-1.07-.166-1.374-.498-.3-.332-.45-.792-.45-1.38v-4.596zm9.083-.15c.56 0 1.008.138 1.344.414.336.272.578.656.726 1.152.148.492.222 1.072.222 1.74 0 .64-.09 1.21-.27 1.71s-.45.894-.81 1.182c-.36.284-.812.426-1.356.426-.684 0-1.232-.24-1.644-.72v2.994l-1.152.138v-8.886h.99l.084.852c.236-.324.514-.572.834-.744s.664-.258 1.032-.258zm-.294.906c-.328 0-.618.1-.87.3-.252.196-.46.42-.624.672v3.06c.16.236.356.422.588.558.232.132.49.198.774.198.496 0 .87-.192 1.122-.576.252-.388.378-.992.378-1.812 0-.548-.05-.998-.15-1.35-.1-.356-.252-.62-.456-.792-.2-.172-.454-.258-.762-.258zm15.695-3.534c.463 0 .873.038 1.23.114.355.072.673.168.953.288l-.521 1.236a3.325 3.325 0 00-.679-.18 4.055 4.055 0 00-.69-.06c-.376 0-.646.068-.81.204-.16.136-.24.362-.24.678v.852h2.077l-.21 1.314h-1.867V63H78.62v-4.656h-1.34V57.03h1.339v-.924c0-.42.1-.796.3-1.128s.495-.594.887-.786c.393-.196.877-.294 1.453-.294zm5.999 2.52c.656 0 1.214.14 1.674.42s.812.674 1.056 1.182c.244.504.366 1.096.366 1.776 0 .708-.124 1.318-.372 1.83-.244.508-.596.898-1.056 1.17s-1.016.408-1.668.408c-.648 0-1.204-.134-1.668-.402a2.658 2.658 0 01-1.062-1.164c-.244-.508-.366-1.118-.366-1.83 0-.676.122-1.268.366-1.776a2.811 2.811 0 011.062-1.188c.464-.284 1.02-.426 1.668-.426zm0 1.398c-.388 0-.676.16-.864.48-.184.316-.276.82-.276 1.512 0 .704.092 1.214.276 1.53.188.316.476.474.864.474s.674-.158.858-.474c.188-.316.282-.83.282-1.542 0-.688-.094-1.19-.282-1.506-.184-.316-.47-.474-.858-.474zM91.853 63v-1.272h.84v-3.84h-.84v-1.26h2.286l.348 1.434c.228-.548.518-.956.87-1.224.356-.268.79-.402 1.302-.402.216 0 .408.018.576.054.168.032.326.078.474.138l-.576 1.566a2.69 2.69 0 00-.732-.096c-.416 0-.782.17-1.098.51-.312.34-.55.772-.714 1.296v1.824h1.26V63zm4.314-3.708v-1.86l.282-.804h1.26l-.354 2.664zm14.435-4.608v8.076h-1.848v-6.21l-1.71 1.068-.804-1.302 2.682-1.632zm1.554 6.882V63h-5.406v-1.434zm3.527-7.092l1.614.594-1.968 4.764h4.152v1.422h-6.108v-1.26zm2.964 3.354V63h-1.818l-.024-2.976.24-2.196zm13.247-3.93l1.896.198V63h-1.68l-.096-.702a2.37 2.37 0 01-.702.642c-.292.176-.646.264-1.062.264-.528 0-.966-.142-1.314-.426-.344-.284-.602-.68-.774-1.188-.168-.512-.252-1.11-.252-1.794 0-.656.102-1.238.306-1.746s.496-.906.876-1.194c.38-.292.832-.438 1.356-.438a1.98 1.98 0 011.446.588zm-.936 3.906c-.328 0-.592.156-.792.468-.2.308-.3.82-.3 1.536 0 .524.042.932.126 1.224.084.288.2.49.348.606s.318.174.51.174a.923.923 0 00.576-.198c.176-.132.332-.312.468-.54v-2.748c-.132-.164-.272-.292-.42-.384s-.32-.138-.516-.138zm9.971 3.36c0 .24.032.414.096.522a.63.63 0 00.324.246l-.39 1.248a2.75 2.75 0 01-.954-.246 1.445 1.445 0 01-.606-.594c-.244.292-.556.51-.936.654-.38.14-.768.21-1.164.21-.656 0-1.18-.186-1.572-.558-.388-.376-.582-.858-.582-1.446 0-.692.27-1.226.81-1.602.544-.376 1.308-.564 2.292-.564h.858v-.24c0-.332-.108-.578-.324-.738-.212-.16-.524-.24-.936-.24-.204 0-.466.03-.786.09-.32.056-.64.138-.96.246l-.438-1.26c.412-.156.84-.274 1.284-.354.448-.08.848-.12 1.2-.12.948 0 1.648.194 2.1.582.456.384.684.94.684 1.668zm-2.976.684c.204 0 .418-.06.642-.18.224-.124.394-.298.51-.522v-1.032h-.468c-.528 0-.916.082-1.164.246-.248.16-.372.396-.372.708 0 .244.074.436.222.576.152.136.362.204.63.204zm10.931-5.22L146.76 63c-.188.564-.438 1.036-.75 1.416a3.07 3.07 0 01-1.158.888c-.46.208-1.014.33-1.662.366l-.216-1.338c.42-.052.758-.13 1.014-.234.26-.104.468-.246.624-.426.16-.176.298-.4.414-.672h-.648l-2.022-6.372h2.004l1.236 5.16 1.344-5.16zm3.828 5.22c.316 0 .57-.05.762-.15.196-.1.294-.25.294-.45 0-.136-.038-.25-.114-.342s-.222-.18-.438-.264-.536-.184-.96-.3a4.867 4.867 0 01-1.032-.396 1.905 1.905 0 01-.696-.618c-.164-.252-.246-.566-.246-.942 0-.38.106-.718.318-1.014s.524-.528.936-.696c.412-.172.916-.258 1.512-.258.568 0 1.062.074 1.482.222.424.144.79.328 1.098.552l-.756 1.116a3.744 3.744 0 00-.852-.39c-.304-.1-.61-.15-.918-.15s-.538.042-.69.126a.39.39 0 00-.222.366c0 .108.038.202.114.282.08.076.228.156.444.24.216.08.532.18.948.3.412.116.77.25 1.074.402.308.152.546.356.714.612.168.252.252.586.252 1.002 0 .464-.138.854-.414 1.17-.276.312-.642.546-1.098.702s-.956.234-1.5.234c-.616 0-1.16-.088-1.632-.264s-.874-.408-1.206-.696l.954-1.068c.248.192.528.352.84.48.316.128.66.192 1.032.192zm14.794-5.43c.656 0 1.214.14 1.674.42s.812.674 1.056 1.182c.244.504.366 1.096.366 1.776 0 .708-.124 1.318-.372 1.83-.244.508-.596.898-1.056 1.17s-1.016.408-1.668.408c-.648 0-1.204-.134-1.668-.402a2.658 2.658 0 01-1.062-1.164c-.244-.508-.366-1.118-.366-1.83 0-.676.122-1.268.366-1.776a2.811 2.811 0 011.062-1.188c.464-.284 1.02-.426 1.668-.426zm0 1.398c-.388 0-.676.16-.864.48-.184.316-.276.82-.276 1.512 0 .704.092 1.214.276 1.53.188.316.476.474.864.474s.674-.158.858-.474c.188-.316.282-.83.282-1.542 0-.688-.094-1.19-.282-1.506-.184-.316-.47-.474-.858-.474zm8.592-3.918c.464 0 .874.038 1.23.114.356.072.674.168.954.288l-.522 1.236a3.325 3.325 0 00-.678-.18 4.055 4.055 0 00-.69-.06c-.376 0-.646.068-.81.204-.16.136-.24.362-.24.678v.852h2.076l-.21 1.314h-1.866V63h-1.884v-4.656h-1.338V57.03h1.338v-.924c0-.42.1-.796.3-1.128s.496-.594.888-.786c.392-.196.876-.294 1.452-.294zm14.59 0c.464 0 .874.038 1.23.114.356.072.674.168.954.288l-.522 1.236a3.325 3.325 0 00-.678-.18 4.055 4.055 0 00-.69-.06c-.376 0-.646.068-.81.204-.16.136-.24.362-.24.678v.852h2.076l-.21 1.314h-1.866V63h-1.884v-4.656h-1.338V57.03h1.338v-.924c0-.42.1-.796.3-1.128s.496-.594.888-.786c.392-.196.876-.294 1.452-.294zM193.987 63v-1.272h.84v-3.84h-.84v-1.26h2.286l.348 1.434c.228-.548.518-.956.87-1.224.356-.268.79-.402 1.302-.402.216 0 .408.018.576.054.168.032.326.078.474.138l-.576 1.566a2.69 2.69 0 00-.732-.096c-.416 0-.782.17-1.098.51-.312.34-.55.772-.714 1.296v1.824h1.26V63zm4.314-3.708v-1.86l.282-.804h1.26l-.354 2.664zm4.566 1.074c.044.348.134.63.27.846.14.212.318.368.534.468.216.096.458.144.726.144.292 0 .574-.048.846-.144s.534-.224.786-.384l.762 1.032a3.71 3.71 0 01-1.092.63 4.004 4.004 0 01-1.452.246c-.728 0-1.338-.144-1.83-.432-.492-.292-.862-.692-1.11-1.2s-.372-1.092-.372-1.752c0-.628.12-1.198.36-1.71.24-.516.59-.926 1.05-1.23.464-.308 1.03-.462 1.698-.462.608 0 1.134.13 1.578.39.448.26.794.634 1.038 1.122.248.488.372 1.074.372 1.758 0 .108-.004.224-.012.348a3.633 3.633 0 01-.024.33zm1.176-2.676c-.34 0-.614.122-.822.366s-.334.634-.378 1.17h2.34c-.004-.464-.094-.836-.27-1.116s-.466-.42-.87-.42zm6.119 2.676c.044.348.134.63.27.846.14.212.318.368.534.468.216.096.458.144.726.144.292 0 .574-.048.846-.144s.534-.224.786-.384l.762 1.032a3.71 3.71 0 01-1.092.63 4.004 4.004 0 01-1.452.246c-.728 0-1.338-.144-1.83-.432-.492-.292-.862-.692-1.11-1.2s-.372-1.092-.372-1.752c0-.628.12-1.198.36-1.71.24-.516.59-.926 1.05-1.23.464-.308 1.03-.462 1.698-.462.608 0 1.134.13 1.578.39.448.26.794.634 1.038 1.122.248.488.372 1.074.372 1.758 0 .108-.004.224-.012.348a3.633 3.633 0 01-.024.33zm1.176-2.676c-.34 0-.614.122-.822.366s-.334.634-.378 1.17h2.34c-.004-.464-.094-.836-.27-1.116s-.466-.42-.87-.42zM24.204 77.164c0 .24.032.414.096.522a.63.63 0 00.324.246l-.39 1.248a2.75 2.75 0 01-.954-.246 1.445 1.445 0 01-.606-.594c-.244.292-.556.51-.936.654-.38.14-.768.21-1.164.21-.656 0-1.18-.186-1.572-.558-.388-.376-.582-.858-.582-1.446 0-.692.27-1.226.81-1.602.544-.376 1.308-.564 2.292-.564h.858v-.24c0-.332-.108-.578-.324-.738-.212-.16-.524-.24-.936-.24-.204 0-.466.03-.786.09-.32.056-.64.138-.96.246l-.438-1.26c.412-.156.84-.274 1.284-.354.448-.08.848-.12 1.2-.12.948 0 1.648.194 2.1.582.456.384.684.94.684 1.668zm-2.976.684c.204 0 .418-.06.642-.18.224-.124.394-.298.51-.522v-1.032h-.468c-.528 0-.916.082-1.164.246-.248.16-.372.396-.372.708 0 .244.074.436.222.576.152.136.362.204.63.204zm8.285-.138c.26 0 .504-.05.732-.15a4.18 4.18 0 00.69-.396l.846 1.2c-.28.24-.622.44-1.026.6-.4.16-.848.24-1.344.24-.684 0-1.272-.14-1.764-.42a2.892 2.892 0 01-1.134-1.176c-.264-.504-.396-1.088-.396-1.752s.134-1.254.402-1.77c.272-.52.656-.928 1.152-1.224.5-.296 1.092-.444 1.776-.444.484 0 .914.068 1.29.204.38.132.728.33 1.044.594l-.822 1.14c-.216-.152-.444-.27-.684-.354s-.49-.126-.75-.126c-.428 0-.774.152-1.038.456-.26.3-.39.808-.39 1.524 0 .468.062.838.186 1.11.124.268.292.46.504.576.216.112.458.168.726.168zm7.296 0c.26 0 .504-.05.732-.15a4.18 4.18 0 00.69-.396l.846 1.2c-.28.24-.622.44-1.026.6-.4.16-.848.24-1.344.24-.684 0-1.272-.14-1.764-.42a2.892 2.892 0 01-1.134-1.176c-.264-.504-.396-1.088-.396-1.752s.134-1.254.402-1.77c.272-.52.656-.928 1.152-1.224.5-.296 1.092-.444 1.776-.444.484 0 .914.068 1.29.204.38.132.728.33 1.044.594l-.822 1.14c-.216-.152-.444-.27-.684-.354s-.49-.126-.75-.126c-.428 0-.774.152-1.038.456-.26.3-.39.808-.39 1.524 0 .468.062.838.186 1.11.124.268.292.46.504.576.216.112.458.168.726.168zm5.56-1.344c.045.348.135.63.27.846.14.212.319.368.535.468.216.096.458.144.726.144.292 0 .574-.048.846-.144s.534-.224.786-.384l.762 1.032a3.71 3.71 0 01-1.092.63 4.004 4.004 0 01-1.452.246c-.728 0-1.338-.144-1.83-.432-.492-.292-.862-.692-1.11-1.2s-.372-1.092-.372-1.752c0-.628.12-1.198.36-1.71.24-.516.59-.926 1.05-1.23.464-.308 1.03-.462 1.698-.462.608 0 1.134.13 1.578.39.448.26.794.634 1.038 1.122.248.488.372 1.074.372 1.758 0 .108-.004.224-.012.348a3.633 3.633 0 01-.024.33zm1.177-2.676c-.34 0-.614.122-.822.366s-.334.634-.378 1.17h2.34c-.004-.464-.094-.836-.27-1.116s-.466-.42-.87-.42zm7.031 4.158c.316 0 .57-.05.762-.15.196-.1.294-.25.294-.45 0-.136-.038-.25-.114-.342s-.222-.18-.438-.264-.536-.184-.96-.3a4.867 4.867 0 01-1.032-.396 1.905 1.905 0 01-.696-.618c-.164-.252-.246-.566-.246-.942 0-.38.106-.718.318-1.014s.524-.528.936-.696c.412-.172.916-.258 1.512-.258.568 0 1.062.074 1.482.222.424.144.79.328 1.098.552l-.756 1.116a3.744 3.744 0 00-.852-.39c-.304-.1-.61-.15-.918-.15s-.538.042-.69.126a.39.39 0 00-.222.366c0 .108.038.202.114.282.08.076.228.156.444.24.216.08.532.18.948.3.412.116.77.25 1.074.402.308.152.546.356.714.612.168.252.252.586.252 1.002 0 .464-.138.854-.414 1.17-.276.312-.642.546-1.098.702s-.956.234-1.5.234c-.616 0-1.16-.088-1.632-.264s-.874-.408-1.206-.696l.954-1.068c.248.192.528.352.84.48.316.128.66.192 1.032.192zm7.296 0c.316 0 .57-.05.762-.15.196-.1.294-.25.294-.45 0-.136-.038-.25-.114-.342s-.222-.18-.438-.264-.536-.184-.96-.3a4.867 4.867 0 01-1.032-.396 1.905 1.905 0 01-.696-.618c-.164-.252-.246-.566-.246-.942 0-.38.106-.718.318-1.014s.524-.528.936-.696c.412-.172.916-.258 1.512-.258.568 0 1.062.074 1.482.222.424.144.79.328 1.098.552l-.756 1.116a3.744 3.744 0 00-.852-.39c-.304-.1-.61-.15-.918-.15s-.538.042-.69.126a.39.39 0 00-.222.366c0 .108.038.202.114.282.08.076.228.156.444.24.216.08.532.18.948.3.412.116.77.25 1.074.402.308.152.546.356.714.612.168.252.252.586.252 1.002 0 .464-.138.854-.414 1.17-.276.312-.642.546-1.098.702s-.956.234-1.5.234c-.616 0-1.16-.088-1.632-.264s-.874-.408-1.206-.696L56 77.176c.248.192.528.352.84.48.316.128.66.192 1.032.192zm17.476.828a2.84 2.84 0 01-.81.342 3.52 3.52 0 01-.948.132c-.704 0-1.244-.184-1.62-.552-.372-.368-.558-.846-.558-1.434V73.54H69.98v-.864h1.434v-1.428l1.152-.138v1.566h2.16l-.132.864h-2.028v3.612c0 .348.088.61.264.786.18.176.478.264.894.264.236 0 .452-.028.648-.084s.378-.128.546-.216zm4.626-6.15c.604 0 1.11.136 1.518.408.412.272.722.656.93 1.152.212.492.318 1.074.318 1.746 0 .652-.108 1.228-.324 1.728a2.646 2.646 0 01-.936 1.17c-.412.28-.918.42-1.518.42s-1.108-.136-1.524-.408c-.412-.272-.724-.656-.936-1.152s-.318-1.078-.318-1.746c0-.656.106-1.232.318-1.728.216-.5.532-.89.948-1.17s.924-.42 1.524-.42zm0 .918c-.52 0-.912.196-1.176.588-.264.388-.396.992-.396 1.812 0 .812.13 1.414.39 1.806.26.388.65.582 1.17.582s.91-.194 1.17-.582c.26-.392.39-.998.39-1.818 0-.816-.13-1.418-.39-1.806-.256-.388-.642-.582-1.158-.582zm14.59-.918c.604 0 1.11.136 1.518.408.412.272.722.656.93 1.152.212.492.318 1.074.318 1.746 0 .652-.108 1.228-.324 1.728a2.646 2.646 0 01-.936 1.17c-.412.28-.918.42-1.518.42s-1.108-.136-1.524-.408c-.412-.272-.724-.656-.936-1.152s-.318-1.078-.318-1.746c0-.656.106-1.232.318-1.728.216-.5.532-.89.948-1.17s.924-.42 1.524-.42zm0 .918c-.52 0-.912.196-1.176.588-.264.388-.396.992-.396 1.812 0 .812.13 1.414.39 1.806.26.388.65.582 1.17.582s.91-.194 1.17-.582c.26-.392.39-.998.39-1.818 0-.816-.13-1.418-.39-1.806-.256-.388-.642-.582-1.158-.582zm5.981-.768v4.452c0 .4.082.688.246.864.164.172.414.258.75.258.324 0 .632-.094.924-.282s.52-.412.684-.672v-4.62h1.152V79h-.99l-.084-.834c-.24.316-.542.56-.906.732a2.612 2.612 0 01-1.104.252c-.612 0-1.07-.166-1.374-.498-.3-.332-.45-.792-.45-1.38v-4.596zM106.75 79v-.852h.96v-4.62h-.96v-.852h1.842l.21 1.482c.24-.524.534-.926.882-1.206.352-.284.808-.426 1.368-.426a2.5 2.5 0 01.486.042c.144.028.29.064.438.108l-.342 1.008c-.132-.04-.252-.068-.36-.084s-.232-.024-.372-.024c-.476 0-.884.172-1.224.516s-.612.85-.816 1.518v2.538h1.284V79zm4.158-4.104v-1.452l.132-.768h.936l-.18 2.22zm15.034 2.652c0 .252.04.436.12.552a.72.72 0 00.378.252l-.27.792c-.288-.036-.538-.122-.75-.258s-.37-.344-.474-.624a2.189 2.189 0 01-.864.666 2.867 2.867 0 01-1.134.222c-.636 0-1.138-.18-1.506-.54s-.552-.834-.552-1.422c0-.66.256-1.166.768-1.518.516-.352 1.256-.528 2.22-.528h.918v-.48c0-.436-.13-.746-.39-.93-.256-.184-.614-.276-1.074-.276-.208 0-.456.026-.744.078s-.594.134-.918.246l-.294-.84a6.39 6.39 0 011.122-.318c.36-.064.696-.096 1.008-.096.816 0 1.426.186 1.83.558.404.368.606.874.606 1.518zm-2.67.738c.296 0 .58-.076.852-.228s.496-.364.672-.636v-1.53h-.84c-.668 0-1.142.114-1.422.342-.28.224-.42.532-.42.924 0 .368.096.648.288.84s.482.288.87.288zm9.06-8.292l1.152.138V79h-1.014l-.096-.81c-.224.32-.488.56-.792.72s-.636.24-.996.24c-.544 0-.994-.138-1.35-.414-.352-.28-.614-.668-.786-1.164s-.258-1.072-.258-1.728c0-.64.098-1.208.294-1.704.2-.5.484-.894.852-1.182.372-.288.82-.432 1.344-.432.348 0 .658.062.93.186.272.12.512.298.72.534zm-1.35 3.438c-.492 0-.874.198-1.146.594s-.408 1.002-.408 1.818c0 .54.056.988.168 1.344s.274.62.486.792.472.258.78.258c.332 0 .618-.096.858-.288a2.76 2.76 0 00.612-.666v-3.09a1.79 1.79 0 00-.594-.558 1.448 1.448 0 00-.756-.204zm10.277-.756L138.991 79h-1.344l-2.256-6.324h1.224l1.734 5.322 1.728-5.322zm6.569 4.872c0 .252.04.436.12.552a.72.72 0 00.378.252l-.27.792c-.288-.036-.538-.122-.75-.258s-.37-.344-.474-.624a2.189 2.189 0 01-.864.666 2.867 2.867 0 01-1.134.222c-.636 0-1.138-.18-1.506-.54s-.552-.834-.552-1.422c0-.66.256-1.166.768-1.518.516-.352 1.256-.528 2.22-.528h.918v-.48c0-.436-.13-.746-.39-.93-.256-.184-.614-.276-1.074-.276-.208 0-.456.026-.744.078s-.594.134-.918.246l-.294-.84a6.39 6.39 0 011.122-.318c.36-.064.696-.096 1.008-.096.816 0 1.426.186 1.83.558.404.368.606.874.606 1.518zm-2.67.738c.296 0 .58-.076.852-.228s.496-.364.672-.636v-1.53h-.84c-.668 0-1.142.114-1.422.342-.28.224-.42.532-.42.924 0 .368.096.648.288.84s.482.288.87.288zm5.304.714v-6.324h.99l.084.852a2.6 2.6 0 01.948-.744 2.68 2.68 0 011.122-.258c.608 0 1.056.166 1.344.498.288.328.432.786.432 1.374V79h-1.152v-3.894a5.3 5.3 0 00-.072-.972c-.044-.252-.138-.434-.282-.546s-.362-.168-.654-.168c-.228 0-.444.05-.648.15s-.388.226-.552.378c-.16.152-.296.31-.408.474V79zm10.235-.822c.308 0 .594-.052.858-.156.268-.104.518-.236.75-.396l.552.75c-.276.236-.61.424-1.002.564s-.784.21-1.176.21c-.636 0-1.18-.136-1.632-.408-.448-.272-.79-.654-1.026-1.146s-.354-1.068-.354-1.728c0-.64.118-1.212.354-1.716.24-.504.586-.9 1.038-1.188.452-.292.998-.438 1.638-.438.416 0 .802.064 1.158.192.36.124.69.308.99.552l-.546.75a3.282 3.282 0 00-.786-.408 2.353 2.353 0 00-.81-.144c-.528 0-.96.196-1.296.588s-.504.996-.504 1.812c0 .544.076.986.228 1.326.156.34.37.59.642.75.272.156.58.234.924.234zm5.285-1.95c.024.464.118.844.282 1.14.164.292.378.508.642.648.264.136.556.204.876.204.316 0 .606-.048.87-.144s.532-.236.804-.42l.522.726a3.58 3.58 0 01-2.232.768c-.632 0-1.17-.138-1.614-.414a2.702 2.702 0 01-1.008-1.164c-.228-.496-.342-1.072-.342-1.728 0-.636.114-1.204.342-1.704.232-.5.558-.894.978-1.182s.92-.432 1.5-.432c.544 0 1.012.126 1.404.378.396.252.7.612.912 1.08.212.464.318 1.02.318 1.668 0 .108-.002.212-.006.312s-.01.188-.018.264zm1.632-2.802c-.448 0-.822.16-1.122.48-.296.32-.466.814-.51 1.482h3.144c-.012-.64-.152-1.126-.42-1.458-.264-.336-.628-.504-1.092-.504zm8.49-3.432l1.152.138V79h-1.014l-.096-.81c-.224.32-.488.56-.792.72s-.636.24-.996.24c-.544 0-.994-.138-1.35-.414-.352-.28-.614-.668-.786-1.164s-.258-1.072-.258-1.728c0-.64.098-1.208.294-1.704.2-.5.484-.894.852-1.182.372-.288.82-.432 1.344-.432.348 0 .658.062.93.186.272.12.512.298.72.534zm-1.35 3.438c-.492 0-.874.198-1.146.594s-.408 1.002-.408 1.818c0 .54.056.988.168 1.344s.274.62.486.792.472.258.78.258c.332 0 .618-.096.858-.288a2.76 2.76 0 00.612-.666v-3.09a1.79 1.79 0 00-.594-.558 1.448 1.448 0 00-.756-.204zM22.086 88.526c.56 0 1.008.138 1.344.414.336.272.578.656.726 1.152.148.492.222 1.072.222 1.74 0 .64-.09 1.21-.27 1.71s-.45.894-.81 1.182c-.36.284-.812.426-1.356.426-.684 0-1.232-.24-1.644-.72v2.994l-1.152.138v-8.886h.99l.084.852c.236-.324.514-.572.834-.744s.664-.258 1.032-.258zm-.294.906c-.328 0-.618.1-.87.3-.252.196-.46.42-.624.672v3.06c.16.236.356.422.588.558.232.132.49.198.774.198.496 0 .87-.192 1.122-.576.252-.388.378-.992.378-1.812 0-.548-.05-.998-.15-1.35-.1-.356-.252-.62-.456-.792-.2-.172-.454-.258-.762-.258zM26.502 95v-.852h.96v-4.62h-.96v-.852h1.841l.21 1.482c.24-.524.534-.926.882-1.206.352-.284.808-.426 1.368-.426a2.5 2.5 0 01.486.042c.144.028.29.064.438.108l-.342 1.008c-.132-.04-.252-.068-.36-.084s-.232-.024-.372-.024c-.476 0-.884.172-1.224.516s-.612.85-.816 1.518v2.538h1.284V95zm4.157-4.104v-1.452l.132-.768h.936l-.18 2.22zm4.008 1.332c.024.464.118.844.282 1.14.164.292.378.508.642.648.264.136.556.204.876.204.316 0 .606-.048.87-.144s.532-.236.804-.42l.522.726a3.58 3.58 0 01-2.232.768c-.632 0-1.17-.138-1.614-.414a2.702 2.702 0 01-1.008-1.164c-.228-.496-.342-1.072-.342-1.728 0-.636.114-1.204.342-1.704.232-.5.558-.894.978-1.182s.92-.432 1.5-.432c.544 0 1.012.126 1.404.378.396.252.7.612.912 1.08.212.464.318 1.02.318 1.668 0 .108-.002.212-.006.312s-.01.188-.018.264zm1.632-2.802c-.448 0-.822.16-1.122.48-.296.32-.466.814-.51 1.482h3.144c-.012-.64-.152-1.126-.42-1.458-.264-.336-.628-.504-1.092-.504zm8.987-.9c.22 0 .424.048.612.144s.34.272.456.528c.116.252.174.618.174 1.098V95h-1.05v-4.536c0-.368-.024-.632-.072-.792-.044-.164-.172-.246-.384-.246-.176 0-.35.054-.522.162s-.342.288-.51.54V95h-1.008v-4.536c0-.368-.024-.632-.072-.792-.044-.164-.172-.246-.384-.246a.982.982 0 00-.528.162c-.168.108-.336.288-.504.54V95h-1.05v-6.324h.888l.072.708c.176-.248.37-.452.582-.612.216-.164.478-.246.786-.246.24 0 .462.058.666.174.208.116.36.332.456.648.172-.244.368-.442.588-.594s.488-.228.804-.228zm6.353.15v5.448h1.758V95h-4.836v-.876h1.926v-4.572h-1.866v-.876zm-.858-3.024c.24 0 .432.074.576.222a.735.735 0 01.222.54.77.77 0 01-.222.558c-.144.148-.336.222-.576.222a.78.78 0 01-.576-.222.781.781 0 01-.216-.558c0-.212.072-.392.216-.54a.78.78 0 01.576-.222zm5.994 3.024v4.452c0 .4.082.688.246.864.164.172.414.258.75.258.324 0 .632-.094.924-.282s.52-.412.684-.672v-4.62h1.152V95h-.99l-.084-.834c-.24.316-.542.56-.906.732a2.612 2.612 0 01-1.104.252c-.612 0-1.07-.166-1.374-.498-.3-.332-.45-.792-.45-1.38v-4.596zm10.397-.15c.22 0 .424.048.612.144s.34.272.456.528c.116.252.174.618.174 1.098V95h-1.05v-4.536c0-.368-.024-.632-.072-.792-.044-.164-.172-.246-.384-.246-.176 0-.35.054-.522.162s-.342.288-.51.54V95h-1.008v-4.536c0-.368-.024-.632-.072-.792-.044-.164-.172-.246-.384-.246a.982.982 0 00-.528.162c-.168.108-.336.288-.504.54V95h-1.05v-6.324h.888l.072.708c.176-.248.37-.452.582-.612.216-.164.478-.246.786-.246.24 0 .462.058.666.174.208.116.36.332.456.648.172-.244.368-.442.588-.594s.488-.228.804-.228zm14.123-2.532c.36 0 .684.032.972.096.288.06.56.146.816.258l-.36.828a3.107 3.107 0 00-.654-.198 3.697 3.697 0 00-.702-.066c-.432 0-.754.084-.966.252s-.318.426-.318.774v1.212h2.136l-.126.876h-2.01V95h-1.146v-4.974h-1.482v-.876h1.482v-1.206c0-.396.1-.74.3-1.032.204-.292.482-.518.834-.678.356-.16.764-.24 1.224-.24zm4.439 6.234c.024.464.118.844.282 1.14.164.292.378.508.642.648.264.136.556.204.876.204.316 0 .606-.048.87-.144s.532-.236.804-.42l.522.726a3.58 3.58 0 01-2.232.768c-.632 0-1.17-.138-1.614-.414a2.702 2.702 0 01-1.008-1.164c-.228-.496-.342-1.072-.342-1.728 0-.636.114-1.204.342-1.704.232-.5.558-.894.978-1.182s.92-.432 1.5-.432c.544 0 1.012.126 1.404.378.396.252.7.612.912 1.08.212.464.318 1.02.318 1.668 0 .108-.002.212-.006.312s-.01.188-.018.264zm1.632-2.802c-.448 0-.822.16-1.122.48-.296.32-.466.814-.51 1.482h3.144c-.012-.64-.152-1.126-.42-1.458-.264-.336-.628-.504-1.092-.504zm9.395 4.122c0 .252.04.436.12.552a.72.72 0 00.378.252l-.27.792c-.288-.036-.538-.122-.75-.258s-.37-.344-.474-.624a2.189 2.189 0 01-.864.666 2.867 2.867 0 01-1.134.222c-.636 0-1.138-.18-1.506-.54s-.552-.834-.552-1.422c0-.66.256-1.166.768-1.518.516-.352 1.256-.528 2.22-.528h.918v-.48c0-.436-.13-.746-.39-.93-.256-.184-.614-.276-1.074-.276-.208 0-.456.026-.744.078s-.594.134-.918.246l-.294-.84a6.39 6.39 0 011.122-.318c.36-.064.696-.096 1.008-.096.816 0 1.426.186 1.83.558.404.368.606.874.606 1.518zm-2.67.738c.296 0 .58-.076.852-.228s.496-.364.672-.636v-1.53h-.84c-.668 0-1.142.114-1.422.342-.28.224-.42.532-.42.924 0 .368.096.648.288.84s.482.288.87.288zm10.439.39a2.84 2.84 0 01-.81.342 3.52 3.52 0 01-.948.132c-.704 0-1.244-.184-1.62-.552-.372-.368-.558-.846-.558-1.434V89.54H99.16v-.864h1.434v-1.428l1.152-.138v1.566h2.16l-.132.864h-2.028v3.612c0 .348.088.61.264.786.18.176.478.264.894.264.236 0 .452-.028.648-.084s.378-.128.546-.216zm3.312-6v4.452c0 .4.082.688.246.864.164.172.414.258.75.258.324 0 .632-.094.924-.282s.52-.412.684-.672v-4.62h1.152V95h-.99l-.084-.834c-.24.316-.542.56-.906.732a2.612 2.612 0 01-1.104.252c-.612 0-1.07-.166-1.374-.498-.3-.332-.45-.792-.45-1.38v-4.596zM114.045 95v-.852h.96v-4.62h-.96v-.852h1.842l.21 1.482c.24-.524.534-.926.882-1.206.352-.284.808-.426 1.368-.426a2.5 2.5 0 01.486.042c.144.028.29.064.438.108l-.342 1.008c-.132-.04-.252-.068-.36-.084s-.232-.024-.372-.024c-.476 0-.884.172-1.224.516s-.612.85-.816 1.518v2.538h1.284V95zm4.158-4.104v-1.452l.132-.768h.936l-.18 2.22zm4.007 1.332c.024.464.118.844.282 1.14.164.292.378.508.642.648.264.136.556.204.876.204.316 0 .606-.048.87-.144s.532-.236.804-.42l.522.726a3.58 3.58 0 01-2.232.768c-.632 0-1.17-.138-1.614-.414a2.702 2.702 0 01-1.008-1.164c-.228-.496-.342-1.072-.342-1.728 0-.636.114-1.204.342-1.704.232-.5.558-.894.978-1.182s.92-.432 1.5-.432c.544 0 1.012.126 1.404.378.396.252.7.612.912 1.08.212.464.318 1.02.318 1.668 0 .108-.002.212-.006.312s-.01.188-.018.264zm1.632-2.802c-.448 0-.822.16-1.122.48-.296.32-.466.814-.51 1.482h3.144c-.012-.64-.152-1.126-.42-1.458-.264-.336-.628-.504-1.092-.504zm6.948 4.806c.46 0 .822-.084 1.086-.252.268-.168.402-.396.402-.684a.976.976 0 00-.108-.474c-.068-.132-.212-.252-.432-.36-.216-.108-.544-.218-.984-.33-.428-.108-.802-.234-1.122-.378s-.568-.332-.744-.564c-.172-.232-.258-.532-.258-.9 0-.36.1-.672.3-.936.204-.264.49-.468.858-.612.372-.144.804-.216 1.296-.216.52 0 .972.07 1.356.21.388.136.716.304.984.504l-.492.75a3.598 3.598 0 00-.804-.402 3.005 3.005 0 00-1.02-.156c-.468 0-.802.072-1.002.216a.654.654 0 00-.294.558c0 .172.048.316.144.432.1.112.27.216.51.312s.572.202.996.318c.412.112.772.244 1.08.396s.546.352.714.6c.172.244.258.566.258.966 0 .452-.13.82-.39 1.104a2.3 2.3 0 01-1.014.618 4.301 4.301 0 01-1.32.198c-.576 0-1.072-.084-1.488-.252a3.68 3.68 0 01-1.038-.618l.636-.732c.248.204.532.37.852.498.32.124.666.186 1.038.186z"/><path clip-rule="evenodd" d="M206 23c-5.523 0-10 4.477-10 10s4.477 10 10 10 10-4.477 10-10a10.002 10.002 0 00-10-10zm0 18a8 8 0 110-16 8 8 0 010 16zm5-8.09V33a.987.987 0 01-.08.39.993.993 0 01-.21.32l-3 3a1 1 0 01-1.42 0 1.002 1.002 0 010-1.42l1.3-1.29H202a1 1 0 010-2h5.66l-1.23-1.31a1.001 1.001 0 011.45-1.38l2.86 3a1 1 0 01.09.13.731.731 0 01.11.19.9.9 0 01.06.28z" fill-rule="evenodd"/></g></svg>