<svg height="249" viewBox="0 0 240 249" width="240" xmlns="http://www.w3.org/2000/svg" xmlns:xlink="http://www.w3.org/1999/xlink"><clipPath id="c"><path d="M12.427 0h215.146C234.436 0 240 5.557 240 12.411V236.59c0 6.854-5.564 12.411-12.427 12.411H12.427C5.564 249 0 243.443 0 236.589V12.41C0 5.557 5.564 0 12.427 0z"/></clipPath><linearGradient id="d" gradientUnits="userSpaceOnUse" x1="120" x2="149.605" y1="0" y2="277.783"><stop offset=".486" stop-color="#0c132c"/><stop offset="1" stop-color="#283f92"/></linearGradient><linearGradient id="a"><stop offset="0" stop-color="#00c0cd"/><stop offset=".03" stop-color="#06b9cd"/><stop offset=".19" stop-color="#209bcc"/><stop offset=".36" stop-color="#3484cc"/><stop offset=".55" stop-color="#4273cb"/><stop offset=".75" stop-color="#4a69cb"/><stop offset="1" stop-color="#4d66cb"/></linearGradient><linearGradient id="e" gradientUnits="userSpaceOnUse" x1="-112.489" x2="8.779" xlink:href="#a" y1="196.644" y2="132.257"/><linearGradient id="f" gradientUnits="userSpaceOnUse" x1="-114.036" x2="6.809" xlink:href="#a" y1="193.229" y2="129.067"/><linearGradient id="g" gradientUnits="userSpaceOnUse" x1="-115.402" x2="4.66" xlink:href="#a" y1="189.728" y2="125.981"/><linearGradient id="h" gradientUnits="userSpaceOnUse" x1="-116.559" x2="2.326" xlink:href="#a" y1="186.127" y2="123.005"/><linearGradient id="i" gradientUnits="userSpaceOnUse" x1="-117.501" x2="-.222" xlink:href="#a" y1="182.423" y2="120.155"/><linearGradient id="j" gradientUnits="userSpaceOnUse" x1="-98.968" x2="16.52" xlink:href="#a" y1="215.082" y2="153.763"/><linearGradient id="k" gradientUnits="userSpaceOnUse" x1="-101.747" x2="15.729" xlink:href="#a" y1="212.255" y2="149.882"/><linearGradient id="l" gradientUnits="userSpaceOnUse" x1="-104.303" x2="14.717" xlink:href="#a" y1="209.322" y2="146.13"/><linearGradient id="m" gradientUnits="userSpaceOnUse" x1="-106.645" x2="13.522" xlink:href="#a" y1="206.296" y2="142.493"/><linearGradient id="n" gradientUnits="userSpaceOnUse" x1="-108.791" x2="12.125" xlink:href="#a" y1="203.168" y2="138.968"/><linearGradient id="o" gradientUnits="userSpaceOnUse" x1="-110.737" x2="10.545" xlink:href="#a" y1="199.952" y2="135.558"/><linearGradient id="p" gradientUnits="userSpaceOnUse" x1="-76.773" x2="15.973" xlink:href="#a" y1="229.378" y2="180.134"/><linearGradient id="q" gradientUnits="userSpaceOnUse" x1="-81.275" x2="16.829" xlink:href="#a" y1="227.374" y2="175.286"/><linearGradient id="r" gradientUnits="userSpaceOnUse" x1="-85.407" x2="17.336" xlink:href="#a" y1="225.202" y2="170.651"/><linearGradient id="s" gradientUnits="userSpaceOnUse" x1="-89.217" x2="17.53" xlink:href="#a" y1="222.868" y2="166.192"/><linearGradient id="t" gradientUnits="userSpaceOnUse" x1="-92.721" x2="17.431" xlink:href="#a" y1="220.397" y2="161.912"/><linearGradient id="u" gradientUnits="userSpaceOnUse" x1="-95.972" x2="17.105" xlink:href="#a" y1="217.804" y2="157.767"/><linearGradient id="v" gradientUnits="userSpaceOnUse" x1="-43.975" x2="1.852" xlink:href="#a" y1="234.465" y2="210.134"/><linearGradient id="w" gradientUnits="userSpaceOnUse" x1="-52.932" x2="6.965" xlink:href="#a" y1="234.589" y2="202.787"/><linearGradient id="x" gradientUnits="userSpaceOnUse" x1="-60.138" x2="10.418" xlink:href="#a" y1="233.894" y2="196.432"/><linearGradient id="y" gradientUnits="userSpaceOnUse" x1="-66.349" x2="12.899" xlink:href="#a" y1="232.706" y2="190.63"/><linearGradient id="z" gradientUnits="userSpaceOnUse" x1="-71.824" x2="14.691" xlink:href="#a" y1="231.167" y2="185.233"/><linearGradient id="b"><stop offset="0" stop-color="#fb6c67"/><stop offset="1" stop-color="#335dff"/></linearGradient><linearGradient id="A" gradientUnits="userSpaceOnUse" x1="-67.551" x2="-10.836" xlink:href="#b" y1="129.006" y2="204.421"/><linearGradient id="B" gradientUnits="userSpaceOnUse" x1="209.288" x2="266.004" xlink:href="#b" y1="-38.733" y2="36.681"/><g clip-path="url(#c)"><path d="M12.427 0h215.146C234.436 0 240 5.557 240 12.411V236.59c0 6.854-5.564 12.411-12.427 12.411H12.427C5.564 249 0 243.443 0 236.589V12.41C0 5.557 5.564 0 12.427 0z" fill="url(#d)"/><path d="M30.776 67.486V52.631h9.848v2.59h-6.703v3.54h6.05v2.589h-6.05v6.136zm11.828 0v-11.14h3v1.943h.116c.203-.691.544-1.214 1.024-1.567a2.694 2.694 0 011.655-.536 4.675 4.675 0 01.974.108v2.742a4.046 4.046 0 00-.603-.116 5.428 5.428 0 00-.705-.05c-.455 0-.862.098-1.22.297a2.191 2.191 0 00-.842.812c-.204.348-.305.75-.305 1.204v6.303zm13.035.218c-1.148 0-2.135-.233-2.963-.697a4.772 4.772 0 01-1.903-1.987c-.445-.86-.668-1.879-.668-3.054 0-1.146.223-2.151.668-3.017a4.935 4.935 0 011.881-2.024c.813-.483 1.767-.725 2.861-.725.736 0 1.421.119 2.056.355a4.568 4.568 0 011.67 1.052c.48.47.852 1.06 1.119 1.77.266.706.399 1.533.399 2.48v.85h-9.42V60.79h6.508a2.37 2.37 0 00-.29-1.182 2.079 2.079 0 00-.807-.805c-.339-.198-.733-.297-1.184-.297-.47 0-.886.108-1.249.326-.358.213-.639.5-.842.863a2.435 2.435 0 00-.313 1.197v1.82c0 .552.102 1.028.305 1.43.209.4.502.71.88.928.377.217.825.326 1.343.326.343 0 .658-.048.944-.145a1.96 1.96 0 00.733-.435 1.88 1.88 0 00.465-.711l2.862.189a3.9 3.9 0 01-.894 1.798c-.445.508-1.021.905-1.728 1.19-.702.28-1.513.42-2.433.42zm12.325 0c-1.148 0-2.135-.233-2.963-.697a4.772 4.772 0 01-1.903-1.987c-.445-.86-.668-1.879-.668-3.054 0-1.146.223-2.151.668-3.017a4.935 4.935 0 011.881-2.024c.813-.483 1.767-.725 2.861-.725a5.85 5.85 0 012.056.355 4.568 4.568 0 011.67 1.052c.48.47.852 1.06 1.119 1.77.266.706.399 1.533.399 2.48v.85h-9.42V60.79h6.508a2.37 2.37 0 00-.29-1.182 2.079 2.079 0 00-.807-.805c-.339-.198-.733-.297-1.184-.297-.47 0-.886.108-1.249.326-.358.213-.639.5-.842.863a2.435 2.435 0 00-.313 1.197v1.82c0 .552.102 1.028.305 1.43.209.4.502.71.88.928.377.217.825.326 1.343.326.344 0 .658-.048.944-.145a1.96 1.96 0 00.733-.435 1.88 1.88 0 00.465-.711l2.862.189a3.9 3.9 0 01-.894 1.798c-.445.508-1.021.905-1.728 1.19-.702.28-1.513.42-2.433.42zM156.76 55.22v-2.59h12.216v2.59h-4.553v12.265h-3.109V55.221zm13.113 12.265v-11.14h3v1.943h.117c.202-.691.544-1.214 1.023-1.567a2.694 2.694 0 011.656-.536 4.683 4.683 0 01.973.108v2.742a4.053 4.053 0 00-.602-.116 5.437 5.437 0 00-.705-.05c-.455 0-.862.098-1.22.297a2.192 2.192 0 00-.843.812c-.203.348-.305.75-.305 1.204v6.303zm8.471 0v-11.14h3.094v11.14zm1.554-12.577c-.46 0-.854-.152-1.183-.457a1.48 1.48 0 01-.487-1.11c0-.425.162-.79.487-1.095.329-.31.723-.464 1.183-.464.46 0 .852.155 1.177.464.33.305.494.67.494 1.095 0 .43-.165.8-.494 1.11a1.658 1.658 0 01-1.177.457zm7.301 12.787c-.711 0-1.346-.123-1.903-.37a3.062 3.062 0 01-1.32-1.11c-.32-.493-.48-1.107-.48-1.842 0-.619.113-1.138.34-1.56.228-.42.538-.758.93-1.015a4.51 4.51 0 011.337-.58c.504-.13 1.031-.222 1.583-.275.649-.068 1.171-.13 1.568-.189.398-.063.685-.155.865-.276.18-.12.269-.3.269-.536v-.044c0-.46-.146-.815-.436-1.066-.286-.252-.692-.377-1.22-.377-.557 0-1 .123-1.33.37a1.7 1.7 0 00-.653.914l-2.862-.232a3.878 3.878 0 01.858-1.756c.425-.498.975-.88 1.648-1.146.678-.27 1.463-.406 2.353-.406.62 0 1.213.073 1.78.218a4.66 4.66 0 011.517.674c.446.305.797.696 1.054 1.175.256.474.384 1.042.384 1.705v7.514h-2.933V65.94h-.087c-.18.348-.42.655-.72.921-.3.261-.66.467-1.082.617-.421.145-.908.217-1.46.217zm.886-2.132c.456 0 .857-.09 1.206-.268.349-.184.622-.43.82-.74.199-.31.298-.66.298-1.052v-1.182c-.097.063-.23.12-.399.174a7.312 7.312 0 01-.56.138c-.207.038-.415.075-.624.108l-.567.08c-.362.053-.68.138-.951.254a1.519 1.519 0 00-.632.472c-.15.193-.225.435-.225.725 0 .42.153.742.458.965.31.217.702.326 1.176.326zm10.993-12.933v14.855h-3.094V52.631z" fill="#fff"/><path d="M86.482 52.631v14.855h-3.144V55.613h-.088l-3.405 2.132V54.96l3.682-2.329zm3.413 12.244V62.4l6.21-9.77h2.134v3.424h-1.263l-3.915 6.187v.116h8.824v2.517zm7.139 2.611v-3.365l.058-1.096V52.631h2.948v14.855zm14.028-8.653v2.452h-6.783v-2.452zm8.069 8.653h-5.272V52.631h5.315c1.497 0 2.785.298 3.864.893a6.022 6.022 0 012.491 2.546c.586 1.107.88 2.432.88 3.974 0 1.548-.294 2.877-.88 3.99a6.033 6.033 0 01-2.505 2.56c-1.085.595-2.382.892-3.893.892zm-2.128-2.69H119c.93 0 1.712-.165 2.346-.494.64-.334 1.118-.849 1.438-1.545.324-.701.487-1.605.487-2.713 0-1.097-.163-1.994-.487-2.69-.32-.697-.796-1.21-1.43-1.538-.635-.33-1.417-.494-2.347-.494h-2.004zm14.96 2.9c-.712 0-1.346-.123-1.903-.37a3.064 3.064 0 01-1.322-1.11c-.32-.493-.48-1.107-.48-1.842 0-.619.115-1.138.342-1.56.228-.42.538-.758.93-1.015a4.51 4.51 0 011.336-.58c.503-.13 1.031-.222 1.584-.275a38.85 38.85 0 001.568-.189c.397-.063.685-.155.864-.276.18-.12.27-.3.27-.536v-.044c0-.46-.146-.815-.437-1.066-.285-.252-.692-.377-1.22-.377-.557 0-1 .123-1.329.37-.33.241-.547.546-.654.914l-2.861-.232a3.878 3.878 0 01.857-1.756c.426-.498.976-.88 1.649-1.146.678-.27 1.462-.406 2.353-.406.62 0 1.212.073 1.78.218a4.66 4.66 0 011.517.674c.445.305.796.696 1.053 1.175.257.474.385 1.042.385 1.705v7.514h-2.934v-1.545h-.088a3.142 3.142 0 01-.718.921c-.3.261-.661.467-1.082.617-.422.145-.908.217-1.46.217zm.886-2.132c.455 0 .857-.09 1.205-.268.35-.184.622-.43.821-.74.198-.31.298-.66.298-1.052v-1.182c-.097.063-.23.12-.4.174a7.31 7.31 0 01-.559.138c-.208.038-.416.075-.624.108l-.567.08c-.363.053-.68.138-.952.254a1.519 1.519 0 00-.631.472c-.15.193-.225.435-.225.725 0 .42.152.742.457.965.31.217.702.326 1.177.326zm9.409 6.1c-.392 0-.76-.032-1.104-.094a4.019 4.019 0 01-.843-.225l.698-2.307c.363.111.69.172.98.182.295.01.55-.059.763-.204.217-.145.394-.391.53-.74l.181-.47-4.001-11.46h3.253l2.31 8.18h.116l2.332-8.18h3.275l-4.336 12.344a5.186 5.186 0 01-.85 1.567 3.49 3.49 0 01-1.343 1.037c-.542.246-1.196.37-1.961.37z" fill="#f16c6f"/><g fill="none"><g opacity=".5" stroke-width=".776"><path d="M11.346 137.08l-124.017 59.223" stroke="url(#e)"/><path d="M9.367 133.871l-123.584 59.016" stroke="url(#f)"/><path d="M7.2 130.752l-122.784 58.635" stroke="url(#g)"/><path d="M4.839 127.726l-121.58 58.06" stroke="url(#h)"/><path d="M2.254 124.807l-119.936 57.275" stroke="url(#i)"/><path d="M18.956 158.34l-118.106 56.4" stroke="url(#j)"/><path d="M18.21 154.543l-120.139 57.37" stroke="url(#k)"/><path d="M17.233 150.856l-121.718 58.125" stroke="url(#l)"/><path d="M16.065 147.27l-122.892 58.685" stroke="url(#m)"/><path d="M14.684 143.775l-123.656 59.05" stroke="url(#n)"/><path d="M13.112 140.38l-124.03 59.23" stroke="url(#o)"/><path d="M17.894 183.742l-94.849 45.295" stroke="url(#p)"/><path d="M18.87 179.122l-100.327 47.91" stroke="url(#q)"/><path d="M19.483 174.685L-85.588 224.86" stroke="url(#r)"/><path d="M19.768 170.395l-109.166 52.132" stroke="url(#s)"/><path d="M19.746 166.26l-112.649 53.795" stroke="url(#t)"/><path d="M19.486 162.24l-115.64 55.223" stroke="url(#u)"/><path d="M2.71 211.743l-46.867 22.38" stroke="url(#v)"/><path d="M8.141 204.996l-61.255 29.252" stroke="url(#w)"/><path d="M11.835 199.095l-72.155 34.458" stroke="url(#x)"/><path d="M14.513 193.663l-81.043 38.702" stroke="url(#y)"/><path d="M16.47 188.575l-88.476 42.251" stroke="url(#z)"/></g><path d="M253.315-60.15l-99.7 66.485m99.07-70.961L151.269 3.004m101.149-33.21L172.35 23.188m80.893-58.84L168.55 20.826m85.21-61.709l-88.697 59.148M254-45.939l-92.153 61.453m92.134-66.327L158.89 12.6m94.872-68.152L156.144 9.545m74.933 3.837l-19.546 13.035M239.6 2.802l-39.562 26.383m44.147-34.336L192.476 29.33m54.828-41.437l-60.91 40.618m63.17-47.021l-68.413 45.62m70.065-51.619L176.53 25.298" opacity=".5" stroke="#738efc" stroke-width=".776"/><path d="M-.817 137.926c15.92 21.168 11.643 51.216-9.552 67.115-21.195 15.899-51.282 11.627-67.201-9.54-15.92-21.168-11.643-51.216 9.552-67.115 21.195-15.898 51.282-11.627 67.201 9.54z" stroke="url(#A)" stroke-width="1.552"/><path d="M276.023-29.813c15.919 21.168 11.642 51.216-9.553 67.115-21.195 15.898-51.282 11.627-67.2-9.54-15.92-21.168-11.643-51.216 9.552-67.115 21.194-15.899 51.281-11.627 67.2 9.54z" stroke="url(#B)" stroke-width="1.552"/></g><path d="M32.92 189.336h122.718c.857 0 1.553.695 1.553 1.552v21.72c0 .856-.696 1.55-1.553 1.55H32.919a1.552 1.552 0 01-1.553-1.55v-21.72c0-.857.695-1.552 1.553-1.552z" fill="#fff"/><path d="M64 203.508c0 .45-.117.843-.348 1.184-.225.34-.555.604-.99.793-.428.188-.939.282-1.533.282-1.16 0-2.08-.333-2.762-.999l.696-.771c.565.521 1.254.782 2.066.782.45 0 .819-.105 1.109-.315.297-.21.446-.507.446-.89 0-.225-.047-.413-.142-.565-.087-.152-.239-.287-.456-.402-.218-.123-.53-.246-.935-.37-.834-.245-1.447-.538-1.838-.879-.392-.34-.587-.789-.587-1.347 0-.398.108-.749.326-1.053.225-.311.533-.55.924-.717.392-.174.834-.26 1.327-.26 1.007 0 1.845.3 2.512.901l-.664.75a2.645 2.645 0 00-1.772-.663c-.406 0-.736.083-.99.25a.813.813 0 00-.37.716c0 .196.051.363.153.5.109.137.286.264.533.38.253.109.609.232 1.065.37.725.216 1.276.495 1.653.835.384.341.577.837.577 1.488zm6.39 1.814a2.822 2.822 0 01-.76.326c-.29.08-.595.12-.914.12-.652 0-1.156-.168-1.511-.5-.356-.341-.533-.8-.533-1.38v-3.106H65.4v-.89h1.272v-1.282l1.218-.14v1.422h1.946l-.141.89H67.89v3.095c0 .312.08.543.239.696.16.145.413.217.761.217.384 0 .74-.091 1.066-.272zm6.196-1.097c0 .217.033.38.098.489.065.101.177.177.337.228l-.283.825c-.601-.072-.997-.337-1.185-.793-.21.26-.475.46-.794.598a2.66 2.66 0 01-1.033.195c-.58 0-1.04-.163-1.38-.489-.341-.325-.512-.756-.512-1.292 0-.601.236-1.064.707-1.39.478-.326 1.153-.489 2.022-.489h.816v-.369c0-.362-.109-.626-.326-.793-.218-.166-.533-.25-.946-.25a3.89 3.89 0 00-.707.077c-.268.05-.54.123-.816.217l-.304-.858a5.684 5.684 0 012.012-.391c.76 0 1.333.167 1.718.5.384.332.576.807.576 1.422zm-2.501.652c.254 0 .497-.066.729-.196.239-.13.427-.311.565-.543v-1.27h-.674c-.551 0-.953.093-1.207.282-.254.18-.38.445-.38.793 0 .304.079.536.238.695.167.159.41.239.729.239zm8.772-5.126c.298 0 .588.047.87.14l-.206 2.119h-.87v-1.173c-.399.007-.747.167-1.044.478-.297.31-.529.749-.696 1.314v2.128h1.153v.869h-3.219v-.869h.848v-3.996h-.848v-.87h1.772l.218 1.326c.224-.493.496-.858.815-1.097.327-.246.729-.37 1.207-.37zm7.327 5.57a2.825 2.825 0 01-.761.327c-.29.08-.595.12-.913.12-.653 0-1.157-.168-1.512-.5-.356-.341-.533-.8-.533-1.38v-3.106h-1.272v-.89h1.272v-1.282l1.218-.14v1.422h1.947l-.142.89h-1.805v3.095c0 .312.08.543.24.696.159.145.413.217.76.217.384 0 .74-.091 1.066-.272zm13.195 0a2.825 2.825 0 01-.76.327c-.291.08-.596.12-.914.12-.653 0-1.157-.168-1.512-.5-.355-.341-.532-.8-.532-1.38v-3.106h-1.273v-.89h1.273v-1.282l1.217-.14v1.422h1.947l-.142.89h-1.805v3.095c0 .312.08.543.24.696.159.145.413.217.76.217.385 0 .74-.091 1.066-.272zm5.87-5.57c.297 0 .586.047.869.14l-.207 2.119h-.87v-1.173c-.398.007-.746.167-1.043.478-.298.31-.53.749-.696 1.314v2.128h1.152v.869h-3.218v-.869h.848v-3.996h-.848v-.87h1.772l.218 1.326c.224-.493.496-.858.815-1.097.326-.246.729-.37 1.207-.37zm4.825-2.672c.231 0 .42.076.565.228a.719.719 0 01.229.543.719.719 0 01-.229.543.766.766 0 01-.565.217c-.24 0-.432-.072-.577-.217a.736.736 0 01-.217-.543.75.75 0 01.217-.554.801.801 0 01.577-.217zm.837 2.813v4.843h1.566v.89h-4.491v-.89h1.707v-3.953h-1.653v-.89zm7.859 4.333c0 .217.032.38.098.489.065.101.177.177.337.228l-.283.825c-.602-.072-.997-.337-1.185-.793-.21.26-.475.46-.794.598a2.66 2.66 0 01-1.033.195c-.58 0-1.04-.163-1.381-.489-.341-.325-.511-.756-.511-1.292 0-.601.235-1.064.707-1.39.478-.326 1.152-.489 2.022-.489h.816v-.369c0-.362-.109-.626-.326-.793-.218-.166-.533-.25-.947-.25-.202 0-.438.026-.706.077-.268.05-.54.123-.816.217l-.304-.858a5.679 5.679 0 012.011-.391c.762 0 1.334.167 1.718.5.385.332.577.807.577 1.422zm-2.501.652c.254 0 .496-.066.728-.196.24-.13.428-.311.566-.543v-1.27h-.674c-.551 0-.953.093-1.207.282-.254.18-.381.445-.381.793 0 .304.08.536.24.695.166.159.409.239.728.239zm7.228-.815c0 .485.29.728.87.728.29 0 .595-.065.914-.196l.304.847c-.399.217-.891.326-1.479.326-.573 0-1.022-.159-1.348-.478-.32-.326-.478-.77-.478-1.335v-5.474h-1.73v-.89h2.947z" fill="#597bff"/><path d="M35.163 102.393a1.21 1.21 0 00-.563-.91c-.33-.217-.734-.325-1.213-.325-.35 0-.656.057-.919.17-.26.114-.463.269-.61.466a1.12 1.12 0 00-.216.675c0 .211.05.393.15.544.103.15.234.274.394.375.16.097.327.178.502.243.175.06.336.111.483.15l.803.216c.206.054.435.128.687.224.255.094.498.225.73.39.234.161.427.37.58.624.151.254.227.567.227.937 0 .426-.112.813-.336 1.157-.221.344-.545.618-.973.822-.425.203-.94.304-1.548.304-.567 0-1.057-.091-1.471-.274a2.34 2.34 0 01-.974-.763 2.178 2.178 0 01-.397-1.138h.988c.026.298.126.545.301.74.178.194.402.337.672.432.273.093.567.14.88.14a2.6 2.6 0 00.985-.178c.291-.121.522-.288.692-.501.17-.217.254-.468.254-.757 0-.262-.073-.475-.22-.64a1.62 1.62 0 00-.579-.4 5.997 5.997 0 00-.776-.27l-.973-.278c-.618-.178-1.107-.43-1.467-.76-.36-.33-.541-.76-.541-1.292 0-.442.12-.828.359-1.157.242-.332.566-.588.973-.772.41-.184.866-.277 1.37-.277.51 0 .964.091 1.36.274.397.18.71.426.942.74.235.314.358.67.371 1.069zm2.486 5.923v-5.923h.911v5.923zm.464-6.91a.65.65 0 01-.46-.182c-.126-.12-.19-.266-.19-.436s.064-.315.19-.436a.648.648 0 01.46-.181c.177 0 .33.06.455.181.129.121.193.267.193.436s-.064.315-.193.436a.637.637 0 01-.455.181zm4.51 9.255c-.44 0-.818-.057-1.135-.17a2.406 2.406 0 01-.791-.44 2.408 2.408 0 01-.498-.578l.726-.509c.082.108.186.231.312.37.127.141.3.264.518.366.221.106.51.159.869.159.479 0 .874-.116 1.185-.347.312-.232.467-.594.467-1.088v-1.203H44.2a5.007 5.007 0 01-.286.401 1.62 1.62 0 01-.525.42c-.226.121-.533.181-.919.181-.479 0-.908-.113-1.29-.339a2.383 2.383 0 01-.9-.987c-.218-.432-.327-.956-.327-1.574 0-.606.106-1.135.32-1.585.214-.452.511-.802.892-1.048a2.35 2.35 0 011.32-.374c.387 0 .693.063.92.192.229.127.404.27.525.432.124.16.219.29.286.393h.092v-.94h.88v6.093c0 .509-.115.923-.347 1.242a1.98 1.98 0 01-.927.705 3.51 3.51 0 01-1.29.228zm-.03-3.255c.365 0 .674-.084.927-.25.252-.167.444-.408.575-.722.131-.313.197-.689.197-1.126 0-.427-.064-.803-.193-1.13a1.691 1.691 0 00-.572-.767c-.252-.185-.563-.278-.934-.278-.386 0-.708.097-.966.293a1.783 1.783 0 00-.575.787 3.04 3.04 0 00-.19 1.095c0 .412.065.775.194 1.092.131.313.324.56.58.74.257.177.576.266.957.266zm5.174-2.653v3.563h-.911v-5.923h.88v.925h.078c.139-.301.35-.542.633-.725.283-.185.649-.277 1.097-.277.401 0 .753.082 1.054.246.301.163.535.41.703.74.167.33.25.746.25 1.25v3.764h-.91v-3.702c0-.465-.122-.828-.364-1.087-.242-.263-.574-.394-.996-.394-.29 0-.551.063-.78.189-.227.126-.406.31-.537.551-.131.242-.197.536-.197.88zm12.246 1.141v-3.501h.911v5.923h-.911v-1.002h-.062a1.944 1.944 0 01-.648.767c-.294.208-.665.312-1.113.312-.37 0-.7-.08-.988-.242a1.703 1.703 0 01-.68-.741c-.165-.331-.247-.75-.247-1.254v-3.763h.911v3.702c0 .432.121.776.363 1.033.245.258.556.386.935.386.226 0 .457-.058.691-.173.237-.117.435-.293.595-.532.162-.24.243-.544.243-.915zm2.58 4.643v-8.144h.88v.94h.109c.067-.103.16-.234.278-.393a1.64 1.64 0 01.517-.432c.227-.129.533-.192.92-.192.499 0 .94.124 1.32.374.381.249.678.602.892 1.06s.32.998.32 1.62c0 .627-.106 1.171-.32 1.631-.214.458-.51.813-.888 1.064a2.32 2.32 0 01-1.31.375c-.38 0-.685-.064-.914-.19a1.698 1.698 0 01-.53-.435 5.86 5.86 0 01-.285-.41h-.077v3.132zm.896-5.183c0 .448.066.843.197 1.185.132.339.323.605.576.798.252.19.56.285.926.285.381 0 .7-.1.954-.3.258-.204.45-.476.58-.818.13-.345.196-.728.196-1.15 0-.416-.064-.792-.193-1.125a1.74 1.74 0 00-.575-.8c-.255-.197-.575-.296-.962-.296-.37 0-.682.094-.934.281a1.692 1.692 0 00-.572.78 3.195 3.195 0 00-.193 1.16zm11.369-2.961v.77h-3.074v-.77zm-2.178-1.42h.911v5.646c0 .257.037.45.112.579a.58.58 0 00.293.254c.121.042.249.062.383.062a1.545 1.545 0 00.401-.046l.186.818a1.864 1.864 0 01-.259.069c-.11.025-.251.038-.42.038a1.83 1.83 0 01-.758-.166 1.497 1.497 0 01-.61-.505c-.16-.226-.24-.512-.24-.856zm5.894 7.467c-.535 0-1.005-.127-1.41-.383a2.594 2.594 0 01-.941-1.068c-.224-.457-.336-.992-.336-1.604 0-.617.112-1.156.336-1.616.226-.46.54-.817.942-1.072.404-.254.874-.381 1.409-.381.536 0 1.004.127 1.406.381.404.255.718.612.942 1.072.227.46.34 1 .34 1.616 0 .612-.113 1.147-.34 1.604a2.558 2.558 0 01-.942 1.068c-.402.256-.87.383-1.406.383zm0-.818c.407 0 .742-.104 1.004-.312a1.85 1.85 0 00.584-.822 3.17 3.17 0 00.188-1.103c0-.395-.063-.765-.188-1.107a1.87 1.87 0 00-.584-.829c-.262-.211-.597-.316-1.004-.316-.406 0-.741.105-1.004.316a1.866 1.866 0 00-.583.83c-.126.341-.189.71-.189 1.106 0 .396.063.763.19 1.103.125.34.32.613.582.822.263.208.598.312 1.004.312zm6.318.818c-.494 0-.93-.125-1.308-.375a2.524 2.524 0 01-.889-1.064c-.213-.46-.32-1.004-.32-1.631 0-.622.107-1.162.32-1.62.214-.458.511-.811.893-1.06.38-.25.82-.374 1.32-.374.386 0 .691.063.915.192.227.127.4.27.518.432.12.16.214.29.282.393h.077v-2.915h.91v7.898h-.88v-.91h-.107a6.111 6.111 0 01-.286.409c-.123.162-.3.307-.529.436-.229.125-.534.189-.916.189zm.124-.818c.366 0 .675-.095.927-.285.252-.193.444-.46.575-.798a3.3 3.3 0 00.197-1.185c0-.442-.064-.83-.193-1.16a1.688 1.688 0 00-.572-.78c-.251-.187-.563-.28-.934-.28-.386 0-.708.098-.966.296a1.772 1.772 0 00-.574.799c-.127.333-.19.709-.19 1.125 0 .422.065.805.194 1.15.13.342.323.614.578.817.258.2.577.301.958.301zm6.136.833c-.376 0-.717-.071-1.023-.212a1.755 1.755 0 01-.73-.62c-.18-.274-.27-.603-.27-.988 0-.34.066-.615.2-.826.134-.213.313-.38.537-.5.224-.122.471-.212.741-.27.274-.063.548-.111.823-.147.36-.047.652-.082.877-.105.227-.025.391-.067.494-.127.105-.06.158-.161.158-.308v-.031c0-.381-.104-.676-.313-.887-.206-.21-.519-.316-.938-.316-.435 0-.776.094-1.023.285-.247.19-.42.394-.521.61l-.865-.31c.154-.36.36-.64.617-.84.26-.203.544-.345.85-.424.309-.082.613-.123.91-.123.192 0 .41.022.658.069.25.043.49.135.722.274.234.138.428.348.583.628.154.28.231.656.231 1.126v3.903h-.91v-.802h-.047a1.597 1.597 0 01-.309.412 1.795 1.795 0 01-.575.375c-.24.102-.532.154-.877.154zm.139-.818c.36 0 .664-.07.912-.212a1.444 1.444 0 00.756-1.253v-.833c-.039.046-.123.089-.255.127a4.29 4.29 0 01-.448.097 19.072 19.072 0 01-.872.115 3.554 3.554 0 00-.665.15 1.147 1.147 0 00-.494.306c-.123.133-.185.315-.185.547 0 .316.117.555.351.717.237.16.537.239.9.239zm4.617 2.9c-.154 0-.292-.012-.413-.038a1.055 1.055 0 01-.25-.07l.23-.802c.222.057.418.077.588.062a.7.7 0 00.452-.228c.134-.133.255-.35.367-.651l.17-.463-2.194-5.954h.989l1.637 4.72h.062l1.637-4.72h.989l-2.518 6.787c-.113.306-.254.56-.421.76a1.579 1.579 0 01-.583.45 1.8 1.8 0 01-.742.147zm10.27-2.082c-.376 0-.717-.071-1.023-.212a1.755 1.755 0 01-.73-.62c-.18-.274-.27-.603-.27-.988 0-.34.066-.615.2-.826.134-.213.313-.38.537-.5.224-.122.471-.212.741-.27.274-.063.548-.111.823-.147.36-.047.652-.082.877-.105.227-.025.391-.067.494-.127.105-.06.158-.161.158-.308v-.031c0-.381-.104-.676-.313-.887-.206-.21-.519-.316-.938-.316-.435 0-.776.094-1.023.285-.247.19-.42.394-.521.61l-.865-.31c.154-.36.36-.64.617-.84a2.31 2.31 0 01.85-.424c.309-.082.613-.123.91-.123.192 0 .41.022.658.069.25.043.49.135.722.274.234.138.428.348.583.628.154.28.231.656.231 1.126v3.903h-.91v-.802h-.047a1.597 1.597 0 01-.309.412 1.795 1.795 0 01-.575.375c-.24.102-.532.154-.877.154zm.139-.818c.36 0 .664-.07.912-.212a1.444 1.444 0 00.756-1.253v-.833c-.039.046-.123.089-.255.127a4.29 4.29 0 01-.448.097 19.077 19.077 0 01-.872.115 3.554 3.554 0 00-.665.15 1.147 1.147 0 00-.494.306c-.123.133-.185.315-.185.547 0 .316.117.555.351.717.237.16.537.239.9.239zm5.154-2.884v3.563h-.911v-5.923h.88v.925h.078c.139-.301.35-.542.633-.725.283-.185.648-.277 1.096-.277.402 0 .754.082 1.054.246.302.163.536.41.703.74.168.33.251.746.251 1.25v3.764h-.91v-3.702c0-.465-.122-.828-.364-1.087-.242-.263-.574-.394-.996-.394-.29 0-.55.063-.78.189-.227.126-.405.31-.537.551a1.84 1.84 0 00-.197.88zm7.69 3.687c-.495 0-.931-.125-1.31-.375a2.518 2.518 0 01-.888-1.064c-.213-.46-.32-1.004-.32-1.631 0-.622.107-1.162.32-1.62.214-.458.511-.811.893-1.06.38-.25.82-.374 1.32-.374.386 0 .691.063.915.192.227.127.4.27.517.432.121.16.215.29.282.393h.078v-2.915h.91v7.898h-.88v-.91h-.108a5.583 5.583 0 01-.286.409c-.123.162-.3.307-.529.436-.229.125-.533.189-.915.189zm.123-.818c.366 0 .675-.095.926-.285a1.79 1.79 0 00.576-.798 3.3 3.3 0 00.197-1.185c0-.442-.064-.83-.193-1.16a1.693 1.693 0 00-.572-.78c-.252-.187-.564-.28-.934-.28-.386 0-.708.098-.966.296a1.78 1.78 0 00-.575.799 3.171 3.171 0 00-.189 1.125c0 .422.065.805.193 1.15.131.342.324.614.58.817.257.2.576.301.957.301zm10.029-5.23v.772h-3.075v-.771zm-2.178-1.419h.91v5.646c0 .257.038.45.113.579.077.126.174.21.293.254.121.042.249.062.382.062a1.545 1.545 0 00.402-.046l.186.818a1.893 1.893 0 01-.26.069c-.11.025-.25.038-.42.038-.258 0-.51-.055-.757-.166a1.496 1.496 0 01-.61-.505c-.16-.226-.24-.512-.24-.856zm3.549 7.343v-5.923h.88v.894h.062c.108-.293.303-.53.586-.713a1.73 1.73 0 01.958-.274 8.05 8.05 0 01.479.016v.925a2.699 2.699 0 00-.213-.035 2.102 2.102 0 00-.343-.027 1.6 1.6 0 00-.772.182 1.362 1.362 0 00-.534.493 1.335 1.335 0 00-.192.714v3.748zm4.813 2.221c-.155 0-.292-.012-.414-.038a1.044 1.044 0 01-.25-.07l.231-.802c.221.057.417.077.587.062a.7.7 0 00.452-.228c.134-.133.256-.35.367-.651l.17-.463-2.194-5.954h.989l1.637 4.72h.062l1.637-4.72h.988l-2.517 6.787c-.113.306-.254.56-.421.76a1.581 1.581 0 01-.583.45 1.797 1.797 0 01-.741.147zm11.01-2.097c-.57 0-1.064-.127-1.479-.379a2.54 2.54 0 01-.953-1.064c-.222-.458-.332-.99-.332-1.596 0-.607.11-1.142.332-1.604a2.62 2.62 0 01.934-1.088c.401-.262.87-.393 1.406-.393.309 0 .614.05.915.153.301.103.575.27.822.502.248.229.444.532.591.91.147.378.22.843.22 1.396v.386h-4.572v-.787h3.645a1.94 1.94 0 00-.2-.895 1.508 1.508 0 00-.564-.62 1.58 1.58 0 00-.857-.228c-.363 0-.678.09-.942.27a1.781 1.781 0 00-.607.694 2.042 2.042 0 00-.212.918v.525c0 .447.077.826.231 1.137.158.308.376.544.654.706.278.16.6.24.968.24.24 0 .456-.035.65-.102.195-.069.364-.172.505-.307.141-.14.251-.312.329-.518l.88.248c-.093.297-.249.56-.467.786-.22.224-.49.399-.812.525a3.008 3.008 0 01-1.085.185zm8.512-6.047l-2.193 5.923h-.927l-2.193-5.923h.988l1.638 4.72h.062l1.637-4.72zm3.477 6.047c-.571 0-1.064-.127-1.479-.379a2.535 2.535 0 01-.953-1.064c-.222-.458-.332-.99-.332-1.596 0-.607.11-1.142.332-1.604a2.61 2.61 0 01.934-1.088c.402-.262.87-.393 1.406-.393.309 0 .613.05.915.153.301.103.575.27.822.502.247.229.445.532.591.91.147.378.22.843.22 1.396v.386h-4.571v-.787h3.645c0-.334-.067-.633-.202-.895a1.506 1.506 0 00-.563-.62 1.58 1.58 0 00-.857-.228c-.363 0-.677.09-.942.27a1.781 1.781 0 00-.607.694 2.042 2.042 0 00-.212.918v.525c0 .447.077.826.232 1.137.156.308.374.544.652.706.278.16.601.24.97.24.239 0 .455-.035.648-.102.196-.069.364-.172.506-.307.142-.14.251-.312.328-.518l.88.248c-.092.297-.248.56-.467.786a2.267 2.267 0 01-.81.525 3.012 3.012 0 01-1.086.185zm3.843-.124v-5.923h.88v.894h.062a1.42 1.42 0 01.587-.713c.283-.183.602-.274.958-.274a8.05 8.05 0 01.478.016v.925a2.656 2.656 0 00-.212-.035 2.112 2.112 0 00-.344-.027c-.288 0-.545.06-.772.182a1.329 1.329 0 00-.726 1.207v3.748zm4.813 2.221c-.155 0-.292-.012-.413-.038a1.056 1.056 0 01-.251-.07l.231-.802c.222.057.417.077.587.062a.699.699 0 00.452-.228c.134-.133.257-.35.367-.651l.17-.463-2.193-5.954h.988l1.638 4.72h.061l1.637-4.72h.99l-2.519 6.787a2.56 2.56 0 01-.42.76 1.587 1.587 0 01-.583.45 1.8 1.8 0 01-.742.147zm11.166-8.144v.77h-3.198v-.77zm-2.24 5.923v-6.741c0-.34.08-.622.24-.849.159-.225.366-.395.621-.509a1.97 1.97 0 01.807-.17 2.107 2.107 0 01.865.154l-.262.788a4.866 4.866 0 00-.194-.058 1.169 1.169 0 00-.317-.035c-.3 0-.518.076-.652.227-.131.153-.196.375-.196.668v6.525zm5.76.124c-.572 0-1.065-.127-1.48-.379a2.54 2.54 0 01-.954-1.064c-.221-.458-.331-.99-.331-1.596 0-.607.11-1.142.331-1.604a2.62 2.62 0 01.935-1.088c.402-.262.87-.393 1.405-.393.31 0 .615.05.915.153.302.103.576.27.823.502.248.229.444.532.591.91.147.378.22.843.22 1.396v.386h-4.572v-.787h3.645c0-.334-.067-.633-.2-.895a1.508 1.508 0 00-.564-.62 1.58 1.58 0 00-.858-.228c-.362 0-.677.09-.942.27a1.773 1.773 0 00-.605.694 2.033 2.033 0 00-.213.918v.525c0 .447.077.826.231 1.137.158.308.375.544.653.706.278.16.602.24.97.24.239 0 .455-.035.648-.102.196-.069.364-.172.506-.307.141-.14.25-.312.328-.518l.88.248c-.092.297-.248.56-.466.786-.22.224-.49.399-.811.525a3.014 3.014 0 01-1.085.185zm5.587.015c-.376 0-.717-.071-1.023-.212a1.76 1.76 0 01-.73-.62c-.18-.274-.27-.603-.27-.988 0-.34.067-.615.2-.826.134-.213.313-.38.537-.5a2.8 2.8 0 01.742-.27 8.58 8.58 0 01.822-.147c.36-.047.653-.082.876-.105.227-.025.392-.067.494-.127.106-.06.159-.161.159-.308v-.031c0-.381-.104-.676-.312-.887-.207-.21-.52-.316-.94-.316-.434 0-.775.094-1.022.285-.247.19-.421.394-.521.61l-.866-.31c.155-.36.36-.64.619-.84.259-.203.542-.345.848-.424.31-.082.613-.123.912-.123.19 0 .41.022.657.069.249.043.49.135.722.274a1.6 1.6 0 01.582.628c.155.28.233.656.233 1.126v3.903h-.912v-.802h-.046a1.62 1.62 0 01-.31.412 1.795 1.795 0 01-.575.375c-.239.102-.53.154-.876.154zm.139-.818c.36 0 .664-.07.911-.212.25-.14.438-.324.564-.547a1.4 1.4 0 00.193-.706v-.833c-.038.046-.124.089-.255.127a4.29 4.29 0 01-.448.097 18.592 18.592 0 01-.872.115 3.507 3.507 0 00-.664.15 1.146 1.146 0 00-.495.306c-.124.133-.185.315-.185.547 0 .316.117.555.351.717.237.16.537.239.9.239zm6.822-5.244v.77h-3.073v-.77zm-2.178-1.42h.911v5.646c0 .257.038.45.113.579a.58.58 0 00.293.254c.12.042.248.062.383.062a1.545 1.545 0 00.401-.046l.185.818a1.832 1.832 0 01-.259.069 1.91 1.91 0 01-.42.038 1.83 1.83 0 01-.757-.166 1.499 1.499 0 01-.61-.505c-.16-.226-.24-.512-.24-.856zm7.287 4.921v-3.501h.911v5.923h-.91v-1.002h-.063a1.942 1.942 0 01-.649.767c-.293.208-.664.312-1.112.312-.37 0-.7-.08-.989-.242a1.703 1.703 0 01-.68-.741c-.164-.331-.246-.75-.246-1.254v-3.763h.911v3.702c0 .432.121.776.363 1.033.245.258.557.386.935.386.227 0 .457-.058.691-.173.237-.117.435-.293.595-.532.162-.24.243-.544.243-.915zm2.58 2.422v-5.923h.881v.894h.061c.108-.293.304-.53.588-.713.282-.183.602-.274.957-.274a8.05 8.05 0 01.479.016v.925a2.722 2.722 0 00-.212-.035 2.112 2.112 0 00-.344-.027 1.6 1.6 0 00-.772.182 1.329 1.329 0 00-.726 1.207v3.748zm6.352.124c-.57 0-1.064-.127-1.479-.379a2.54 2.54 0 01-.953-1.064c-.222-.458-.332-.99-.332-1.596 0-.607.11-1.142.332-1.604a2.62 2.62 0 01.934-1.088c.401-.262.87-.393 1.406-.393.309 0 .614.05.915.153.301.103.575.27.822.502.248.229.445.532.591.91.147.378.22.843.22 1.396v.386h-4.572v-.787h3.646c0-.334-.067-.633-.2-.895a1.508 1.508 0 00-.565-.62 1.58 1.58 0 00-.857-.228c-.363 0-.678.09-.942.27a1.781 1.781 0 00-.607.694 2.042 2.042 0 00-.212.918v.525c0 .447.077.826.231 1.137.158.308.376.544.654.706.278.16.6.24.968.24.24 0 .456-.035.65-.102.195-.069.364-.172.505-.307a1.42 1.42 0 00.329-.518l.88.248c-.093.297-.249.56-.467.786-.22.224-.49.399-.812.525a3.012 3.012 0 01-1.085.185zM30.715 124.605v-5.923h.911v5.923zm.463-6.91a.65.65 0 01-.46-.181.582.582 0 01-.188-.436c0-.17.063-.315.189-.436a.648.648 0 01.46-.181c.177 0 .329.06.455.181a.577.577 0 01.193.436c0 .17-.064.315-.193.436a.637.637 0 01-.456.18zm3.029 3.348v3.562h-.912v-5.923h.88v.926h.078c.139-.301.35-.543.633-.725.283-.185.649-.278 1.097-.278.402 0 .753.083 1.054.247.301.162.536.409.703.74.167.33.25.746.25 1.25v3.763h-.91v-3.701c0-.466-.121-.829-.363-1.088-.242-.262-.574-.393-.997-.393-.29 0-.55.063-.78.189-.226.126-.405.31-.536.551-.132.242-.197.535-.197.88zm10.917 3.687c-.535 0-1.005-.128-1.41-.383a2.594 2.594 0 01-.942-1.068c-.224-.458-.336-.992-.336-1.604 0-.617.112-1.156.336-1.616.227-.46.541-.817.943-1.072.404-.254.874-.382 1.409-.382s1.004.128 1.406.382c.404.255.718.612.942 1.072.226.46.34 1 .34 1.616 0 .612-.114 1.146-.34 1.604a2.558 2.558 0 01-.942 1.068c-.402.255-.87.383-1.406.383zm0-.818c.407 0 .741-.105 1.004-.313.263-.208.457-.482.583-.821.126-.34.19-.707.19-1.103s-.064-.765-.19-1.107a1.866 1.866 0 00-.583-.83c-.263-.21-.597-.315-1.004-.315-.407 0-.741.105-1.004.316a1.866 1.866 0 00-.583.829c-.126.342-.19.711-.19 1.107s.064.763.19 1.103c.126.339.32.613.583.821.263.208.597.313 1.004.313zm7.817-1.728v-3.502h.911v5.923h-.911v-1.002h-.062a1.943 1.943 0 01-.649.767c-.293.21-.664.313-1.112.313-.37 0-.7-.08-.988-.243a1.703 1.703 0 01-.68-.74c-.165-.332-.247-.75-.247-1.254v-3.764h.911v3.703c0 .432.121.776.363 1.033.245.257.556.385.935.385.226 0 .457-.057.69-.173.238-.116.436-.293.595-.532.163-.24.244-.543.244-.914zm2.58 2.421v-5.923h.88v.895h.062a1.42 1.42 0 01.587-.713c.283-.183.603-.274.958-.274a8.063 8.063 0 01.479.015v.926a2.702 2.702 0 00-.213-.035 2.11 2.11 0 00-.343-.027c-.289 0-.546.06-.773.181a1.33 1.33 0 00-.726 1.207v3.748zm7.228 0v-7.898h2.672c.62 0 1.128.113 1.521.336.397.221.69.52.88.898.191.379.287.8.287 1.266 0 .465-.096.888-.286 1.269a2.13 2.13 0 01-.873.91c-.394.223-.898.335-1.513.335H63.52v-.848h1.885c.424 0 .765-.074 1.023-.22.257-.146.444-.345.56-.594.118-.252.177-.536.177-.852 0-.317-.059-.6-.177-.849a1.266 1.266 0 00-.564-.586c-.26-.144-.605-.216-1.035-.216h-1.683v7.05zm6.779 0v-5.923h.88v.895h.062a1.42 1.42 0 01.587-.713c.283-.183.602-.274.958-.274a8.063 8.063 0 01.478.015v.926a2.7 2.7 0 00-.212-.035 2.11 2.11 0 00-.344-.027c-.288 0-.545.06-.772.181a1.33 1.33 0 00-.726 1.207v3.748zm6.275.125c-.536 0-1.006-.128-1.41-.383a2.593 2.593 0 01-.942-1.068c-.224-.458-.336-.992-.336-1.604 0-.617.112-1.156.336-1.616.227-.46.54-.817.942-1.072.404-.254.874-.382 1.41-.382s1.004.128 1.405.382c.404.255.718.612.943 1.072.226.46.34 1 .34 1.616 0 .612-.114 1.146-.34 1.604a2.562 2.562 0 01-.943 1.068c-.401.255-.87.383-1.405.383zm0-.818c.406 0 .741-.105 1.004-.313.262-.208.457-.482.583-.821.126-.34.189-.707.189-1.103s-.063-.765-.19-1.107a1.866 1.866 0 00-.582-.83c-.263-.21-.598-.315-1.004-.315-.407 0-.742.105-1.004.316a1.866 1.866 0 00-.583.829c-.127.342-.19.711-.19 1.107s.063.763.19 1.103c.126.339.32.613.583.821.262.208.597.313 1.004.313zm6.72-5.23v.771h-3.198v-.77zm-2.24 5.923v-6.74c0-.34.08-.622.24-.849.159-.226.366-.396.621-.509a1.97 1.97 0 01.807-.17 2.106 2.106 0 01.865.154l-.262.787a4.873 4.873 0 00-.194-.057 1.169 1.169 0 00-.317-.035c-.3 0-.518.076-.652.227-.131.152-.196.375-.196.667v6.525zm5.76.125c-.572 0-1.065-.127-1.48-.379a2.54 2.54 0 01-.954-1.064c-.221-.458-.331-.99-.331-1.597 0-.606.11-1.141.331-1.604.225-.465.536-.828.935-1.087.402-.262.87-.394 1.406-.394.309 0 .614.052.915.154.3.103.575.27.822.502.248.229.444.532.591.91.147.378.22.843.22 1.396v.386h-4.572v-.787h3.645c0-.334-.067-.633-.2-.895a1.508 1.508 0 00-.564-.62 1.58 1.58 0 00-.857-.228c-.363 0-.677.09-.943.27a1.773 1.773 0 00-.605.693 2.033 2.033 0 00-.213.919v.524c0 .448.077.826.231 1.138.158.308.375.544.653.705.278.16.602.24.97.24.239 0 .455-.034.648-.1.196-.07.365-.173.506-.309.141-.139.25-.31.328-.517l.88.247c-.092.298-.248.56-.466.787a2.28 2.28 0 01-.811.524 3.015 3.015 0 01-1.085.186zm8.043-4.721l-.818.232a1.545 1.545 0 00-.229-.398 1.1 1.1 0 00-.401-.324c-.17-.085-.388-.127-.653-.127-.362 0-.665.083-.907.25-.24.165-.36.374-.36.629a.65.65 0 00.247.536c.166.131.423.24.773.328l.88.216c.53.128.926.325 1.186.59.26.262.39.6.39 1.015 0 .339-.098.642-.293.91a1.948 1.948 0 01-.811.632 2.973 2.973 0 01-1.213.232c-.605 0-1.106-.131-1.502-.394-.397-.263-.648-.645-.753-1.15l.865-.216c.082.32.238.559.468.718.231.16.533.239.907.239.425 0 .762-.09 1.011-.27.252-.182.379-.401.379-.656a.688.688 0 00-.217-.516c-.143-.141-.365-.247-.664-.317l-.988-.23c-.543-.13-.943-.329-1.197-.599-.253-.272-.379-.613-.379-1.022 0-.334.094-.63.282-.887.19-.257.45-.458.776-.605.33-.147.703-.22 1.12-.22.587 0 1.048.128 1.383.386.337.257.576.596.718 1.018zm5.681 0l-.819.232a1.519 1.519 0 00-.227-.398 1.107 1.107 0 00-.402-.324c-.17-.085-.387-.127-.652-.127-.364 0-.666.083-.908.25-.24.165-.359.374-.359.629 0 .226.082.405.247.536.165.131.423.24.772.328l.88.216c.531.128.926.325 1.186.59.26.262.39.6.39 1.015 0 .339-.098.642-.294.91a1.939 1.939 0 01-.81.632 2.973 2.973 0 01-1.213.232c-.605 0-1.105-.131-1.502-.394-.396-.263-.647-.645-.753-1.15l.866-.216c.082.32.237.559.466.718.232.16.535.239.908.239.424 0 .761-.09 1.012-.27.252-.182.378-.401.378-.656a.69.69 0 00-.216-.516c-.145-.141-.366-.247-.664-.317l-.989-.23c-.543-.13-.942-.329-1.197-.599-.252-.272-.379-.613-.379-1.022 0-.334.094-.63.282-.887.191-.257.45-.458.777-.605.33-.147.703-.22 1.12-.22.586 0 1.047.128 1.382.386.337.257.577.596.718 1.018zm1.48 4.596v-5.923h.911v5.923zm.463-6.91a.651.651 0 01-.46-.181.583.583 0 01-.188-.436c0-.17.063-.315.188-.436a.649.649 0 01.46-.181c.178 0 .33.06.456.181a.578.578 0 01.193.436.58.58 0 01-.193.436.638.638 0 01-.456.18zm4.527 7.035c-.535 0-1.005-.128-1.41-.383a2.596 2.596 0 01-.942-1.068c-.224-.458-.335-.992-.335-1.604 0-.617.111-1.156.335-1.616.227-.46.54-.817.942-1.072.405-.254.875-.382 1.41-.382.536 0 1.004.128 1.406.382.404.255.718.612.942 1.072.227.46.34 1 .34 1.616 0 .612-.113 1.146-.34 1.604a2.558 2.558 0 01-.942 1.068c-.402.255-.87.383-1.406.383zm0-.818c.407 0 .742-.105 1.004-.313.263-.208.457-.482.583-.821.126-.34.19-.707.19-1.103s-.064-.765-.19-1.107a1.863 1.863 0 00-.583-.83c-.262-.21-.597-.315-1.004-.315s-.741.105-1.004.316a1.863 1.863 0 00-.583.829c-.127.342-.19.711-.19 1.107s.063.763.19 1.103c.126.339.32.613.583.821.263.208.597.313 1.004.313zm4.99-2.87v3.563h-.912v-5.923h.881v.926h.077c.139-.301.35-.543.634-.725.283-.185.648-.278 1.097-.278.401 0 .752.083 1.053.247.302.162.536.409.703.74.167.33.251.746.251 1.25v3.763h-.91v-3.701c0-.466-.122-.829-.364-1.088-.242-.262-.574-.393-.996-.393-.291 0-.551.063-.78.189-.227.126-.406.31-.537.551-.132.242-.197.535-.197.88zm7.195 3.702c-.376 0-.717-.07-1.023-.211a1.755 1.755 0 01-.73-.621c-.18-.273-.27-.602-.27-.987 0-.34.066-.615.2-.826.134-.213.313-.38.537-.5.224-.122.471-.212.741-.27.274-.063.548-.112.823-.147.36-.047.652-.082.877-.105.226-.026.391-.068.494-.127.105-.06.158-.162.158-.308v-.031c0-.381-.104-.677-.313-.888-.206-.21-.519-.315-.938-.315-.435 0-.776.094-1.023.285-.248.19-.421.393-.522.609l-.864-.309c.154-.36.36-.64.617-.84a2.31 2.31 0 01.85-.424c.309-.082.613-.124.91-.124.192 0 .41.023.658.07.25.043.49.134.721.273.235.14.43.349.584.629.154.28.231.656.231 1.126v3.902h-.91v-.802h-.047a1.597 1.597 0 01-.309.413 1.794 1.794 0 01-.575.375c-.24.102-.532.153-.877.153zm.139-.817c.36 0 .664-.07.912-.212a1.444 1.444 0 00.756-1.254v-.833c-.039.047-.123.09-.255.128a4.29 4.29 0 01-.448.097 19.073 19.073 0 01-.872.115c-.237.031-.458.08-.665.15a1.143 1.143 0 00-.494.305c-.123.134-.185.316-.185.547 0 .317.117.556.351.718.237.16.537.239.9.239zm5.154-7.22v7.898h-.911v-7.898zm4.851 7.898v-7.898h2.672c.62 0 1.128.113 1.522.336.396.221.69.52.88.898.19.379.285.8.285 1.266 0 .465-.094.888-.285 1.269a2.13 2.13 0 01-.873.91c-.393.223-.898.335-1.513.335h-1.916v-.848h1.885c.424 0 .765-.074 1.023-.22.257-.146.444-.345.56-.594.118-.252.177-.536.177-.852a1.96 1.96 0 00-.177-.849 1.265 1.265 0 00-.564-.586c-.26-.144-.605-.216-1.035-.216h-1.683v7.05zm7.69-7.898v7.898h-.91v-7.898zm3.415 8.037c-.376 0-.717-.07-1.023-.211a1.755 1.755 0 01-.73-.621c-.18-.273-.27-.602-.27-.987 0-.34.066-.615.2-.826.134-.213.313-.38.537-.5.224-.122.47-.212.741-.27.273-.063.547-.112.823-.147.36-.047.652-.082.877-.105.226-.026.39-.068.494-.127.105-.06.158-.162.158-.308v-.031c0-.381-.104-.677-.313-.888-.206-.21-.519-.315-.938-.315-.435 0-.776.094-1.023.285-.248.19-.421.393-.522.609l-.865-.309c.155-.36.36-.64.618-.84a2.31 2.31 0 01.85-.424c.309-.082.612-.124.91-.124.192 0 .41.023.657.07.25.043.49.134.722.273.235.14.43.349.584.629.154.28.231.656.231 1.126v3.902h-.91v-.802h-.048a1.584 1.584 0 01-.309.413 1.782 1.782 0 01-.574.375c-.24.102-.532.153-.877.153zm.139-.817c.36 0 .664-.07.91-.212a1.441 1.441 0 00.758-1.254v-.833c-.039.047-.123.09-.255.128a4.291 4.291 0 01-.448.097 19.072 19.072 0 01-.873.115c-.237.031-.458.08-.664.15a1.138 1.138 0 00-.494.305c-.123.134-.186.316-.186.547 0 .317.118.556.352.718.237.16.537.239.9.239zm5.154-2.884v3.562h-.911v-5.923h.88v.926h.077c.14-.301.35-.543.633-.725.284-.185.649-.278 1.097-.278.402 0 .753.083 1.054.247.302.162.536.409.703.74.168.33.251.746.251 1.25v3.763h-.911v-3.701c0-.466-.121-.829-.363-1.088-.242-.262-.575-.393-.996-.393-.292 0-.551.063-.78.189-.227.126-.406.31-.537.551-.131.242-.197.535-.197.88zm11.149-2.36v.77h-3.197v-.77zm-2.24 5.922v-6.74c0-.34.08-.622.24-.849a1.48 1.48 0 01.622-.509c.255-.113.523-.17.807-.17.223 0 .406.018.548.055.141.035.247.069.316.1l-.262.786a4.404 4.404 0 00-.193-.057 1.169 1.169 0 00-.317-.035c-.301 0-.519.076-.652.227-.132.152-.198.375-.198.667v6.525zm5.683.125c-.536 0-1.006-.128-1.41-.383a2.596 2.596 0 01-.942-1.068c-.224-.458-.336-.992-.336-1.604 0-.617.112-1.156.336-1.616.227-.46.54-.817.942-1.072.404-.254.874-.382 1.41-.382.535 0 1.003.128 1.405.382.404.255.718.612.943 1.072.226.46.34 1 .34 1.616 0 .612-.114 1.146-.34 1.604a2.56 2.56 0 01-.943 1.068c-.402.255-.87.383-1.405.383zm0-.818c.406 0 .74-.105 1.003-.313.263-.208.458-.482.584-.821.125-.34.189-.707.189-1.103s-.064-.765-.19-1.107a1.864 1.864 0 00-.583-.83c-.262-.21-.597-.315-1.003-.315-.407 0-.742.105-1.005.316a1.87 1.87 0 00-.583.829 3.183 3.183 0 00-.189 1.107c0 .396.063.763.19 1.103.126.339.32.613.582.821.263.208.598.313 1.005.313zm4.078.693v-5.923h.881v.895h.061a1.42 1.42 0 01.587-.713c.283-.183.602-.274.958-.274a8.051 8.051 0 01.479.015v.926a2.664 2.664 0 00-.212-.035 2.112 2.112 0 00-.344-.027c-.289 0-.546.06-.773.181a1.329 1.329 0 00-.726 1.207v3.748zm9.869-7.898v7.898h-.958v-6.895h-.046l-1.93 1.281v-.972l1.976-1.312zm2.09 6.279v-.787l3.475-5.492h.57v1.22h-.385l-2.626 4.149v.062h4.68v.848zm3.722 1.62v-7.9h.911v7.898zm8.753.124c-.494 0-.93-.125-1.31-.375a2.53 2.53 0 01-.888-1.064c-.213-.46-.32-1.004-.32-1.632 0-.622.107-1.162.32-1.62.215-.457.511-.81.893-1.06.38-.25.82-.374 1.32-.374.386 0 .691.064.915.193.227.126.4.27.518.432.12.159.214.29.282.393h.077v-2.916h.911v7.898h-.88v-.91h-.108a6.114 6.114 0 01-.286.41c-.123.162-.3.307-.529.435-.229.126-.534.19-.915.19zm.123-.818c.366 0 .675-.095.927-.285.252-.194.444-.46.575-.799.131-.342.197-.737.197-1.184 0-.442-.064-.83-.193-1.16a1.692 1.692 0 00-.57-.78c-.253-.187-.565-.281-.936-.281-.386 0-.708.099-.965.296a1.772 1.772 0 00-.575.8c-.127.333-.19.708-.19 1.125 0 .422.065.805.194 1.15.131.342.324.614.578.817.258.2.577.301.958.301zm6.136.832c-.376 0-.717-.07-1.023-.211a1.755 1.755 0 01-.73-.621c-.18-.273-.27-.602-.27-.987 0-.34.066-.615.2-.826.134-.213.313-.38.538-.5.223-.122.47-.212.74-.27.274-.063.548-.112.823-.147.36-.047.653-.082.877-.105.227-.026.391-.068.494-.127.106-.06.158-.162.158-.308v-.031c0-.381-.104-.677-.313-.888-.205-.21-.518-.315-.938-.315-.435 0-.776.094-1.023.285-.247.19-.42.393-.521.609l-.865-.309c.154-.36.36-.64.617-.84a2.31 2.31 0 01.85-.424c.31-.082.613-.124.912-.124.19 0 .41.023.656.07.25.043.49.134.722.273.234.14.428.349.583.629.155.28.231.656.231 1.126v3.902h-.91v-.802h-.047a1.597 1.597 0 01-.309.413 1.795 1.795 0 01-.575.375c-.24.102-.531.153-.877.153zm.139-.817c.36 0 .664-.07.912-.212.25-.141.437-.324.564-.548a1.4 1.4 0 00.192-.706v-.833c-.038.047-.123.09-.254.128a4.29 4.29 0 01-.449.097 19.072 19.072 0 01-.872.115c-.237.031-.458.08-.664.15a1.146 1.146 0 00-.495.305c-.123.134-.184.316-.184.547 0 .317.116.556.35.718.237.16.537.239.9.239zm4.617 2.9c-.154 0-.292-.012-.413-.039a1.056 1.056 0 01-.25-.069l.23-.802c.222.057.418.077.588.061a.7.7 0 00.452-.227c.134-.133.256-.35.367-.651l.17-.463-2.194-5.955h.99l1.636 4.72h.062l1.637-4.72h.989l-2.518 6.788a2.56 2.56 0 01-.42.76 1.587 1.587 0 01-.584.45 1.8 1.8 0 01-.742.147zm9.668-6.818l-.819.232a1.501 1.501 0 00-.228-.398 1.094 1.094 0 00-.401-.324c-.17-.085-.387-.127-.653-.127-.363 0-.666.083-.907.25-.24.165-.359.374-.359.629 0 .226.082.405.247.536.165.131.422.24.772.328l.88.216c.53.128.926.325 1.186.59.26.262.39.6.39 1.015 0 .339-.098.642-.294.91a1.939 1.939 0 01-.81.632 2.973 2.973 0 01-1.213.232c-.605 0-1.106-.131-1.502-.394-.396-.263-.648-.645-.753-1.15l.865-.216c.082.32.238.559.467.718.232.16.535.239.908.239.424 0 .762-.09 1.012-.27.252-.182.378-.401.378-.656a.69.69 0 00-.216-.516c-.144-.141-.366-.247-.665-.317l-.988-.23c-.544-.13-.942-.329-1.198-.599-.251-.272-.378-.613-.378-1.022 0-.334.094-.63.282-.887.19-.257.45-.458.776-.605a2.73 2.73 0 011.12-.22c.587 0 1.048.128 1.383.386.337.257.577.596.718 1.018zm2.144 4.659a.671.671 0 01-.49-.204.669.669 0 01-.205-.49c0-.19.068-.354.205-.49a.669.669 0 01.49-.205.67.67 0 01.49.205c.137.136.205.3.205.49a.653.653 0 01-.096.347.729.729 0 01-.251.254.669.669 0 01-.348.093zM30.838 140.895v-7.898h4.773v.849h-3.815v2.669h3.568v.848h-3.568v2.684h3.877v.848zm7.055-5.923l1.421 2.422 1.421-2.422h1.05l-1.914 2.962 1.915 2.961h-1.05l-1.422-2.298-1.42 2.298h-1.05l1.884-2.961-1.885-2.962zm5.193 8.145v-8.145h.88v.94h.109a8.8 8.8 0 01.278-.392c.12-.163.293-.306.517-.432.227-.13.533-.193.92-.193.499 0 .939.124 1.32.374.38.25.678.603.892 1.06.214.458.32.998.32 1.62 0 .628-.106 1.171-.32 1.631-.214.458-.51.813-.888 1.065-.379.25-.815.374-1.31.374-.38 0-.685-.063-.915-.189a1.697 1.697 0 01-.529-.436 5.861 5.861 0 01-.285-.409h-.078v3.132zm.896-5.183c0 .447.066.842.197 1.184.131.34.323.605.575.798.253.19.561.286.927.286.381 0 .699-.101.954-.301a1.84 1.84 0 00.58-.818 3.23 3.23 0 00.196-1.15c0-.416-.064-.791-.193-1.125a1.739 1.739 0 00-.575-.799c-.255-.198-.576-.296-.962-.296-.37 0-.682.094-.934.28a1.693 1.693 0 00-.572.78 3.195 3.195 0 00-.193 1.16zm8.217 3.085c-.571 0-1.064-.126-1.479-.378a2.536 2.536 0 01-.953-1.064c-.222-.458-.333-.99-.333-1.597s.111-1.142.333-1.604c.224-.465.535-.828.934-1.088.402-.262.87-.393 1.406-.393.309 0 .614.051.915.154.3.103.575.27.822.502a2.4 2.4 0 01.591.91c.147.377.22.843.22 1.396v.385h-4.572v-.786h3.645c0-.335-.066-.633-.2-.895a1.509 1.509 0 00-.564-.621 1.577 1.577 0 00-.857-.227c-.363 0-.677.09-.943.27a1.776 1.776 0 00-.606.693 2.04 2.04 0 00-.212.919v.524c0 .448.077.826.231 1.138.158.308.375.544.653.705.278.16.601.24.97.24.239 0 .455-.034.648-.101a1.39 1.39 0 00.506-.308c.141-.139.25-.311.328-.517l.88.247c-.092.298-.248.56-.467.787a2.291 2.291 0 01-.81.524 3.012 3.012 0 01-1.086.185zm3.842-.124v-5.923h.88v.894h.063c.108-.292.303-.53.587-.713.283-.183.602-.273.957-.273a8.02 8.02 0 01.48.015v.926a2.688 2.688 0 00-.213-.035 2.108 2.108 0 00-.344-.027c-.288 0-.546.06-.772.181a1.33 1.33 0 00-.726 1.207v3.748zm4.046 0v-5.923H61v5.923zm.464-6.91a.65.65 0 01-.46-.181.582.582 0 01-.189-.436.58.58 0 01.19-.436.648.648 0 01.459-.182c.177 0 .33.06.455.182a.577.577 0 01.193.436c0 .17-.064.315-.193.436a.637.637 0 01-.455.18zm4.604 7.034c-.572 0-1.065-.126-1.48-.378a2.535 2.535 0 01-.953-1.064c-.222-.458-.332-.99-.332-1.597s.11-1.142.332-1.604c.224-.465.535-.828.934-1.088.402-.262.87-.393 1.406-.393.309 0 .614.051.915.154.301.103.575.27.823.502a2.4 2.4 0 01.59.91c.147.377.22.843.22 1.396v.385h-4.57v-.786h3.645c0-.335-.067-.633-.201-.895a1.509 1.509 0 00-.564-.621 1.577 1.577 0 00-.857-.227c-.363 0-.677.09-.942.27a1.776 1.776 0 00-.607.693 2.04 2.04 0 00-.212.919v.524c0 .448.077.826.232 1.138.157.308.374.544.652.705.278.16.601.24.97.24.239 0 .455-.034.648-.101a1.39 1.39 0 00.506-.308c.142-.139.251-.311.328-.517l.88.247c-.092.298-.248.56-.466.787-.22.223-.49.398-.811.524a3.013 3.013 0 01-1.085.185zm4.753-3.687v3.563h-.911v-5.923h.88v.925h.077c.14-.3.35-.542.634-.724.283-.186.648-.278 1.096-.278.402 0 .753.082 1.055.247.3.162.535.409.702.74.168.33.251.745.251 1.25v3.763h-.911v-3.701c0-.466-.121-.829-.363-1.088-.242-.262-.574-.393-.996-.393-.291 0-.551.063-.78.188-.227.127-.406.31-.537.552-.131.242-.197.535-.197.88zm7.859 3.687c-.556 0-1.035-.13-1.436-.394a2.56 2.56 0 01-.927-1.083c-.216-.46-.324-.986-.324-1.577 0-.602.11-1.133.332-1.593.224-.463.535-.824.934-1.084.402-.262.87-.393 1.405-.393.418 0 .793.077 1.128.231.335.155.61.37.823.648.213.278.346.602.397.972h-.91a1.418 1.418 0 00-.464-.718c-.237-.21-.556-.315-.958-.315a1.6 1.6 0 00-.934.277 1.812 1.812 0 00-.622.775c-.147.332-.22.722-.22 1.169 0 .457.072.856.216 1.195.147.34.353.603.618.791a1.6 1.6 0 00.942.282c.237 0 .452-.041.645-.124a1.328 1.328 0 00.776-.91h.911a2.1 2.1 0 01-1.18 1.608c-.33.162-.714.243-1.152.243zm6.151 0c-.571 0-1.064-.126-1.478-.378a2.535 2.535 0 01-.954-1.064c-.222-.458-.333-.99-.333-1.597s.111-1.142.333-1.604a2.61 2.61 0 01.934-1.088c.402-.262.87-.393 1.406-.393.31 0 .614.051.915.154.301.103.576.27.822.502.247.228.445.532.592.91.146.377.22.843.22 1.396v.385h-4.572v-.786h3.645c0-.335-.067-.633-.201-.895a1.511 1.511 0 00-.564-.621 1.58 1.58 0 00-.857-.227c-.363 0-.677.09-.942.27a1.775 1.775 0 00-.607.693 2.042 2.042 0 00-.212.919v.524c0 .448.077.826.232 1.138.157.308.374.544.652.705.278.16.601.24.97.24.239 0 .455-.034.648-.101a1.4 1.4 0 00.506-.308c.142-.139.251-.311.328-.517l.88.247c-.092.298-.248.56-.467.787a2.28 2.28 0 01-.81.524 3.012 3.012 0 01-1.086.185zm9.388 0c-.572 0-1.064-.126-1.48-.378a2.535 2.535 0 01-.953-1.064c-.221-.458-.332-.99-.332-1.597s.11-1.142.332-1.604a2.63 2.63 0 01.934-1.088c.402-.262.871-.393 1.406-.393.31 0 .614.051.915.154.302.103.576.27.823.502.247.228.444.532.59.91.148.377.22.843.22 1.396v.385H91.19v-.786h3.645c0-.335-.067-.633-.2-.895a1.513 1.513 0 00-.564-.621 1.58 1.58 0 00-.858-.227c-.363 0-.677.09-.942.27a1.781 1.781 0 00-.607.693 2.042 2.042 0 00-.212.919v.524c0 .448.077.826.232 1.138.157.308.374.544.652.705.278.16.601.24.97.24.239 0 .456-.034.648-.101.196-.07.364-.172.507-.308.14-.139.25-.311.327-.517l.881.247c-.092.298-.248.56-.467.787a2.267 2.267 0 01-.811.524 3.012 3.012 0 01-1.085.185zm4.753-3.687v3.563h-.911v-5.923h.88v.925h.078c.139-.3.35-.542.633-.724.283-.186.649-.278 1.096-.278.402 0 .754.082 1.055.247.3.162.535.409.702.74.168.33.252.745.252 1.25v3.763h-.912v-3.701c0-.466-.12-.829-.363-1.088-.242-.262-.574-.393-.996-.393-.29 0-.55.063-.78.188a1.36 1.36 0 00-.537.552c-.131.242-.197.535-.197.88zm6.361 0v3.563h-.91v-7.898h.91v2.9h.077c.14-.305.348-.548.626-.728.28-.183.654-.274 1.12-.274.404 0 .758.08 1.062.243.304.159.539.405.707.736.169.33.254.749.254 1.258v3.763h-.911v-3.701c0-.471-.122-.835-.367-1.092-.242-.26-.578-.39-1.007-.39-.3 0-.567.064-.804.19-.234.126-.42.31-.556.55-.134.243-.2.536-.2.88zm7.258 3.702a2.4 2.4 0 01-1.022-.212 1.76 1.76 0 01-.73-.62c-.18-.273-.27-.602-.27-.988 0-.34.066-.614.2-.825.134-.213.313-.38.537-.501.224-.121.47-.211.741-.27.273-.062.548-.111.823-.147.36-.046.653-.081.876-.104.227-.026.392-.068.494-.128.106-.059.159-.161.159-.308v-.03c0-.382-.104-.677-.313-.888-.206-.21-.518-.316-.938-.316-.435 0-.776.095-1.023.286-.247.19-.421.393-.522.609l-.865-.31c.155-.359.36-.64.618-.84.26-.202.543-.344.85-.424.309-.082.612-.123.911-.123.19 0 .41.023.657.07.249.043.49.134.721.273.235.139.429.348.583.628.155.281.233.657.233 1.127v3.902h-.912v-.802h-.046a1.62 1.62 0 01-.31.413 1.794 1.794 0 01-.575.374c-.239.103-.53.154-.877.154zm.14-.818c.36 0 .664-.07.911-.211.25-.141.438-.325.564-.548a1.4 1.4 0 00.193-.706v-.833c-.039.047-.124.09-.255.127a4.286 4.286 0 01-.448.097 19.068 19.068 0 01-.872.116 3.36 3.36 0 00-.664.15 1.146 1.146 0 00-.495.305c-.124.134-.185.316-.185.547 0 .317.117.555.351.718.237.16.537.238.9.238zm5.154-2.884v3.563h-.911v-5.923h.88v.925h.077c.14-.3.35-.542.633-.724.284-.186.65-.278 1.097-.278.402 0 .753.082 1.055.247.3.162.535.409.702.74.168.33.252.745.252 1.25v3.763h-.912v-3.701c0-.466-.12-.829-.363-1.088-.242-.262-.574-.393-.997-.393-.29 0-.55.063-.78.188-.226.127-.405.31-.536.552-.131.242-.197.535-.197.88zm7.86 3.687c-.557 0-1.035-.13-1.437-.394a2.56 2.56 0 01-.927-1.083c-.216-.46-.324-.986-.324-1.577 0-.602.11-1.133.331-1.593.225-.463.536-.824.935-1.084.401-.262.87-.393 1.406-.393.417 0 .793.077 1.127.231.335.155.61.37.823.648.213.278.346.602.397.972h-.91a1.418 1.418 0 00-.464-.718c-.237-.21-.556-.315-.958-.315-.355 0-.666.092-.934.277a1.805 1.805 0 00-.622.775c-.147.332-.22.722-.22 1.169 0 .457.072.856.216 1.195.146.34.352.603.618.791a1.6 1.6 0 00.942.282c.237 0 .452-.041.645-.124a1.33 1.33 0 00.776-.91h.911a2.1 2.1 0 01-1.18 1.608 2.59 2.59 0 01-1.152.243zm6.15 0c-.571 0-1.064-.126-1.478-.378a2.53 2.53 0 01-.954-1.064c-.221-.458-.333-.99-.333-1.597s.112-1.142.333-1.604a2.61 2.61 0 01.934-1.088c.402-.262.87-.393 1.406-.393.308 0 .614.051.915.154.301.103.576.27.823.502.247.228.444.532.59.91.147.377.22.843.22 1.396v.385h-4.572v-.786h3.646a1.95 1.95 0 00-.201-.895 1.508 1.508 0 00-.564-.621 1.575 1.575 0 00-.857-.227c-.363 0-.677.09-.943.27a1.773 1.773 0 00-.606.693 2.043 2.043 0 00-.212.919v.524c0 .448.077.826.232 1.138.157.308.374.544.652.705.278.16.601.24.97.24.239 0 .455-.034.648-.101a1.4 1.4 0 00.506-.308c.142-.139.251-.311.328-.517l.881.247a1.96 1.96 0 01-.468.787 2.28 2.28 0 01-.81.524 3.012 3.012 0 01-1.085.185zm6.082 0a2.33 2.33 0 01-1.309-.374 2.524 2.524 0 01-.888-1.065c-.214-.46-.32-1.003-.32-1.63 0-.623.106-1.163.32-1.62.213-.458.51-.812.892-1.061.38-.25.821-.374 1.32-.374.387 0 .692.064.916.193.226.126.399.27.518.432.12.159.214.29.282.393h.076v-2.916h.912v7.898h-.88v-.91h-.108a6.115 6.115 0 01-.286.41c-.124.161-.3.306-.53.435-.228.126-.534.19-.915.19zm.124-.817c.365 0 .675-.096.927-.286.252-.193.443-.459.575-.798.131-.342.197-.737.197-1.184 0-.443-.064-.83-.193-1.16a1.688 1.688 0 00-.572-.78c-.252-.187-.563-.281-.934-.281-.386 0-.708.098-.966.296a1.772 1.772 0 00-.575.799 3.17 3.17 0 00-.19 1.126c0 .422.065.805.194 1.15.132.341.324.614.579.817.258.2.577.3.958.3zm9.858.817c-.556 0-1.034-.13-1.436-.394a2.56 2.56 0 01-.927-1.083c-.216-.46-.324-.986-.324-1.577 0-.602.11-1.133.331-1.593.225-.463.536-.824.935-1.084.401-.262.87-.393 1.406-.393.417 0 .793.077 1.127.231.335.155.61.37.823.648.214.278.346.602.398.972h-.911a1.417 1.417 0 00-.464-.718c-.237-.21-.556-.315-.958-.315-.355 0-.666.092-.934.277a1.812 1.812 0 00-.622.775c-.147.332-.22.722-.22 1.169 0 .457.072.856.216 1.195.147.34.353.603.618.791a1.6 1.6 0 00.942.282c.237 0 .452-.041.645-.124a1.33 1.33 0 00.777-.91h.91a2.1 2.1 0 01-1.18 1.608c-.33.162-.715.243-1.152.243zm5.41.015a2.4 2.4 0 01-1.023-.212 1.755 1.755 0 01-.73-.62c-.18-.273-.27-.602-.27-.988 0-.34.066-.614.2-.825.134-.213.313-.38.537-.501.224-.121.471-.211.741-.27.274-.062.548-.111.823-.147.36-.046.652-.081.877-.104.227-.026.391-.068.494-.128.105-.059.158-.161.158-.308v-.03c0-.382-.104-.677-.313-.888-.206-.21-.519-.316-.938-.316-.435 0-.776.095-1.023.286-.247.19-.42.393-.521.609l-.865-.31c.154-.359.36-.64.617-.84a2.31 2.31 0 01.85-.424c.309-.082.613-.123.911-.123.191 0 .41.023.657.07.25.043.49.134.722.273.234.139.428.348.583.628.154.281.231.657.231 1.127v3.902h-.91v-.802h-.047a1.597 1.597 0 01-.309.413 1.794 1.794 0 01-.575.374c-.24.103-.532.154-.877.154zm.139-.818c.36 0 .664-.07.912-.211a1.444 1.444 0 00.756-1.254v-.833c-.039.047-.123.09-.254.127a4.287 4.287 0 01-.449.097 19.072 19.072 0 01-.872.116c-.237.03-.458.08-.665.15a1.148 1.148 0 00-.494.305c-.123.134-.185.316-.185.547 0 .317.117.555.352.718.236.16.536.238.899.238zm4.243 2.9v-8.144h.88v.94h.109c.067-.102.159-.233.278-.392a1.62 1.62 0 01.517-.432c.226-.13.533-.193.919-.193.5 0 .94.124 1.32.374.382.25.68.603.893 1.06.213.458.32.998.32 1.62 0 .628-.107 1.171-.32 1.631-.214.458-.51.813-.889 1.065-.378.25-.815.374-1.308.374-.382 0-.686-.063-.915-.189a1.695 1.695 0 01-.53-.436 5.583 5.583 0 01-.285-.409h-.078v3.132zm.896-5.182c0 .447.066.842.197 1.184.131.34.323.605.575.798.252.19.561.286.927.286.38 0 .699-.101.954-.301.257-.203.45-.476.58-.818a3.23 3.23 0 00.196-1.15 3.12 3.12 0 00-.193-1.125 1.745 1.745 0 00-.575-.799c-.255-.198-.576-.296-.962-.296-.37 0-.682.094-.934.28a1.693 1.693 0 00-.572.78 3.19 3.19 0 00-.193 1.16zm7.475 3.1c-.375 0-.717-.07-1.023-.212a1.76 1.76 0 01-.73-.62c-.18-.273-.27-.602-.27-.988 0-.34.068-.614.201-.825.134-.213.313-.38.537-.501.224-.121.47-.211.74-.27.274-.062.548-.111.823-.147.36-.046.654-.081.877-.104.227-.026.392-.068.494-.128.106-.059.159-.161.159-.308v-.03c0-.382-.104-.677-.313-.888-.206-.21-.518-.316-.939-.316-.435 0-.775.095-1.022.286-.247.19-.421.393-.522.609l-.865-.31c.155-.359.36-.64.618-.84.26-.202.543-.344.85-.424.308-.082.612-.123.911-.123.19 0 .41.023.656.07.25.043.49.134.723.273.234.139.428.348.582.628.155.281.233.657.233 1.127v3.902h-.912v-.802h-.046a1.62 1.62 0 01-.31.413 1.794 1.794 0 01-.575.374c-.239.103-.531.154-.877.154zm.14-.818c.36 0 .664-.07.911-.211.25-.141.437-.325.564-.548a1.4 1.4 0 00.193-.706v-.833c-.038.047-.124.09-.255.127a4.285 4.285 0 01-.448.097 19.063 19.063 0 01-.872.116c-.237.03-.459.08-.665.15a1.146 1.146 0 00-.494.305c-.124.134-.185.316-.185.547 0 .317.116.555.35.718.238.16.538.238.9.238zm4.366.68v-7.899h.911v2.916h.078a6.97 6.97 0 01.278-.393c.12-.163.293-.306.517-.432.227-.13.533-.193.919-.193.5 0 .94.124 1.321.374.38.25.678.603.892 1.06.213.458.32.998.32 1.62 0 .628-.107 1.171-.32 1.631-.214.458-.51.813-.888 1.065-.38.25-.815.374-1.31.374-.38 0-.685-.063-.915-.189a1.695 1.695 0 01-.528-.436 5.843 5.843 0 01-.286-.409h-.108v.91zm.896-2.962c0 .447.066.842.197 1.184.131.34.323.605.575.798.253.19.561.286.927.286.381 0 .699-.101.954-.301.258-.203.45-.476.58-.818a3.23 3.23 0 00.196-1.15c0-.416-.064-.791-.193-1.125a1.74 1.74 0 00-.576-.799c-.254-.198-.575-.296-.961-.296-.37 0-.682.094-.934.28a1.693 1.693 0 00-.572.78 3.19 3.19 0 00-.193 1.16zm5.735 2.961v-5.923h.91v5.923zm.463-6.91a.648.648 0 01-.46-.181.58.58 0 01-.189-.436.58.58 0 01.19-.436.645.645 0 01.459-.182.63.63 0 01.455.182.576.576 0 01.193.436c0 .17-.064.315-.193.436a.638.638 0 01-.455.18zm3.028-.988v7.898h-.911v-7.898zm1.669 7.898v-5.923h.912v5.923zm.464-6.91a.651.651 0 01-.46-.181.583.583 0 01-.189-.436c0-.17.063-.315.189-.436a.649.649 0 01.46-.182.63.63 0 01.455.182.577.577 0 01.193.436c0 .17-.064.315-.193.436a.636.636 0 01-.455.18zm4.696.987v.771h-3.074v-.771zm-2.177-1.42h.91v5.647c0 .257.038.45.112.578.077.126.175.21.294.255.121.041.249.061.382.061a1.55 1.55 0 00.402-.046l.185.818a1.893 1.893 0 01-.258.069 1.889 1.889 0 01-.421.039c-.258 0-.51-.055-.758-.166a1.497 1.497 0 01-.61-.505c-.16-.227-.238-.512-.238-.857zm3.548 7.343v-5.923h.911v5.923zm.463-6.91a.651.651 0 01-.46-.181.583.583 0 01-.188-.436c0-.17.063-.315.188-.436a.649.649 0 01.46-.182c.178 0 .33.06.456.182a.578.578 0 01.193.436.58.58 0 01-.193.436.638.638 0 01-.456.18zm4.604 7.034c-.571 0-1.064-.126-1.48-.378a2.54 2.54 0 01-.953-1.064c-.221-.458-.332-.99-.332-1.597s.11-1.142.332-1.604c.225-.465.536-.828.935-1.088.402-.262.87-.393 1.405-.393.31 0 .615.051.916.154.3.103.575.27.823.502a2.4 2.4 0 01.59.91c.147.377.22.843.22 1.396v.385h-4.572v-.786h3.645c0-.335-.067-.633-.2-.895a1.508 1.508 0 00-.564-.621 1.578 1.578 0 00-.858-.227c-.362 0-.676.09-.942.27a1.773 1.773 0 00-.606.693 2.033 2.033 0 00-.213.919v.524c0 .448.078.826.232 1.138.158.308.375.544.653.705.278.16.601.24.97.24.239 0 .455-.034.648-.101a1.4 1.4 0 00.506-.308c.141-.139.25-.311.328-.517l.88.247c-.092.298-.248.56-.467.787a2.291 2.291 0 01-.81.524 3.014 3.014 0 01-1.086.185zm8.044-4.72l-.819.231a1.522 1.522 0 00-.228-.398 1.1 1.1 0 00-.402-.323c-.17-.085-.387-.127-.652-.127-.363 0-.666.083-.907.25-.24.165-.36.374-.36.629a.65.65 0 00.247.536c.166.13.423.24.773.328l.88.215c.53.13.926.326 1.186.59.26.263.39.601.39 1.015 0 .34-.098.643-.294.91a1.949 1.949 0 01-.81.632c-.349.155-.752.232-1.213.232-.605 0-1.106-.13-1.502-.394-.397-.262-.648-.644-.754-1.149l.866-.216c.082.319.238.559.467.718.232.16.534.238.908.238.424 0 .761-.09 1.01-.27.253-.182.38-.4.38-.655a.688.688 0 00-.217-.517c-.144-.14-.365-.246-.664-.316l-.989-.231c-.543-.129-.942-.328-1.197-.598-.252-.273-.378-.613-.378-1.022 0-.334.094-.63.282-.887a1.91 1.91 0 01.776-.605c.33-.147.703-.22 1.12-.22.587 0 1.048.128 1.383.386.337.256.576.596.718 1.017zm-169.09 20.886l-1.807-5.923h.958l1.282 4.535h.062l1.267-4.535h.973l1.25 4.52h.063l1.282-4.52h.957l-1.807 5.923h-.896l-1.297-4.55h-.093l-1.297 4.55zm7.492 0v-5.923h.911v5.923zm.463-6.91a.65.65 0 01-.46-.182.582.582 0 01-.188-.435c0-.17.063-.315.189-.436.129-.121.282-.182.46-.182s.329.06.455.182a.577.577 0 01.193.436c0 .17-.064.314-.193.435a.637.637 0 01-.456.181zm4.697.987v.77h-3.074v-.77zm-2.178-1.42h.911v5.646c0 .257.038.45.112.58.078.125.175.21.294.254.12.04.248.06.382.06a1.544 1.544 0 00.402-.045l.185.818a1.866 1.866 0 01-.259.069c-.11.025-.25.038-.42.038a1.83 1.83 0 01-.757-.166 1.497 1.497 0 01-.61-.504c-.16-.227-.24-.512-.24-.857zm4.587 3.78v3.563h-.91v-7.898h.91v2.9h.078c.139-.306.347-.548.625-.728.28-.183.654-.274 1.12-.274.404 0 .758.08 1.062.243.304.159.54.405.707.736.17.33.255.748.255 1.257v3.764h-.912v-3.702c0-.47-.122-.834-.367-1.091-.242-.26-.578-.39-1.007-.39-.3 0-.567.063-.804.189-.234.126-.42.31-.556.551-.134.243-.2.536-.2.88zm9.483 0v3.563h-.911v-5.923h.88v.925h.078c.139-.3.35-.542.633-.724.283-.186.649-.278 1.097-.278.401 0 .753.082 1.054.247.301.162.535.408.703.74.167.33.25.745.25 1.25v3.763h-.91v-3.702c0-.465-.122-.828-.364-1.087-.242-.262-.574-.394-.996-.394-.29 0-.55.063-.78.189-.226.126-.405.31-.537.551-.131.243-.197.536-.197.88zm7.86 3.687c-.536 0-1.006-.127-1.41-.382a2.593 2.593 0 01-.942-1.069c-.224-.457-.336-.992-.336-1.604 0-.616.112-1.155.336-1.615.226-.46.54-.818.942-1.072.404-.255.874-.382 1.41-.382.535 0 1.003.127 1.405.382.404.254.718.612.942 1.072.227.46.34.999.34 1.615 0 .612-.113 1.147-.34 1.604a2.558 2.558 0 01-.942 1.069c-.402.255-.87.382-1.406.382zm0-.818c.406 0 .74-.104 1.003-.312.263-.209.457-.483.584-.822.126-.34.189-.707.189-1.103 0-.395-.063-.764-.19-1.107a1.866 1.866 0 00-.583-.829c-.262-.21-.597-.316-1.004-.316-.406 0-.74.105-1.004.316a1.866 1.866 0 00-.583.83c-.126.342-.189.71-.189 1.106 0 .396.063.764.19 1.103.126.34.32.613.582.822.263.208.598.312 1.004.312zm7.136.694v-5.923h.912v5.923zm.464-6.91a.65.65 0 01-.46-.182.582.582 0 01-.189-.435.58.58 0 01.19-.436.648.648 0 01.459-.182c.177 0 .33.06.456.182a.577.577 0 01.193.436c0 .17-.065.314-.193.435a.637.637 0 01-.456.181zm3.028 3.347v3.563h-.911v-5.923h.88v.925h.078c.139-.3.35-.542.633-.724.283-.186.649-.278 1.096-.278.402 0 .753.082 1.055.247.301.162.535.408.703.74.167.33.25.745.25 1.25v3.763h-.91v-3.702c0-.465-.122-.828-.364-1.087-.242-.262-.574-.394-.996-.394-.291 0-.551.063-.78.189-.227.126-.406.31-.537.551-.131.243-.197.536-.197.88zm5.45 3.563v-5.923h.91v5.923zm.463-6.91a.651.651 0 01-.46-.182.58.58 0 01-.189-.435.58.58 0 01.19-.436.649.649 0 01.46-.182.63.63 0 01.455.182.576.576 0 01.193.436c0 .17-.064.314-.193.435a.636.636 0 01-.456.181zm4.696.987v.77h-3.073v-.77zm-2.177-1.42h.911v5.646c0 .257.038.45.112.58a.58.58 0 00.294.254c.12.04.248.06.382.06a1.545 1.545 0 00.402-.045l.185.818a1.88 1.88 0 01-.26.069 1.91 1.91 0 01-.42.038 1.83 1.83 0 01-.757-.166 1.491 1.491 0 01-.61-.504c-.16-.227-.24-.512-.24-.857zm3.548 7.343v-5.923h.912v5.923zm.464-6.91a.651.651 0 01-.46-.182.583.583 0 01-.189-.435.58.58 0 01.19-.436c.128-.121.281-.182.459-.182s.33.06.456.182a.578.578 0 01.193.436c0 .17-.065.314-.193.435a.638.638 0 01-.456.181zm3.863 7.049a2.42 2.42 0 01-1.024-.212 1.758 1.758 0 01-.73-.62c-.18-.274-.27-.602-.27-.988 0-.34.067-.614.2-.825.134-.214.314-.381.537-.501a2.82 2.82 0 01.742-.27c.273-.062.547-.111.823-.147a37.1 37.1 0 01.876-.105c.226-.025.391-.067.494-.127.106-.059.159-.161.159-.308v-.03c0-.382-.105-.677-.313-.888-.206-.21-.519-.316-.938-.316-.435 0-.777.095-1.024.285-.247.19-.421.394-.521.61l-.865-.31c.154-.36.36-.64.618-.84.26-.203.543-.345.85-.424a3.53 3.53 0 01.91-.123c.19 0 .41.022.657.069.25.043.49.135.722.274.234.139.429.348.583.628.154.28.232.656.232 1.126v3.903h-.911v-.802h-.047a1.602 1.602 0 01-.309.413 1.777 1.777 0 01-.575.374c-.24.103-.532.154-.876.154zm.139-.818c.36 0 .664-.07.91-.212a1.44 1.44 0 00.758-1.253v-.833c-.039.046-.124.089-.256.127a4.276 4.276 0 01-.447.097 19.123 19.123 0 01-.873.116c-.237.03-.458.08-.664.15a1.138 1.138 0 00-.494.305c-.124.133-.186.316-.186.547 0 .316.118.555.351.717.237.16.537.24.9.24zm5.154-7.22v7.899h-.912v-7.898zm7.137 8.023c-.556 0-1.036-.131-1.437-.394a2.558 2.558 0 01-.927-1.084c-.216-.46-.324-.986-.324-1.577 0-.602.11-1.132.332-1.592.224-.463.535-.825.934-1.084.402-.262.87-.393 1.406-.393.417 0 .793.077 1.127.231.335.154.61.37.823.648.213.277.346.602.397.972h-.91a1.411 1.411 0 00-.464-.718c-.236-.21-.556-.316-.957-.316-.356 0-.667.093-.935.278a1.8 1.8 0 00-.622.775c-.147.331-.22.722-.22 1.168 0 .458.072.857.216 1.196.147.34.353.603.618.79.268.189.582.282.943.282.236 0 .451-.04.644-.124a1.328 1.328 0 00.776-.91h.911a2.1 2.1 0 01-1.18 1.608c-.33.163-.714.244-1.151.244zm6.074 0c-.536 0-1.005-.127-1.41-.382a2.595 2.595 0 01-.942-1.069c-.224-.457-.336-.992-.336-1.604 0-.616.112-1.155.336-1.615.227-.46.54-.818.942-1.072.405-.255.874-.382 1.41-.382.535 0 1.004.127 1.405.382.404.254.718.612.943 1.072.226.46.339.999.339 1.615 0 .612-.113 1.147-.34 1.604a2.563 2.563 0 01-.942 1.069c-.401.255-.87.382-1.405.382zm0-.818c.407 0 .741-.104 1.004-.312.262-.209.457-.483.582-.822.127-.34.19-.707.19-1.103 0-.395-.063-.764-.19-1.107a1.863 1.863 0 00-.582-.829c-.263-.21-.597-.316-1.004-.316-.407 0-.742.105-1.005.316a1.863 1.863 0 00-.582.83 3.15 3.15 0 00-.19 1.106c0 .396.063.764.19 1.103.126.34.32.613.582.822.263.208.598.312 1.005.312zm4.078.694v-5.923h.88v.925h.078a1.48 1.48 0 01.599-.736c.275-.178.605-.266.992-.266.39 0 .717.088.976.266.264.174.468.42.615.736h.062c.151-.306.379-.548.683-.728.304-.183.668-.274 1.093-.274.53 0 .964.165 1.301.497.337.329.506.842.506 1.54v3.963h-.911v-3.964c0-.437-.12-.75-.359-.938a1.337 1.337 0 00-.846-.28c-.417 0-.74.125-.97.377-.228.25-.343.566-.343.949v3.856h-.927v-4.057c0-.337-.11-.608-.328-.814-.219-.208-.5-.312-.845-.312-.237 0-.459.063-.665.189a1.437 1.437 0 00-.494.524 1.548 1.548 0 00-.185.768v3.702zm9.452 0v-5.923h.88v.925h.077c.124-.316.323-.562.598-.736.276-.178.607-.266.993-.266.391 0 .717.088.977.266.263.174.467.42.614.736h.062c.151-.306.38-.548.683-.728.304-.183.668-.274 1.093-.274.53 0 .964.165 1.301.497.337.329.506.842.506 1.54v3.963h-.911v-3.964c0-.437-.12-.75-.36-.938a1.335 1.335 0 00-.845-.28c-.417 0-.74.125-.97.377-.228.25-.343.566-.343.949v3.856h-.927v-4.057c0-.337-.11-.608-.328-.814-.219-.208-.5-.312-.846-.312-.236 0-.458.063-.664.189a1.437 1.437 0 00-.494.524 1.548 1.548 0 00-.185.768v3.702zm9.45 0v-5.923h.912v5.923zm.463-6.91a.65.65 0 01-.459-.182.58.58 0 01-.19-.435.58.58 0 01.19-.436.647.647 0 01.46-.182c.177 0 .33.06.455.182a.576.576 0 01.194.436c0 .17-.065.314-.194.435a.637.637 0 01-.456.181zm4.697.987v.77h-3.073v-.77zm-2.178-1.42h.911v5.646c0 .257.038.45.113.58.077.125.175.21.293.254.121.04.248.06.383.06a1.545 1.545 0 00.401-.045l.185.818a1.834 1.834 0 01-.259.069 1.91 1.91 0 01-.42.038 1.83 1.83 0 01-.757-.166 1.498 1.498 0 01-.61-.504c-.16-.227-.24-.512-.24-.857zm3.549 7.343v-5.923h.88v.925h.078a1.48 1.48 0 01.599-.736c.275-.178.605-.266.991-.266.392 0 .717.088.977.266.263.174.468.42.615.736h.061a1.73 1.73 0 01.684-.728c.303-.183.668-.274 1.093-.274.53 0 .963.165 1.301.497.337.329.506.842.506 1.54v3.963h-.911v-3.964c0-.437-.12-.75-.36-.938a1.334 1.334 0 00-.846-.28c-.417 0-.739.125-.968.377-.23.25-.344.566-.344.949v3.856h-.927v-4.057c0-.337-.11-.608-.328-.814-.219-.208-.5-.312-.846-.312-.236 0-.458.063-.664.189a1.429 1.429 0 00-.494.524 1.549 1.549 0 00-.186.768v3.702zm11.938.124c-.572 0-1.065-.126-1.479-.378a2.53 2.53 0 01-.954-1.065c-.221-.457-.332-.99-.332-1.596 0-.607.11-1.142.332-1.604a2.61 2.61 0 01.935-1.088c.401-.262.87-.393 1.405-.393.309 0 .614.051.915.153.302.104.576.27.823.502.247.23.444.532.591.91.146.378.22.843.22 1.397v.385h-4.573v-.787h3.646c0-.334-.067-.632-.2-.895a1.508 1.508 0 00-.565-.62 1.575 1.575 0 00-.857-.228c-.363 0-.677.09-.942.27a1.769 1.769 0 00-.606.694 2.042 2.042 0 00-.212.918v.525c0 .447.077.826.231 1.138.157.308.375.543.653.705.278.16.6.24.969.24.24 0 .456-.035.648-.101.196-.07.365-.173.506-.308.142-.14.252-.311.329-.518l.88.248c-.093.298-.248.56-.467.786a2.28 2.28 0 01-.811.525 3.011 3.011 0 01-1.085.185zm4.753-3.687v3.563h-.91v-5.923h.88v.925h.077c.139-.3.35-.542.633-.724.283-.186.648-.278 1.097-.278.401 0 .752.082 1.054.247.301.162.536.408.703.74.167.33.25.745.25 1.25v3.763h-.91v-3.702c0-.465-.122-.828-.363-1.087-.243-.262-.574-.394-.997-.394-.291 0-.55.063-.78.189a1.35 1.35 0 00-.536.551c-.132.243-.198.536-.198.88zm8.03-2.36v.77h-3.074v-.77zm-2.179-1.42h.912v5.646c0 .257.037.45.112.58a.58.58 0 00.293.254c.12.04.249.06.383.06a1.545 1.545 0 00.401-.045l.186.818a1.88 1.88 0 01-.26.069c-.11.025-.25.038-.42.038a1.83 1.83 0 01-.757-.166 1.491 1.491 0 01-.61-.504c-.16-.227-.24-.512-.24-.857zm4.213 7.405a.671.671 0 01-.49-.204.668.668 0 01-.204-.49c0-.19.067-.354.204-.49a.669.669 0 01.49-.205.67.67 0 01.49.205c.138.136.205.3.205.49a.722.722 0 01-.347.602.669.669 0 01-.348.092z" fill="#c9cdd6"/></g></svg>