<svg width="240" height="120" viewBox="0 0 240 120" fill="none" xmlns="http://www.w3.org/2000/svg"><g clip-path="url(#clip0_301_21)"><rect width="240" height="120" rx="4" fill="#17224F"/><path d="M220.017 50.908h-80.744c-11.01 0-19.762-8.733-19.762-19.72 0-10.987 8.752-19.72 19.762-19.72h22.021c4.799 0 8.752-3.944 8.752-8.733 0-4.789-3.953-8.733-8.752-8.733L139.273-6c-20.327 0-36.983 16.621-36.983 36.905 0 20.284 16.656 37.189 36.983 37.189h80.461c11.011 0 19.762 8.733 19.762 19.72 0 10.987-8.751 19.72-19.762 19.72H75.751c-4.799 0-8.751 3.944-8.751 8.733 0 4.789 3.952 8.733 8.751 8.733h144.266C240.344 125 257 108.379 257 88.095c0-20.284-16.656-37.187-36.983-37.187z" fill="#233477"/><path d="M16.557 27.364v-1.546h8.123v1.546h-3.147V36h-1.83v-8.636h-3.146zM26.167 36v-7.636h1.8V36h-1.8zm.905-8.72a1.05 1.05 0 01-.736-.284.913.913 0 01-.308-.69c0-.272.102-.503.308-.692a1.04 1.04 0 01.736-.288c.288 0 .533.096.736.288.205.19.308.42.308.691a.913.913 0 01-.308.691 1.038 1.038 0 01-.736.284zm4.545 4.246V36h-1.8v-7.636h1.72v1.297h.09a2.19 2.19 0 01.84-1.019c.388-.252.867-.378 1.437-.378.527 0 .986.113 1.377.338.395.226.7.552.915.98.219.427.326.946.323 1.556V36h-1.8v-4.584c0-.51-.132-.91-.397-1.198-.262-.288-.625-.433-1.09-.433-.314 0-.594.07-.84.21a1.448 1.448 0 00-.571.59c-.136.26-.204.573-.204.94zm7.577 7.338a3.61 3.61 0 01-.681-.06 2.528 2.528 0 01-.493-.13l.418-1.401a2.4 2.4 0 00.701.11.86.86 0 00.542-.195c.159-.122.293-.328.403-.616l.154-.413-2.77-7.795h1.91l1.76 5.767h.08l1.764-5.767h1.914l-3.057 8.56a3.452 3.452 0 01-.567 1.04 2.304 2.304 0 01-.865.666c-.338.156-.743.234-1.213.234zm7.027-13.046h2.257l3.023 7.378h.12l3.022-7.378H56.9V36h-1.77v-6.995h-.094l-2.814 6.965h-1.323l-2.814-6.98h-.094V36h-1.77V25.818zm21.403 3.436h-1.86a2.313 2.313 0 00-.293-.81 2.182 2.182 0 00-1.258-.98 2.83 2.83 0 00-.87-.13c-.553 0-1.044.14-1.471.418-.428.275-.763.68-1.005 1.213-.242.53-.363 1.178-.363 1.944 0 .779.121 1.435.363 1.969.246.53.58.931 1.005 1.203a2.7 2.7 0 001.466.403c.305 0 .59-.04.855-.12a2.34 2.34 0 00.721-.363 2.215 2.215 0 00.85-1.382l1.86.01a4 4 0 01-.453 1.363 4.018 4.018 0 01-.9 1.123 4.15 4.15 0 01-1.302.756 4.858 4.858 0 01-1.656.268c-.895 0-1.693-.207-2.396-.621-.703-.415-1.256-1.013-1.66-1.795-.405-.782-.607-1.72-.607-2.814 0-1.097.204-2.035.611-2.814.408-.782.963-1.38 1.666-1.795.703-.414 1.498-.621 2.386-.621.567 0 1.094.08 1.581.239.488.159.922.392 1.303.7.381.306.694.68.94 1.124.248.441.41.945.487 1.512zM69.313 36V25.818h6.622v1.546h-4.778v2.765h4.435v1.546h-4.435v2.779h4.818V36h-6.662zm11.976 0V25.818h3.819c.782 0 1.438.136 1.968.408.534.272.937.653 1.208 1.143.275.488.413 1.056.413 1.706 0 .652-.14 1.22-.418 1.7-.275.477-.68.847-1.218 1.109-.537.258-1.196.387-1.978.387h-2.72v-1.53h2.471c.457 0 .832-.064 1.124-.19.291-.13.507-.316.646-.562.143-.248.214-.553.214-.914 0-.362-.071-.67-.214-.925a1.36 1.36 0 00-.651-.587c-.292-.136-.668-.204-1.129-.204h-1.69V36h-1.845zm5.26-4.614L89.07 36h-2.058l-2.476-4.614h2.013zm6.988 4.763c-.746 0-1.392-.164-1.939-.492a3.342 3.342 0 01-1.273-1.377c-.298-.59-.447-1.28-.447-2.068 0-.79.149-1.48.447-2.074a3.335 3.335 0 011.273-1.382c.547-.328 1.193-.492 1.939-.492s1.392.164 1.939.492c.547.328.97.79 1.268 1.383.301.593.452 1.284.452 2.073 0 .788-.15 1.478-.452 2.068a3.31 3.31 0 01-1.268 1.377c-.547.328-1.193.492-1.94.492zm.01-1.442c.404 0 .742-.11 1.014-.333.272-.225.474-.527.607-.905a3.71 3.71 0 00.203-1.262c0-.468-.067-.89-.203-1.268a2.007 2.007 0 00-.607-.91c-.272-.225-.61-.338-1.014-.338-.414 0-.76.113-1.034.338a2.041 2.041 0 00-.612.91 3.81 3.81 0 00-.199 1.268c0 .464.067.885.2 1.262.135.378.339.68.61.905.276.222.62.333 1.035.333zm7.374 1.447c-.484 0-.92-.086-1.308-.258a2.134 2.134 0 01-.914-.776c-.222-.341-.333-.762-.333-1.263 0-.43.08-.787.238-1.069a1.86 1.86 0 01.651-.676c.276-.169.586-.296.93-.383a7.57 7.57 0 011.079-.194c.447-.046.81-.087 1.089-.124.278-.04.48-.1.606-.179.13-.083.194-.21.194-.383v-.03c0-.374-.111-.664-.333-.87-.222-.205-.542-.308-.959-.308-.441 0-.791.097-1.049.289a1.423 1.423 0 00-.517.68l-1.68-.238a2.67 2.67 0 01.655-1.163c.305-.315.678-.55 1.119-.706a4.283 4.283 0 011.462-.239c.368 0 .734.043 1.098.13.365.086.698.228 1 .427.301.196.543.462.726.8.185.338.278.761.278 1.268V36h-1.73v-1.049h-.06a2.186 2.186 0 01-.462.597c-.196.182-.443.33-.741.442a2.97 2.97 0 01-1.039.164zm.467-1.322c.362 0 .675-.072.94-.214.265-.146.469-.338.611-.577.146-.238.219-.499.219-.78v-.9a.84.84 0 01-.288.13 4.103 4.103 0 01-.448.103c-.165.03-.329.057-.492.08l-.422.06a3.135 3.135 0 00-.721.179c-.212.083-.38.199-.502.348-.123.145-.184.334-.184.566 0 .332.121.582.363.751.242.17.55.254.924.254zm8.208 1.302a2.89 2.89 0 01-1.61-.462c-.474-.308-.849-.756-1.124-1.342-.275-.587-.413-1.3-.413-2.138 0-.849.14-1.565.418-2.148.282-.587.661-1.03 1.139-1.327a2.924 2.924 0 011.595-.453c.448 0 .816.076 1.104.229.288.149.517.33.686.542.169.209.3.406.393.591h.074v-3.808h1.805V36h-1.77v-1.203h-.109a3.071 3.071 0 01-.403.592 2.2 2.2 0 01-.696.526c-.288.146-.651.22-1.089.22zm.503-1.476c.381 0 .706-.103.974-.309.268-.208.472-.498.611-.87.14-.37.209-.803.209-1.297 0-.494-.069-.923-.209-1.288a1.83 1.83 0 00-.606-.85c-.265-.202-.592-.303-.979-.303-.401 0-.736.104-1.005.313a1.9 1.9 0 00-.606.865 3.628 3.628 0 00-.204 1.263c0 .477.068.903.204 1.277.139.372.343.665.611.88.272.213.605.319 1 .319zM115.581 36v-7.636h1.72v1.297h.09c.159-.437.422-.779.79-1.024.368-.248.807-.373 1.318-.373.517 0 .952.126 1.307.378.358.249.61.588.756 1.02h.079c.169-.425.454-.763.855-1.015.405-.255.884-.383 1.437-.383.703 0 1.276.222 1.72.666.445.445.667 1.093.667 1.944V36h-1.805v-4.847c0-.474-.126-.82-.378-1.04a1.35 1.35 0 00-.925-.332c-.434 0-.774.135-1.019.407-.242.269-.363.618-.363 1.05V36h-1.765v-4.922c0-.394-.119-.71-.358-.944-.235-.236-.543-.354-.924-.354-.259 0-.494.067-.706.2a1.388 1.388 0 00-.507.551c-.126.236-.189.51-.189.826V36h-1.8zm14.762.154a3.19 3.19 0 01-1.308-.258 2.132 2.132 0 01-.914-.776c-.223-.341-.334-.762-.334-1.263 0-.43.08-.787.239-1.069.159-.281.376-.507.651-.676.275-.169.585-.296.93-.383a7.57 7.57 0 011.079-.194c.447-.046.81-.087 1.089-.124.278-.04.48-.1.606-.179.129-.083.194-.21.194-.383v-.03c0-.374-.111-.664-.333-.87-.222-.205-.542-.308-.96-.308-.44 0-.79.097-1.049.289a1.435 1.435 0 00-.517.68l-1.68-.238c.133-.464.351-.852.656-1.163.305-.315.678-.55 1.119-.706a4.283 4.283 0 011.462-.239c.367 0 .734.043 1.098.13.365.086.698.228 1 .427.301.196.543.462.725.8.186.338.279.761.279 1.268V36h-1.73v-1.049h-.06a2.186 2.186 0 01-.462.597c-.196.182-.443.33-.741.442a2.97 2.97 0 01-1.039.164zm.467-1.322c.361 0 .675-.072.94-.214.265-.146.469-.338.611-.577.146-.238.219-.499.219-.78v-.9a.84.84 0 01-.288.13 4.103 4.103 0 01-.448.103c-.165.03-.329.057-.492.08l-.422.06a3.135 3.135 0 00-.721.179c-.212.083-.38.199-.503.348-.122.145-.183.334-.183.566 0 .332.121.582.362.751.242.17.551.254.925.254zm5.374 4.032v-10.5h1.77v1.262h.105c.093-.185.223-.382.393-.591.169-.212.397-.393.686-.542.288-.153.656-.229 1.103-.229.59 0 1.122.151 1.596.453.477.298.855.74 1.134 1.327.281.583.422 1.3.422 2.148 0 .838-.137 1.55-.412 2.138-.275.586-.65 1.034-1.124 1.342a2.89 2.89 0 01-1.611.462c-.437 0-.8-.073-1.089-.218a2.224 2.224 0 01-.696-.527 3.418 3.418 0 01-.402-.592h-.075v4.067h-1.8zm1.765-6.682c0 .494.07.926.209 1.297.143.372.347.662.612.87.268.206.593.309.974.309.398 0 .731-.106.999-.319a1.96 1.96 0 00.607-.88c.139-.374.209-.8.209-1.277a3.63 3.63 0 00-.204-1.263 1.894 1.894 0 00-.607-.865c-.268-.209-.603-.313-1.004-.313-.384 0-.711.1-.979.303-.269.202-.473.486-.612.85-.136.365-.204.794-.204 1.288zM22.498 58.19c0 .48-.122.906-.366 1.278-.24.368-.588.658-1.044.87-.456.208-1.012.312-1.668.312-.632 0-1.196-.096-1.692-.288a3.741 3.741 0 01-1.266-.792l.678-.762c.288.268.618.48.99.636.372.156.806.234 1.302.234.324 0 .624-.052.9-.156.28-.108.504-.268.672-.48.172-.216.258-.486.258-.81a1.3 1.3 0 00-.156-.66c-.1-.18-.278-.34-.534-.48-.256-.14-.614-.278-1.074-.414a8.68 8.68 0 01-1.44-.558c-.396-.208-.7-.462-.912-.762-.208-.3-.312-.668-.312-1.104 0-.428.118-.804.354-1.128.236-.328.56-.584.972-.768.416-.184.89-.276 1.422-.276.58 0 1.086.084 1.518.252.436.164.828.402 1.176.714l-.66.744a2.762 2.762 0 00-.948-.564c-.34-.12-.684-.18-1.032-.18-.292 0-.558.044-.798.132-.24.084-.432.21-.576.378-.14.168-.21.382-.21.642 0 .228.062.424.186.588.124.16.334.31.63.45.296.136.698.28 1.206.432.444.128.85.288 1.218.48s.66.45.876.774c.22.32.33.742.33 1.266zm2.873-.462c.024.464.118.844.282 1.14.164.292.378.508.642.648.264.136.556.204.876.204.316 0 .606-.048.87-.144a3.7 3.7 0 00.804-.42l.522.726a3.58 3.58 0 01-2.232.768c-.632 0-1.17-.138-1.614-.414a2.702 2.702 0 01-1.008-1.164c-.228-.496-.342-1.072-.342-1.728 0-.636.114-1.204.342-1.704.232-.5.558-.894.978-1.182.42-.288.92-.432 1.5-.432.544 0 1.012.126 1.404.378.396.252.7.612.912 1.08.212.464.318 1.02.318 1.668 0 .108-.002.212-.006.312s-.01.188-.018.264h-4.23zm1.632-2.802c-.448 0-.822.16-1.122.48-.296.32-.466.814-.51 1.482h3.144c-.012-.64-.152-1.126-.42-1.458-.264-.336-.628-.504-1.092-.504zm5.664 2.802c.024.464.118.844.282 1.14.164.292.378.508.642.648.264.136.556.204.876.204.316 0 .606-.048.87-.144a3.7 3.7 0 00.804-.42l.522.726a3.58 3.58 0 01-2.232.768c-.632 0-1.17-.138-1.614-.414a2.702 2.702 0 01-1.008-1.164c-.228-.496-.342-1.072-.342-1.728 0-.636.114-1.204.342-1.704.232-.5.558-.894.978-1.182.42-.288.92-.432 1.5-.432.544 0 1.012.126 1.404.378.396.252.7.612.912 1.08.212.464.318 1.02.318 1.668 0 .108-.002.212-.006.312s-.01.188-.018.264h-4.23zm1.632-2.802c-.448 0-.822.16-1.122.48-.296.32-.466.814-.51 1.482h3.144c-.012-.64-.152-1.126-.42-1.458-.264-.336-.628-.504-1.092-.504zM51.127 60.5h-1.536l-.774-4.578-.834 4.578h-1.5l-1.122-6.324h1.146l.744 5.61.954-4.806h1.26l.894 4.806.744-5.61h1.098L51.127 60.5zm3.648-8.982v3.48c.252-.324.554-.566.906-.726a2.572 2.572 0 011.086-.246c.608 0 1.056.166 1.344.498.288.328.432.786.432 1.374V60.5H57.39V56c0-.38-.082-.654-.246-.822-.16-.172-.416-.258-.768-.258-.224 0-.438.05-.642.15-.2.1-.382.228-.546.384-.164.152-.302.31-.414.474V60.5h-1.152v-8.856l1.152-.126zm10.805 7.53c0 .252.04.436.12.552a.72.72 0 00.378.252l-.27.792a1.778 1.778 0 01-.75-.258c-.212-.136-.37-.344-.474-.624a2.189 2.189 0 01-.864.666 2.867 2.867 0 01-1.134.222c-.636 0-1.138-.18-1.506-.54-.368-.36-.552-.834-.552-1.422 0-.66.256-1.166.768-1.518.516-.352 1.256-.528 2.22-.528h.918v-.48c0-.436-.13-.746-.39-.93-.256-.184-.614-.276-1.074-.276-.208 0-.456.026-.744.078a6.19 6.19 0 00-.918.246l-.294-.84a6.39 6.39 0 011.122-.318c.36-.064.696-.096 1.008-.096.816 0 1.426.186 1.83.558.404.368.606.874.606 1.518v2.946zm-2.67.738c.296 0 .58-.076.852-.228.272-.152.496-.364.672-.636v-1.53h-.84c-.668 0-1.142.114-1.422.342-.28.224-.42.532-.42.924 0 .368.096.648.288.84.192.192.482.288.87.288zm10.44.39a2.84 2.84 0 01-.81.342 3.52 3.52 0 01-.949.132c-.704 0-1.244-.184-1.62-.552-.372-.368-.558-.846-.558-1.434V55.04H67.98v-.864h1.434v-1.428l1.152-.138v1.566h2.16l-.132.864h-2.028v3.612c0 .348.088.61.264.786.18.176.478.264.894.264.236 0 .452-.028.648-.084.196-.056.378-.128.546-.216l.432.774zm4.133-5.388l-.193-3.156h1.344l-.192 3.156h-.96zm7.535 4.944c.46 0 .822-.084 1.086-.252.268-.168.402-.396.402-.684a.976.976 0 00-.108-.474c-.068-.132-.212-.252-.432-.36-.216-.108-.544-.218-.984-.33a6.802 6.802 0 01-1.122-.378 1.874 1.874 0 01-.744-.564c-.172-.232-.258-.532-.258-.9 0-.36.1-.672.3-.936.204-.264.49-.468.858-.612.372-.144.804-.216 1.296-.216.52 0 .972.07 1.356.21.388.136.716.304.984.504l-.492.75a3.598 3.598 0 00-.804-.402 3.005 3.005 0 00-1.02-.156c-.468 0-.802.072-1.002.216a.654.654 0 00-.294.558c0 .172.048.316.144.432.1.112.27.216.51.312s.572.202.996.318c.412.112.772.244 1.08.396.308.152.546.352.714.6.172.244.258.566.258.966 0 .452-.13.82-.39 1.104a2.3 2.3 0 01-1.014.618 4.301 4.301 0 01-1.32.198c-.576 0-1.072-.084-1.488-.252a3.68 3.68 0 01-1.038-.618l.636-.732c.248.204.532.37.852.498.32.124.666.186 1.038.186zm15.316-.054c.308 0 .594-.052.858-.156.268-.104.518-.236.75-.396l.552.75c-.276.236-.61.424-1.002.564-.392.14-.784.21-1.176.21-.636 0-1.18-.136-1.632-.408a2.645 2.645 0 01-1.026-1.146c-.236-.492-.354-1.068-.354-1.728 0-.64.118-1.212.354-1.716.24-.504.586-.9 1.038-1.188.452-.292.998-.438 1.638-.438.416 0 .802.064 1.158.192.36.124.69.308.99.552l-.546.75a3.282 3.282 0 00-.786-.408 2.353 2.353 0 00-.81-.144c-.528 0-.96.196-1.296.588-.336.392-.504.996-.504 1.812 0 .544.076.986.228 1.326.156.34.37.59.642.75.272.156.58.234.924.234zm6.822-5.652c.604 0 1.11.136 1.518.408.412.272.722.656.93 1.152.212.492.318 1.074.318 1.746 0 .652-.108 1.228-.324 1.728a2.646 2.646 0 01-.936 1.17c-.412.28-.918.42-1.518.42s-1.108-.136-1.524-.408a2.531 2.531 0 01-.936-1.152c-.212-.496-.318-1.078-.318-1.746 0-.656.106-1.232.318-1.728.216-.5.532-.89.948-1.17.416-.28.924-.42 1.524-.42zm0 .918c-.52 0-.912.196-1.176.588-.264.388-.396.992-.396 1.812 0 .812.13 1.414.39 1.806.26.388.65.582 1.17.582.52 0 .91-.194 1.17-.582.26-.392.39-.998.39-1.818 0-.816-.13-1.418-.39-1.806-.256-.388-.642-.582-1.158-.582zm9.083-.918c.22 0 .424.048.612.144.188.096.34.272.456.528.116.252.174.618.174 1.098V60.5h-1.05v-4.536c0-.368-.024-.632-.072-.792-.044-.164-.172-.246-.384-.246a.973.973 0 00-.522.162c-.172.108-.342.288-.51.54V60.5h-1.008v-4.536c0-.368-.024-.632-.072-.792-.044-.164-.172-.246-.384-.246a.982.982 0 00-.528.162c-.168.108-.336.288-.504.54V60.5h-1.05v-6.324h.888l.072.708c.176-.248.37-.452.582-.612.216-.164.478-.246.786-.246.24 0 .462.058.666.174.208.116.36.332.456.648.172-.244.368-.442.588-.594a1.38 1.38 0 01.804-.228zm6.353.15v5.448h1.758v.876h-4.836v-.876h1.926v-4.572h-1.866v-.876h3.018zm-.858-3.024c.24 0 .432.074.576.222a.735.735 0 01.222.54.77.77 0 01-.222.558c-.144.148-.336.222-.576.222a.78.78 0 01-.576-.222.781.781 0 01-.216-.558c0-.212.072-.392.216-.54a.78.78 0 01.576-.222zm4.842 9.348v-6.324h.99l.084.852a2.6 2.6 0 01.948-.744 2.68 2.68 0 011.122-.258c.608 0 1.056.166 1.344.498.288.328.432.786.432 1.374V60.5h-1.152v-3.894a5.3 5.3 0 00-.072-.972c-.044-.252-.138-.434-.282-.546-.144-.112-.362-.168-.654-.168-.228 0-.444.05-.648.15a2.29 2.29 0 00-.552.378c-.16.152-.296.31-.408.474V60.5h-1.152zm12.515-7.056l.336 1.02a3.785 3.785 0 01-.852.162c-.3.024-.632.036-.996.036.372.168.652.384.84.648.188.264.282.58.282.948 0 .416-.098.786-.294 1.11a1.98 1.98 0 01-.834.762c-.36.184-.794.276-1.302.276-.2 0-.37-.008-.51-.024-.136-.02-.27-.05-.402-.09a.737.737 0 00-.222.246.686.686 0 00-.084.33c0 .14.056.26.168.36.112.096.33.144.654.144h1.122c.436 0 .824.076 1.164.228a2 2 0 01.81.618c.196.26.294.556.294.888 0 .628-.268 1.11-.804 1.446-.536.34-1.296.51-2.28.51-.696 0-1.244-.072-1.644-.216-.396-.144-.678-.358-.846-.642-.164-.284-.246-.64-.246-1.068h1.038c0 .236.046.43.138.582.092.152.26.266.504.342.244.076.596.114 1.056.114.456 0 .824-.038 1.104-.114.28-.076.486-.188.618-.336a.783.783 0 00.198-.54c0-.28-.126-.494-.378-.642-.252-.148-.574-.222-.966-.222h-1.11c-.568 0-.986-.12-1.254-.36-.264-.244-.396-.524-.396-.84 0-.208.058-.41.174-.606a1.65 1.65 0 01.522-.516c-.368-.196-.64-.436-.816-.72-.172-.284-.258-.63-.258-1.038 0-.436.108-.82.324-1.152.22-.332.524-.592.912-.78.388-.188.834-.282 1.338-.282.524 0 .952-.024 1.284-.072.336-.052.626-.12.87-.204.248-.088.496-.19.744-.306zm-2.892 1.398c-.472 0-.824.132-1.056.396-.232.26-.348.594-.348 1.002 0 .412.118.75.354 1.014.236.26.594.39 1.074.39.424 0 .748-.122.972-.366.224-.248.336-.598.336-1.05 0-.456-.112-.8-.336-1.032-.224-.236-.556-.354-.996-.354zm7.421 3.606c.292 0 .536.098.732.294a.98.98 0 01.294.72c0 .16-.022.322-.066.486-.04.16-.112.35-.216.57l-.954 2.184h-.966l.582-2.4a.995.995 0 01-.306-.36 1.072 1.072 0 01-.114-.486c0-.28.096-.518.288-.714a.986.986 0 01.726-.294zm17.525-4.272l-2.268 6.324h-1.344l-2.256-6.324h1.224l1.734 5.322 1.728-5.322h1.182zm4.373-.15c.604 0 1.11.136 1.518.408.412.272.722.656.93 1.152.212.492.318 1.074.318 1.746 0 .652-.108 1.228-.324 1.728a2.646 2.646 0 01-.936 1.17c-.412.28-.918.42-1.518.42s-1.108-.136-1.524-.408a2.531 2.531 0 01-.936-1.152c-.212-.496-.318-1.078-.318-1.746 0-.656.106-1.232.318-1.728.216-.5.532-.89.948-1.17.416-.28.924-.42 1.524-.42zm0 .918c-.52 0-.912.196-1.176.588-.264.388-.396.992-.396 1.812 0 .812.13 1.414.39 1.806.26.388.65.582 1.17.582.52 0 .91-.194 1.17-.582.26-.392.39-.998.39-1.818 0-.816-.13-1.418-.39-1.806-.256-.388-.642-.582-1.158-.582zm9.966 5.232a2.84 2.84 0 01-.81.342 3.52 3.52 0 01-.948.132c-.704 0-1.244-.184-1.62-.552-.372-.368-.558-.846-.558-1.434V55.04h-1.434v-.864h1.434v-1.428l1.152-.138v1.566h2.16l-.132.864H172.7v3.612c0 .348.088.61.264.786.18.176.478.264.894.264.236 0 .452-.028.648-.084.196-.056.378-.128.546-.216l.432.774zm3.089-2.448c.024.464.118.844.282 1.14.164.292.378.508.642.648.264.136.556.204.876.204.316 0 .606-.048.87-.144a3.7 3.7 0 00.804-.42l.522.726a3.58 3.58 0 01-2.232.768c-.632 0-1.17-.138-1.614-.414a2.702 2.702 0 01-1.008-1.164c-.228-.496-.342-1.072-.342-1.728 0-.636.114-1.204.342-1.704.232-.5.558-.894.978-1.182.42-.288.92-.432 1.5-.432.544 0 1.012.126 1.404.378.396.252.7.612.912 1.08.212.464.318 1.02.318 1.668 0 .108-.002.212-.006.312s-.01.188-.018.264h-4.23zm1.632-2.802c-.448 0-.822.16-1.122.48-.296.32-.466.814-.51 1.482h3.144c-.012-.64-.152-1.126-.42-1.458-.264-.336-.628-.504-1.092-.504zm14.494-.9c.604 0 1.11.136 1.518.408.412.272.722.656.93 1.152.212.492.318 1.074.318 1.746 0 .652-.108 1.228-.324 1.728a2.646 2.646 0 01-.936 1.17c-.412.28-.918.42-1.518.42s-1.108-.136-1.524-.408a2.531 2.531 0 01-.936-1.152c-.212-.496-.318-1.078-.318-1.746 0-.656.106-1.232.318-1.728.216-.5.532-.89.948-1.17.416-.28.924-.42 1.524-.42zm0 .918c-.52 0-.912.196-1.176.588-.264.388-.396.992-.396 1.812 0 .812.13 1.414.39 1.806.26.388.65.582 1.17.582.52 0 .91-.194 1.17-.582.26-.392.39-.998.39-1.818 0-.816-.13-1.418-.39-1.806-.256-.388-.642-.582-1.158-.582zm4.83 5.556v-6.324h.99l.084.852a2.6 2.6 0 01.948-.744 2.68 2.68 0 011.122-.258c.608 0 1.056.166 1.344.498.288.328.432.786.432 1.374V60.5h-1.152v-3.894a5.3 5.3 0 00-.072-.972c-.044-.252-.138-.434-.282-.546-.144-.112-.362-.168-.654-.168-.228 0-.444.05-.648.15a2.29 2.29 0 00-.552.378c-.16.152-.296.31-.408.474V60.5h-1.152zM20.932 67.494c.36 0 .684.032.972.096.288.06.56.146.816.258l-.36.828a3.107 3.107 0 00-.654-.198 3.697 3.697 0 00-.702-.066c-.432 0-.754.084-.966.252-.212.168-.318.426-.318.774v1.212h2.136l-.126.876h-2.01V76.5h-1.146v-4.974h-1.482v-.876h1.482v-1.206c0-.396.1-.74.3-1.032.204-.292.482-.518.834-.678.356-.16.764-.24 1.224-.24zm4.44 6.234c.023.464.117.844.281 1.14.164.292.378.508.642.648.264.136.556.204.876.204.316 0 .606-.048.87-.144a3.7 3.7 0 00.804-.42l.522.726a3.58 3.58 0 01-2.232.768c-.632 0-1.17-.138-1.614-.414a2.702 2.702 0 01-1.008-1.164c-.228-.496-.342-1.072-.342-1.728 0-.636.114-1.204.342-1.704.232-.5.558-.894.978-1.182.42-.288.92-.432 1.5-.432.544 0 1.012.126 1.404.378.396.252.7.612.912 1.08.212.464.318 1.02.318 1.668 0 .108-.002.212-.006.312s-.01.188-.018.264h-4.23zm1.631-2.802c-.448 0-.822.16-1.122.48-.296.32-.466.814-.51 1.482h3.144c-.012-.64-.152-1.126-.42-1.458-.264-.336-.628-.504-1.092-.504zm9.396 4.122c0 .252.04.436.12.552a.72.72 0 00.378.252l-.27.792a1.778 1.778 0 01-.75-.258c-.212-.136-.37-.344-.474-.624a2.189 2.189 0 01-.864.666 2.867 2.867 0 01-1.134.222c-.636 0-1.138-.18-1.506-.54-.368-.36-.552-.834-.552-1.422 0-.66.256-1.166.768-1.518.516-.352 1.256-.528 2.22-.528h.918v-.48c0-.436-.13-.746-.39-.93-.256-.184-.614-.276-1.074-.276-.208 0-.456.026-.744.078a6.19 6.19 0 00-.918.246l-.294-.84a6.39 6.39 0 011.122-.318c.36-.064.696-.096 1.008-.096.816 0 1.426.186 1.83.558.404.368.606.874.606 1.518v2.946zm-2.67.738c.296 0 .58-.076.852-.228.272-.152.496-.364.672-.636v-1.53h-.84c-.668 0-1.142.114-1.422.342-.28.224-.42.532-.42.924 0 .368.096.648.288.84.192.192.482.288.87.288zm10.439.39a2.84 2.84 0 01-.81.342 3.52 3.52 0 01-.948.132c-.704 0-1.244-.184-1.62-.552-.372-.368-.558-.846-.558-1.434V71.04h-1.434v-.864h1.434v-1.428l1.152-.138v1.566h2.16l-.132.864h-2.028v3.612c0 .348.088.61.264.786.18.176.478.264.894.264.236 0 .452-.028.648-.084.196-.056.378-.128.546-.216l.432.774zm3.311-6v4.452c0 .4.082.688.246.864.164.172.414.258.75.258.324 0 .632-.094.924-.282.292-.188.52-.412.684-.672v-4.62h1.152V76.5h-.99l-.084-.834c-.24.316-.542.56-.906.732a2.612 2.612 0 01-1.104.252c-.612 0-1.07-.166-1.374-.498-.3-.332-.45-.792-.45-1.38v-4.596h1.152zm6.204 6.324v-.852h.96v-4.62h-.96v-.852h1.842l.21 1.482c.24-.524.534-.926.882-1.206.352-.284.808-.426 1.368-.426a2.5 2.5 0 01.486.042c.144.028.29.064.438.108l-.342 1.008a2.537 2.537 0 00-.36-.084 2.563 2.563 0 00-.372-.024 1.66 1.66 0 00-1.224.516c-.34.344-.612.85-.816 1.518v2.538h1.284v.852h-3.396zm4.158-4.104v-1.452l.132-.768h.936l-.18 2.22h-.888zm4.007 1.332c.024.464.118.844.282 1.14.164.292.378.508.642.648.264.136.556.204.876.204.316 0 .606-.048.87-.144a3.7 3.7 0 00.804-.42l.522.726a3.58 3.58 0 01-2.232.768c-.632 0-1.17-.138-1.614-.414a2.702 2.702 0 01-1.008-1.164c-.228-.496-.342-1.072-.342-1.728 0-.636.114-1.204.342-1.704.232-.5.558-.894.978-1.182.42-.288.92-.432 1.5-.432.544 0 1.012.126 1.404.378.396.252.7.612.912 1.08.212.464.318 1.02.318 1.668 0 .108-.002.212-.006.312s-.01.188-.018.264h-4.23zm1.632-2.802c-.448 0-.822.16-1.122.48-.296.32-.466.814-.51 1.482h3.144c-.012-.64-.152-1.126-.42-1.458-.264-.336-.628-.504-1.092-.504zm6.947 4.806c.46 0 .822-.084 1.086-.252.268-.168.402-.396.402-.684a.976.976 0 00-.108-.474c-.068-.132-.212-.252-.432-.36-.216-.108-.544-.218-.984-.33a6.802 6.802 0 01-1.122-.378 1.874 1.874 0 01-.744-.564c-.172-.232-.258-.532-.258-.9 0-.36.1-.672.3-.936.204-.264.49-.468.858-.612.372-.144.804-.216 1.296-.216.52 0 .972.07 1.356.21.388.136.716.304.984.504l-.492.75a3.598 3.598 0 00-.804-.402 3.005 3.005 0 00-1.02-.156c-.468 0-.802.072-1.002.216a.654.654 0 00-.294.558c0 .172.048.316.144.432.1.112.27.216.51.312s.572.202.996.318c.412.112.772.244 1.08.396.308.152.546.352.714.6.172.244.258.566.258.966 0 .452-.13.82-.39 1.104a2.3 2.3 0 01-1.014.618 4.301 4.301 0 01-1.32.198c-.576 0-1.072-.084-1.488-.252a3.68 3.68 0 01-1.038-.618l.636-.732c.248.204.532.37.852.498.32.124.666.186 1.038.186zm7.535-1.284c.292 0 .537.098.733.294a.98.98 0 01.294.72c0 .16-.023.322-.067.486-.04.16-.111.35-.215.57l-.954 2.184h-.966l.581-2.4a.995.995 0 01-.305-.36 1.072 1.072 0 01-.115-.486c0-.28.097-.518.289-.714a.986.986 0 01.726-.294zm16.8.6c0 .252.04.436.12.552a.72.72 0 00.377.252l-.27.792a1.778 1.778 0 01-.75-.258c-.212-.136-.37-.344-.474-.624a2.189 2.189 0 01-.864.666 2.867 2.867 0 01-1.134.222c-.636 0-1.138-.18-1.506-.54-.368-.36-.552-.834-.552-1.422 0-.66.256-1.166.768-1.518.516-.352 1.256-.528 2.22-.528h.918v-.48c0-.436-.13-.746-.39-.93-.256-.184-.614-.276-1.074-.276-.208 0-.456.026-.744.078a6.19 6.19 0 00-.918.246l-.294-.84a6.39 6.39 0 011.122-.318c.36-.064.696-.096 1.008-.096.816 0 1.426.186 1.83.558.404.368.606.874.606 1.518v2.946zm-2.67.738c.295 0 .58-.076.851-.228.272-.152.496-.364.672-.636v-1.53h-.84c-.668 0-1.142.114-1.422.342-.28.224-.42.532-.42.924 0 .368.096.648.288.84.192.192.482.288.87.288zm5.302.714v-6.324h.99l.084.852a2.6 2.6 0 01.948-.744 2.68 2.68 0 011.122-.258c.608 0 1.056.166 1.344.498.288.328.432.786.432 1.374V76.5h-1.152v-3.894a5.3 5.3 0 00-.072-.972c-.044-.252-.138-.434-.282-.546-.144-.112-.362-.168-.654-.168-.228 0-.444.05-.648.15a2.29 2.29 0 00-.552.378c-.16.152-.296.31-.408.474V76.5h-1.152zm11.052-9.006l1.152.138V76.5h-1.014l-.096-.81c-.224.32-.488.56-.792.72-.304.16-.636.24-.996.24-.544 0-.994-.138-1.35-.414-.352-.28-.614-.668-.786-1.164-.172-.496-.258-1.072-.258-1.728 0-.64.098-1.208.294-1.704.2-.5.484-.894.852-1.182.372-.288.82-.432 1.344-.432.348 0 .658.062.93.186.272.12.512.298.72.534v-3.252zm-1.35 3.438c-.492 0-.874.198-1.146.594-.272.396-.408 1.002-.408 1.818 0 .54.056.988.168 1.344.112.356.274.62.486.792.212.172.472.258.78.258.332 0 .618-.096.858-.288a2.76 2.76 0 00.612-.666v-3.09a1.79 1.79 0 00-.594-.558 1.448 1.448 0 00-.756-.204zm14.398 4.8c.46 0 .822-.084 1.086-.252.268-.168.402-.396.402-.684a.976.976 0 00-.108-.474c-.068-.132-.212-.252-.432-.36-.216-.108-.544-.218-.984-.33a6.802 6.802 0 01-1.122-.378 1.874 1.874 0 01-.744-.564c-.172-.232-.258-.532-.258-.9 0-.36.1-.672.3-.936.204-.264.49-.468.858-.612.372-.144.804-.216 1.296-.216.52 0 .972.07 1.356.21.388.136.716.304.984.504l-.492.75a3.598 3.598 0 00-.804-.402 3.005 3.005 0 00-1.02-.156c-.468 0-.802.072-1.002.216a.654.654 0 00-.294.558c0 .172.048.316.144.432.1.112.27.216.51.312s.572.202.996.318c.412.112.772.244 1.08.396.308.152.546.352.714.6.172.244.258.566.258.966 0 .452-.13.82-.39 1.104a2.3 2.3 0 01-1.014.618 4.301 4.301 0 01-1.32.198c-.576 0-1.072-.084-1.488-.252a3.68 3.68 0 01-1.038-.618l.636-.732c.248.204.532.37.852.498.32.124.666.186 1.038.186zm6.234-5.556v4.452c0 .4.082.688.246.864.164.172.414.258.75.258.324 0 .632-.094.924-.282.292-.188.52-.412.684-.672v-4.62h1.152V76.5h-.99l-.084-.834c-.24.316-.542.56-.906.732a2.612 2.612 0 01-1.104.252c-.612 0-1.07-.166-1.374-.498-.3-.332-.45-.792-.45-1.38v-4.596h1.152zm7.295.792c.224-.296.486-.526.786-.69.304-.168.634-.252.99-.252.56 0 1.014.138 1.362.414.348.272.602.656.762 1.152.16.492.24 1.072.24 1.74 0 .64-.096 1.21-.288 1.71-.192.5-.474.894-.846 1.182-.372.284-.83.426-1.374.426-.724 0-1.29-.264-1.698-.792l-.072.642h-1.014v-8.868l1.152-.138v3.474zm1.35 4.776c.496 0 .878-.196 1.146-.588.272-.396.408-1.004.408-1.824 0-.548-.054-.998-.162-1.35-.108-.356-.268-.62-.48-.792a1.165 1.165 0 00-.768-.258c-.328 0-.618.1-.87.3-.252.196-.46.42-.624.672v3.06c.16.24.356.43.588.57.232.14.486.21.762.21zm9.047-5.718c.22 0 .424.048.612.144.188.096.34.272.456.528.116.252.174.618.174 1.098V76.5h-1.05v-4.536c0-.368-.024-.632-.072-.792-.044-.164-.172-.246-.384-.246a.973.973 0 00-.522.162c-.172.108-.342.288-.51.54V76.5h-1.008v-4.536c0-.368-.024-.632-.072-.792-.044-.164-.172-.246-.384-.246a.982.982 0 00-.528.162c-.168.108-.336.288-.504.54V76.5h-1.05v-6.324h.888l.072.708c.176-.248.37-.452.582-.612.216-.164.478-.246.786-.246.24 0 .462.058.666.174.208.116.36.332.456.648.172-.244.368-.442.588-.594a1.38 1.38 0 01.804-.228zm6.354.15v5.448h1.758v.876h-4.836v-.876h1.926v-4.572h-1.866v-.876h3.018zm-.858-3.024c.24 0 .432.074.576.222a.735.735 0 01.222.54.77.77 0 01-.222.558c-.144.148-.336.222-.576.222a.78.78 0 01-.576-.222.781.781 0 01-.216-.558c0-.212.072-.392.216-.54a.78.78 0 01.576-.222zm9.977 9.024a2.84 2.84 0 01-.81.342 3.52 3.52 0 01-.948.132c-.704 0-1.244-.184-1.62-.552-.372-.368-.558-.846-.558-1.434V71.04h-1.434v-.864h1.434v-1.428l1.152-.138v1.566h2.16l-.132.864h-2.028v3.612c0 .348.088.61.264.786.18.176.478.264.894.264.236 0 .452-.028.648-.084.196-.056.378-.128.546-.216l.432.774zm14.837-6l-2.208 6.36a5.164 5.164 0 01-.588 1.212c-.24.36-.55.654-.93.882-.376.232-.85.376-1.422.432l-.162-.894c.432-.068.774-.172 1.026-.312a1.62 1.62 0 00.6-.546c.148-.224.28-.494.396-.81h-.39l-2.178-6.324h1.23l1.722 5.484 1.716-5.484h1.188zm4.379-.15c.604 0 1.11.136 1.518.408.412.272.722.656.93 1.152.212.492.318 1.074.318 1.746 0 .652-.108 1.228-.324 1.728a2.646 2.646 0 01-.936 1.17c-.412.28-.918.42-1.518.42s-1.108-.136-1.524-.408a2.531 2.531 0 01-.936-1.152c-.212-.496-.318-1.078-.318-1.746 0-.656.106-1.232.318-1.728.216-.5.532-.89.948-1.17.416-.28.924-.42 1.524-.42zm0 .918c-.52 0-.912.196-1.176.588-.264.388-.396.992-.396 1.812 0 .812.13 1.414.39 1.806.26.388.65.582 1.17.582.52 0 .91-.194 1.17-.582.26-.392.39-.998.39-1.818 0-.816-.13-1.418-.39-1.806-.256-.388-.642-.582-1.158-.582zm5.981-.768v4.452c0 .4.082.688.246.864.164.172.414.258.75.258.324 0 .632-.094.924-.282.292-.188.52-.412.684-.672v-4.62h1.152V76.5h-.99l-.084-.834c-.24.316-.542.56-.906.732a2.612 2.612 0 01-1.104.252c-.612 0-1.07-.166-1.374-.498-.3-.332-.45-.792-.45-1.38v-4.596h1.152zm6.203 6.324v-.852h.96v-4.62h-.96v-.852h1.842l.21 1.482c.24-.524.534-.926.882-1.206.352-.284.808-.426 1.368-.426a2.5 2.5 0 01.486.042c.144.028.29.064.438.108l-.342 1.008a2.537 2.537 0 00-.36-.084 2.563 2.563 0 00-.372-.024 1.66 1.66 0 00-1.224.516c-.34.344-.612.85-.816 1.518v2.538h1.284v.852h-3.396zm4.158-4.104v-1.452l.132-.768h.936l-.18 2.22h-.888zM20.458 86.176v5.448h1.758v.876H17.38v-.876h1.926v-4.572H17.44v-.876h3.018zm-.858-3.024c.24 0 .432.074.576.222a.735.735 0 01.222.54.77.77 0 01-.222.558c-.144.148-.336.222-.576.222a.78.78 0 01-.576-.222.781.781 0 01-.216-.558c0-.212.072-.392.216-.54a.78.78 0 01.576-.222zm8.597.342l1.152.138V92.5h-1.014l-.096-.81c-.224.32-.488.56-.792.72-.304.16-.636.24-.996.24-.544 0-.994-.138-1.35-.414-.352-.28-.614-.668-.786-1.164-.172-.496-.258-1.072-.258-1.728 0-.64.098-1.208.294-1.704.2-.5.484-.894.852-1.182.372-.288.82-.432 1.344-.432.348 0 .658.062.93.186.272.12.512.298.72.534v-3.252zm-1.35 3.438c-.492 0-.874.198-1.146.594-.272.396-.408 1.002-.408 1.818 0 .54.056.988.168 1.344.112.356.274.62.486.792.212.172.472.258.78.258.332 0 .618-.096.858-.288a2.76 2.76 0 00.612-.666v-3.09a1.79 1.79 0 00-.594-.558 1.448 1.448 0 00-.756-.204zm5.82 2.796c.024.464.118.844.282 1.14.164.292.378.508.642.648.264.136.556.204.876.204.316 0 .606-.048.87-.144a3.7 3.7 0 00.804-.42l.522.726a3.58 3.58 0 01-2.232.768c-.632 0-1.17-.138-1.614-.414a2.702 2.702 0 01-1.008-1.164c-.228-.496-.342-1.072-.342-1.728 0-.636.114-1.204.342-1.704.232-.5.558-.894.978-1.182.42-.288.92-.432 1.5-.432.544 0 1.012.126 1.404.378.396.252.7.612.912 1.08.212.464.318 1.02.318 1.668 0 .108-.002.212-.006.312s-.01.188-.018.264h-4.23zm1.632-2.802c-.448 0-.822.16-1.122.48-.296.32-.466.814-.51 1.482h3.144c-.012-.64-.152-1.126-.42-1.458-.264-.336-.628-.504-1.092-.504zm9.395 4.122c0 .252.04.436.12.552a.72.72 0 00.378.252l-.27.792a1.778 1.778 0 01-.75-.258c-.212-.136-.37-.344-.474-.624a2.189 2.189 0 01-.864.666 2.867 2.867 0 01-1.134.222c-.636 0-1.138-.18-1.506-.54-.368-.36-.552-.834-.552-1.422 0-.66.256-1.166.768-1.518.516-.352 1.256-.528 2.22-.528h.918v-.48c0-.436-.13-.746-.39-.93-.256-.184-.614-.276-1.074-.276-.208 0-.456.026-.744.078a6.19 6.19 0 00-.918.246l-.294-.84a6.39 6.39 0 011.122-.318c.36-.064.696-.096 1.008-.096.816 0 1.426.186 1.83.558.404.368.606.874.606 1.518v2.946zm-2.67.738c.296 0 .58-.076.852-.228.272-.152.496-.364.672-.636v-1.53h-.84c-.668 0-1.142.114-1.422.342-.28.224-.42.532-.42.924 0 .368.096.648.288.84.192.192.482.288.87.288zm7.517-.054c.46 0 .822-.084 1.086-.252.268-.168.402-.396.402-.684a.976.976 0 00-.108-.474c-.068-.132-.212-.252-.432-.36-.216-.108-.544-.218-.984-.33a6.802 6.802 0 01-1.122-.378 1.874 1.874 0 01-.744-.564c-.172-.232-.258-.532-.258-.9 0-.36.1-.672.3-.936.204-.264.49-.468.858-.612.372-.144.804-.216 1.296-.216.52 0 .972.07 1.356.21.388.136.716.304.984.504l-.492.75a3.598 3.598 0 00-.804-.402 3.005 3.005 0 00-1.02-.156c-.468 0-.802.072-1.002.216a.654.654 0 00-.294.558c0 .172.048.316.144.432.1.112.27.216.51.312s.572.202.996.318c.412.112.772.244 1.08.396.308.152.546.352.714.6.172.244.258.566.258.966 0 .452-.13.82-.39 1.104a2.3 2.3 0 01-1.014.618 4.301 4.301 0 01-1.32.198c-.576 0-1.072-.084-1.488-.252a3.68 3.68 0 01-1.038-.618l.636-.732c.248.204.532.37.852.498.32.124.666.186 1.038.186z" fill="#fff"/><path fill-rule="evenodd" clip-rule="evenodd" d="M63.575 92.08l3.58-3.58-3.58-3.58-.824.82 2.162 2.16h-5.067v1.2h5.067l-2.162 2.163.824.816z" fill="#fff"/><path d="M53 107c-4.968 0-9 3.952-9 8.819 0 3.437 4.559 11.683 7.188 16.15.819 1.375 2.805 1.375 3.624 0 2.63-4.467 7.188-12.714 7.188-16.15 0-4.925-4.032-8.819-9-8.819zm0 12.886c-2.337 0-4.208-1.833-4.208-4.124 0-2.29 1.87-4.123 4.208-4.123 2.337 0 4.208 1.833 4.208 4.123 0 2.291-1.87 4.124-4.208 4.124zM184 13c-4.968 0-9-3.952-9-8.82 0-3.436 4.559-11.682 7.188-16.15.819-1.374 2.805-1.374 3.624 0C188.441-7.501 193 .746 193 4.18c0 4.926-4.032 8.82-9 8.82zm0-12.886c-2.338 0-4.208 1.833-4.208 4.124 0 2.29 1.87 4.123 4.208 4.123 2.337 0 4.208-1.833 4.208-4.123S186.338.114 184 .114z" fill="#233477"/></g><defs><clipPath id="clip0_301_21"><rect width="240" height="120" rx="4" fill="#fff"/></clipPath></defs></svg>