<svg width="240" height="120" viewBox="0 0 240 120" fill="none" xmlns="http://www.w3.org/2000/svg"><rect width="240" height="120" rx="4" fill="#002FE6"/><path d="M29.038 28.117h1.774c-.034-1.72-1.5-2.938-3.669-2.938-2.137 0-3.743 1.203-3.738 3.003 0 1.462 1.039 2.302 2.714 2.734l1.159.299c1.098.278 1.824.62 1.83 1.411-.006.87-.831 1.452-2.034 1.452-1.154 0-2.048-.517-2.123-1.586h-1.815c.075 2.024 1.581 3.162 3.953 3.162 2.44 0 3.858-1.218 3.863-3.013-.005-1.765-1.462-2.57-2.993-2.933l-.955-.238c-.835-.2-1.74-.552-1.73-1.402.005-.766.691-1.328 1.845-1.328 1.098 0 1.824.512 1.919 1.377zm7.292-.253h-1.507v-1.83h-1.8v1.83H31.94v1.392h1.084V33.5c-.01 1.437 1.034 2.143 2.386 2.103a3.614 3.614 0 001.059-.179l-.303-1.406c-.1.024-.304.07-.527.07-.453 0-.816-.16-.816-.886v-3.947h1.507v-1.392zm3.702 7.79c1.199 0 1.914-.562 2.243-1.203h.06V35.5h1.73v-5.11c0-2.02-1.646-2.626-3.103-2.626-1.606 0-2.839.716-3.237 2.108l1.68.239c.18-.522.687-.97 1.567-.97.835 0 1.293.428 1.293 1.179v.03c0 .516-.542.541-1.89.685-1.481.16-2.898.602-2.898 2.322 0 1.502 1.099 2.297 2.555 2.297zm.468-1.322c-.751 0-1.288-.343-1.288-1.005 0-.69.602-.979 1.407-1.093.472-.065 1.417-.184 1.65-.373v.9c0 .85-.685 1.57-1.77 1.57zm5.374 1.168h1.8v-4.49c0-.969.73-1.655 1.72-1.655.303 0 .68.055.835.104v-1.655a4.311 4.311 0 00-.646-.05c-.875 0-1.606.497-1.884 1.382h-.08v-1.272h-1.745V35.5zm9.774-7.636h-1.506v-1.83h-1.8v1.83h-1.084v1.392h1.084V33.5c-.01 1.437 1.034 2.143 2.386 2.103a3.614 3.614 0 001.06-.179l-.304-1.406c-.1.024-.303.07-.527.07-.452 0-.815-.16-.815-.886v-3.947h1.506v-1.392zm13.773.89c-.314-2.263-2.054-3.575-4.31-3.575-2.66 0-4.664 1.939-4.664 5.23 0 3.286 1.979 5.23 4.663 5.23 2.421 0 4.027-1.566 4.31-3.51l-1.859-.01c-.233 1.194-1.208 1.865-2.426 1.865-1.65 0-2.834-1.238-2.834-3.575 0-2.297 1.174-3.575 2.84-3.575 1.237 0 2.206.701 2.42 1.92h1.86zm1.61 6.746h1.799v-4.49c0-.969.73-1.655 1.72-1.655.303 0 .681.055.835.104v-1.655a4.312 4.312 0 00-.646-.05c-.875 0-1.606.497-1.884 1.382h-.08v-1.272H71.03V35.5zm8.616.15c1.78 0 3.003-.87 3.321-2.198l-1.68-.19c-.244.647-.84.985-1.616.985-1.163 0-1.934-.766-1.949-2.073h5.32v-.552c0-2.68-1.611-3.858-3.49-3.858-2.188 0-3.615 1.606-3.615 3.963 0 2.396 1.407 3.922 3.71 3.922zm-1.919-4.69c.055-.974.776-1.794 1.85-1.794 1.034 0 1.73.756 1.74 1.795h-3.59zm9.035 4.694c1.198 0 1.914-.562 2.242-1.203h.06V35.5h1.73v-5.11c0-2.02-1.646-2.626-3.103-2.626-1.605 0-2.838.716-3.236 2.108l1.68.239c.18-.522.686-.97 1.566-.97.836 0 1.293.428 1.293 1.179v.03c0 .516-.542.541-1.89.685-1.48.16-2.898.602-2.898 2.322 0 1.502 1.1 2.297 2.556 2.297zm.467-1.322c-.75 0-1.288-.343-1.288-1.005 0-.69.602-.979 1.407-1.093.473-.065 1.417-.184 1.651-.373v.9c0 .85-.686 1.57-1.77 1.57zm9.188-6.468H94.91v-1.83h-1.8v1.83h-1.083v1.392h1.084V33.5c-.01 1.437 1.034 2.143 2.386 2.103a3.614 3.614 0 001.059-.179l-.303-1.406c-.1.024-.304.07-.527.07-.453 0-.816-.16-.816-.886v-3.947h1.507v-1.392zm1.505 7.636h1.8v-7.636h-1.8V35.5zm.905-8.72c.571 0 1.039-.438 1.039-.975 0-.541-.468-.979-1.04-.979-.576 0-1.043.438-1.043.98 0 .536.467.974 1.044.974zm4.545 4.246c0-1.104.666-1.74 1.616-1.74.929 0 1.486.611 1.486 1.63V35.5h1.8v-4.862c.005-1.83-1.039-2.874-2.615-2.874-1.144 0-1.929.547-2.277 1.397h-.09v-1.297h-1.72V35.5h1.8v-4.474zm10.052 7.497c2.064 0 3.585-.945 3.585-2.899v-7.76h-1.775v1.262h-.099c-.274-.551-.846-1.362-2.193-1.362-1.765 0-3.152 1.382-3.152 3.893 0 2.49 1.387 3.734 3.147 3.734 1.308 0 1.919-.701 2.198-1.263h.089v1.447c0 1.123-.746 1.585-1.77 1.585-1.084 0-1.561-.512-1.78-.959l-1.62.393c.328 1.069 1.427 1.929 3.37 1.929zm.015-4.544c-1.188 0-1.814-.925-1.814-2.332 0-1.387.616-2.406 1.814-2.406 1.159 0 1.795.96 1.795 2.406 0 1.457-.646 2.332-1.795 2.332zm17.334-8.66h-1.835v6.94h-.089l-4.793-6.94h-1.65V35.5h1.844v-6.935h.085l4.797 6.935h1.641V25.318zm5.261 10.33c2.237 0 3.659-1.576 3.659-3.937 0-2.367-1.422-3.948-3.659-3.948s-3.659 1.581-3.659 3.948c0 2.361 1.422 3.937 3.659 3.937zm.01-1.442c-1.238 0-1.845-1.103-1.845-2.5s.607-2.516 1.845-2.516c1.218 0 1.824 1.119 1.824 2.516s-.606 2.5-1.824 2.5zm6.548 1.293h1.879l1.432-5.16h.104l1.432 5.16h1.874l2.163-7.636h-1.84l-1.322 5.34h-.075l-1.372-5.34h-1.815l-1.372 5.369h-.069l-1.343-5.37h-1.834l2.158 7.637zM26.286 61.65c-.676 0-1.26-.158-1.752-.474-.488-.32-.866-.798-1.134-1.434-.264-.636-.396-1.43-.396-2.382 0-.712.096-1.334.288-1.866.192-.536.452-.982.78-1.338a3.326 3.326 0 011.128-.804 3.36 3.36 0 011.326-.27c.552 0 1.01.08 1.374.24.364.16.708.39 1.032.69l-.696.72a2.515 2.515 0 00-.786-.516 2.33 2.33 0 00-.906-.168c-.296 0-.58.058-.852.174a1.969 1.969 0 00-.732.558c-.212.256-.382.596-.51 1.02-.124.42-.186.94-.186 1.56 0 .784.078 1.422.234 1.914.16.488.396.846.708 1.074.316.224.704.336 1.164.336a3.04 3.04 0 001.482-.378v-2.418h-1.53l-.138-.948h2.838v3.972c-.38.208-.786.384-1.218.528-.428.14-.934.21-1.518.21zm5.585-2.922c.024.464.118.844.282 1.14.164.292.378.508.642.648.264.136.556.204.876.204.316 0 .606-.048.87-.144a3.7 3.7 0 00.804-.42l.522.726a3.58 3.58 0 01-2.232.768c-.632 0-1.17-.138-1.614-.414a2.702 2.702 0 01-1.008-1.164c-.228-.496-.342-1.072-.342-1.728 0-.636.114-1.204.342-1.704.232-.5.558-.894.978-1.182.42-.288.92-.432 1.5-.432.544 0 1.012.126 1.404.378.396.252.7.612.912 1.08.212.464.318 1.02.318 1.668 0 .108-.002.212-.006.312s-.01.188-.018.264h-4.23zm1.632-2.802c-.448 0-.822.16-1.122.48-.296.32-.466.814-.51 1.482h3.144c-.012-.64-.152-1.126-.42-1.458-.264-.336-.628-.504-1.092-.504zm9.87 5.25a2.84 2.84 0 01-.81.342 3.52 3.52 0 01-.948.132c-.704 0-1.244-.184-1.62-.552-.372-.368-.558-.846-.558-1.434V56.04h-1.434v-.864h1.434v-1.428l1.152-.138v1.566h2.16l-.132.864h-2.028v3.612c0 .348.088.61.264.786.18.176.478.264.894.264.236 0 .452-.028.648-.084.196-.056.378-.128.546-.216l.432.774zm14.836-6l-2.208 6.36a5.164 5.164 0 01-.588 1.212c-.24.36-.55.654-.93.882-.376.232-.85.376-1.422.432l-.162-.894c.432-.068.774-.172 1.026-.312a1.62 1.62 0 00.6-.546c.148-.224.28-.494.396-.81h-.39l-2.178-6.324h1.23l1.722 5.484 1.716-5.484h1.188zm4.38-.15c.604 0 1.11.136 1.518.408.412.272.722.656.93 1.152.212.492.318 1.074.318 1.746 0 .652-.108 1.228-.324 1.728a2.646 2.646 0 01-.936 1.17c-.412.28-.918.42-1.518.42s-1.108-.136-1.524-.408a2.531 2.531 0 01-.936-1.152c-.212-.496-.318-1.078-.318-1.746 0-.656.106-1.232.318-1.728.216-.5.532-.89.948-1.17.416-.28.924-.42 1.524-.42zm0 .918c-.52 0-.912.196-1.176.588-.264.388-.396.992-.396 1.812 0 .812.13 1.414.39 1.806.26.388.65.582 1.17.582.52 0 .91-.194 1.17-.582.26-.392.39-.998.39-1.818 0-.816-.13-1.418-.39-1.806-.256-.388-.642-.582-1.158-.582zm5.98-.768v4.452c0 .4.083.688.247.864.164.172.414.258.75.258.324 0 .632-.094.924-.282.292-.188.52-.412.684-.672v-4.62h1.152V61.5h-.99l-.084-.834c-.24.316-.542.56-.906.732a2.612 2.612 0 01-1.104.252c-.612 0-1.07-.166-1.374-.498-.3-.332-.45-.792-.45-1.38v-4.596h1.152zm6.204 6.324v-.852h.96v-4.62h-.96v-.852h1.842l.21 1.482c.24-.524.534-.926.882-1.206.352-.284.808-.426 1.368-.426a2.5 2.5 0 01.486.042c.144.028.29.064.438.108l-.342 1.008a2.537 2.537 0 00-.36-.084 2.563 2.563 0 00-.372-.024 1.66 1.66 0 00-1.224.516c-.34.344-.612.85-.816 1.518v2.538h1.284v.852h-3.396zm4.158-4.104v-1.452l.132-.768H80l-.18 2.22h-.888zm14.363 2.046h-3.132l-.624 2.058h-1.194l2.664-8.268h1.5l2.67 8.268h-1.26l-.624-2.058zm-2.856-.954h2.58l-1.284-4.296-1.296 4.296zm10.475-2.682c0-.408-.08-.732-.24-.972a1.316 1.316 0 00-.66-.522 2.69 2.69 0 00-.972-.162h-1.11v3.396h1.092c.368 0 .694-.052.978-.156.284-.104.506-.282.666-.534.164-.256.246-.606.246-1.05zm1.26-.012c0 .644-.138 1.164-.414 1.56-.272.392-.65.678-1.134.858-.48.18-1.034.27-1.662.27h-1.032V61.5h-1.194v-8.268h2.19c1.008 0 1.8.21 2.376.63.58.416.87 1.06.87 1.932zm6.593-2.562v.93h-1.818v6.402h1.818v.936h-4.836v-.936h1.818v-6.402h-1.818v-.93h4.836zm15.137 1.944l-2.724 2.838 3.024 3.486h-1.458l-2.946-3.456 2.682-2.868h1.422zm-4.212-2.682V61.5h-1.152v-8.868l1.152-.138zm7.019 6.234c.024.464.118.844.282 1.14.164.292.378.508.642.648.264.136.556.204.876.204.316 0 .606-.048.87-.144a3.7 3.7 0 00.804-.42l.522.726a3.58 3.58 0 01-2.232.768c-.632 0-1.17-.138-1.614-.414a2.702 2.702 0 01-1.008-1.164c-.228-.496-.342-1.072-.342-1.728 0-.636.114-1.204.342-1.704.232-.5.558-.894.978-1.182.42-.288.92-.432 1.5-.432.544 0 1.012.126 1.404.378.396.252.7.612.912 1.08.212.464.318 1.02.318 1.668 0 .108-.002.212-.006.312s-.01.188-.018.264h-4.23zm1.632-2.802c-.448 0-.822.16-1.122.48-.296.32-.466.814-.51 1.482h3.144c-.012-.64-.152-1.126-.42-1.458-.264-.336-.628-.504-1.092-.504zm10.116-.75l-2.208 6.36a5.164 5.164 0 01-.588 1.212c-.24.36-.55.654-.93.882-.376.232-.85.376-1.422.432l-.162-.894c.432-.068.774-.172 1.026-.312a1.62 1.62 0 00.6-.546c.148-.224.28-.494.396-.81h-.39l-2.178-6.324h1.23l1.722 5.484 1.716-5.484h1.188zm13.87 4.872c0 .252.04.436.12.552a.72.72 0 00.378.252l-.27.792a1.778 1.778 0 01-.75-.258c-.212-.136-.37-.344-.474-.624a2.189 2.189 0 01-.864.666 2.867 2.867 0 01-1.134.222c-.636 0-1.138-.18-1.506-.54-.368-.36-.552-.834-.552-1.422 0-.66.256-1.166.768-1.518.516-.352 1.256-.528 2.22-.528h.918v-.48c0-.436-.13-.746-.39-.93-.256-.184-.614-.276-1.074-.276-.208 0-.456.026-.744.078a6.19 6.19 0 00-.918.246l-.294-.84a6.39 6.39 0 011.122-.318c.36-.064.696-.096 1.008-.096.816 0 1.426.186 1.83.558.404.368.606.874.606 1.518v2.946zm-2.67.738c.296 0 .58-.076.852-.228.272-.152.496-.364.672-.636v-1.53h-.84c-.668 0-1.142.114-1.422.342-.28.224-.42.532-.42.924 0 .368.096.648.288.84.192.192.482.288.87.288zm5.304.714v-6.324h.99l.084.852a2.6 2.6 0 01.948-.744 2.68 2.68 0 011.122-.258c.608 0 1.056.166 1.344.498.288.328.432.786.432 1.374V61.5h-1.152v-3.894a5.3 5.3 0 00-.072-.972c-.044-.252-.138-.434-.282-.546-.144-.112-.362-.168-.654-.168-.228 0-.444.05-.648.15a2.29 2.29 0 00-.552.378c-.16.152-.296.31-.408.474V61.5h-1.152zm11.051-9.006l1.152.138V61.5h-1.014l-.096-.81c-.224.32-.488.56-.792.72-.304.16-.636.24-.996.24-.544 0-.994-.138-1.35-.414-.352-.28-.614-.668-.786-1.164-.172-.496-.258-1.072-.258-1.728 0-.64.098-1.208.294-1.704.2-.5.484-.894.852-1.182.372-.288.82-.432 1.344-.432.348 0 .658.062.93.186.272.12.512.298.72.534v-3.252zm-1.35 3.438c-.492 0-.874.198-1.146.594-.272.396-.408 1.002-.408 1.818 0 .54.056.988.168 1.344.112.356.274.62.486.792.212.172.472.258.78.258.332 0 .618-.096.858-.288a2.76 2.76 0 00.612-.666v-3.09a1.79 1.79 0 00-.594-.558 1.448 1.448 0 00-.756-.204zm17.321 5.244a2.84 2.84 0 01-.81.342 3.52 3.52 0 01-.948.132c-.704 0-1.244-.184-1.62-.552-.372-.368-.558-.846-.558-1.434V56.04h-1.434v-.864h1.434v-1.428l1.152-.138v1.566h2.16l-.132.864H179.2v3.612c0 .348.088.61.264.786.18.176.478.264.894.264.236 0 .452-.028.648-.084.196-.056.378-.128.546-.216l.432.774zm2.219.324v-.852h.96v-4.62h-.96v-.852h1.842l.21 1.482c.24-.524.534-.926.882-1.206.352-.284.808-.426 1.368-.426a2.5 2.5 0 01.486.042c.144.028.29.064.438.108l-.342 1.008a2.537 2.537 0 00-.36-.084 2.563 2.563 0 00-.372-.024 1.66 1.66 0 00-1.224.516c-.34.344-.612.85-.816 1.518v2.538h1.284v.852h-3.396zm4.158-4.104v-1.452l.132-.768h.936l-.18 2.22h-.888zm8.459-2.22l-2.208 6.36a5.164 5.164 0 01-.588 1.212c-.24.36-.55.654-.93.882-.376.232-.85.376-1.422.432l-.162-.894c.432-.068.774-.172 1.026-.312a1.62 1.62 0 00.6-.546c.148-.224.28-.494.396-.81h-.39l-2.178-6.324h1.23l1.722 5.484 1.716-5.484h1.188zM26.676 70.222V77.5h-1.188v-7.278h-2.544v-.99h6.318l-.126.99h-2.46zm7.577.954v5.448h1.758v.876h-4.836v-.876h1.926v-4.572h-1.866v-.876h3.018zm-.858-3.024c.24 0 .432.074.576.222a.735.735 0 01.222.54.77.77 0 01-.222.558c-.144.148-.336.222-.576.222a.78.78 0 01-.576-.222.781.781 0 01-.216-.558c0-.212.072-.392.216-.54a.78.78 0 01.576-.222zm4.842 9.348v-6.324h.99l.084.852a2.6 2.6 0 01.948-.744 2.68 2.68 0 011.122-.258c.608 0 1.056.166 1.344.498.288.328.432.786.432 1.374V77.5h-1.152v-3.894a5.3 5.3 0 00-.072-.972c-.044-.252-.138-.434-.282-.546-.144-.112-.362-.168-.654-.168-.228 0-.444.05-.648.15a2.29 2.29 0 00-.552.378c-.16.152-.296.31-.408.474V77.5h-1.152zm12.677-6.324l-2.208 6.36a5.164 5.164 0 01-.588 1.212c-.24.36-.55.654-.93.882-.376.232-.85.376-1.422.432l-.162-.894c.432-.068.774-.172 1.026-.312a1.62 1.62 0 00.6-.546c.148-.224.28-.494.396-.81h-.39l-2.178-6.324h1.23l1.722 5.484 1.716-5.484h1.188zm7.157-1.944l.468 8.268h-1.116l-.234-4.194a67.226 67.226 0 01-.048-1.728v-.732l.012-.546-1.32 5.73h-1.116l-1.416-5.73c.008.14.014.324.018.552.008.228.012.48.012.756.004.276.004.56 0 .852-.004.292-.01.574-.018.846l-.198 4.194h-1.092l.468-8.268h1.542l1.272 5.61 1.212-5.61h1.554zm5.202-.15c.548 0 1.008.07 1.38.21.376.14.728.344 1.056.612l-.642.756a2.532 2.532 0 00-.816-.462c-.284-.1-.586-.15-.906-.15-.432 0-.834.106-1.206.318-.368.212-.664.56-.888 1.044-.224.484-.336 1.134-.336 1.95 0 .796.106 1.436.318 1.92.216.48.506.83.87 1.05.368.216.778.324 1.23.324.456 0 .83-.07 1.122-.21.296-.144.556-.308.78-.492l.594.762a3.53 3.53 0 01-1.014.66c-.412.184-.916.276-1.512.276-.684 0-1.3-.164-1.848-.492-.548-.328-.982-.81-1.302-1.446-.316-.64-.474-1.424-.474-2.352 0-.928.162-1.71.486-2.346.328-.636.764-1.116 1.308-1.44a3.44 3.44 0 011.8-.492zm5.633 1.086v2.658h3.036v.942h-3.036v2.802h3.714v.93h-4.908v-8.268h4.818l-.138.936h-3.486zm16.042.858c.56 0 1.009.138 1.345.414.335.272.578.656.725 1.152.148.492.222 1.072.222 1.74 0 .64-.09 1.21-.27 1.71-.18.5-.45.894-.81 1.182-.36.284-.811.426-1.355.426-.684 0-1.233-.24-1.645-.72v2.994l-1.151.138v-8.886h.99l.084.852c.236-.324.514-.572.834-.744.32-.172.663-.258 1.031-.258zm-.293.906c-.329 0-.618.1-.87.3-.252.196-.46.42-.624.672v3.06c.16.236.355.422.588.558.232.132.49.198.773.198.496 0 .87-.192 1.122-.576.252-.388.378-.992.378-1.812 0-.548-.05-.998-.15-1.35-.1-.356-.251-.62-.456-.792-.2-.172-.453-.258-.761-.258zm4.709 5.568v-.852h.96v-4.62h-.96v-.852h1.842l.21 1.482c.24-.524.534-.926.882-1.206.352-.284.808-.426 1.368-.426a2.5 2.5 0 01.486.042c.144.028.29.064.438.108l-.342 1.008a2.537 2.537 0 00-.36-.084 2.563 2.563 0 00-.372-.024 1.66 1.66 0 00-1.224.516c-.34.344-.612.85-.816 1.518v2.538h1.284v.852h-3.396zm4.158-4.104v-1.452l.132-.768h.936l-.18 2.22h-.888zm4.007 1.332c.024.464.118.844.282 1.14.164.292.378.508.642.648.264.136.556.204.876.204.316 0 .606-.048.87-.144a3.7 3.7 0 00.804-.42l.522.726a3.58 3.58 0 01-2.232.768c-.632 0-1.17-.138-1.614-.414a2.702 2.702 0 01-1.008-1.164c-.228-.496-.342-1.072-.342-1.728 0-.636.114-1.204.342-1.704.232-.5.558-.894.978-1.182.42-.288.92-.432 1.5-.432.544 0 1.012.126 1.404.378.396.252.7.612.912 1.08.212.464.318 1.02.318 1.668 0 .108-.002.212-.006.312s-.01.188-.018.264h-4.23zm1.632-2.802c-.448 0-.822.16-1.122.48-.296.32-.466.814-.51 1.482h3.144c-.012-.64-.152-1.126-.42-1.458-.264-.336-.628-.504-1.092-.504zm8.987-.9c.22 0 .424.048.612.144.188.096.34.272.456.528.116.252.174.618.174 1.098V77.5h-1.05v-4.536c0-.368-.024-.632-.072-.792-.044-.164-.172-.246-.384-.246a.973.973 0 00-.522.162c-.172.108-.342.288-.51.54V77.5h-1.008v-4.536c0-.368-.024-.632-.072-.792-.044-.164-.172-.246-.384-.246a.982.982 0 00-.528.162c-.168.108-.336.288-.504.54V77.5h-1.05v-6.324h.888l.072.708c.176-.248.37-.452.582-.612.216-.164.478-.246.786-.246.24 0 .462.058.666.174.208.116.36.332.456.648.172-.244.368-.442.588-.594a1.38 1.38 0 01.804-.228zm6.354.15v5.448h1.758v.876h-4.836v-.876h1.926v-4.572h-1.866v-.876h3.018zm-.858-3.024c.24 0 .432.074.576.222a.735.735 0 01.222.54.77.77 0 01-.222.558c-.144.148-.336.222-.576.222a.78.78 0 01-.576-.222.781.781 0 01-.216-.558c0-.212.072-.392.216-.54a.78.78 0 01.576-.222zm5.993 3.024v4.452c0 .4.082.688.246.864.164.172.414.258.75.258.324 0 .632-.094.924-.282.292-.188.52-.412.684-.672v-4.62h1.152V77.5h-.99l-.084-.834c-.24.316-.542.56-.906.732a2.612 2.612 0 01-1.104.252c-.612 0-1.07-.166-1.374-.498-.3-.332-.45-.792-.45-1.38v-4.596h1.152zm10.397-.15c.22 0 .424.048.612.144.188.096.34.272.456.528.116.252.174.618.174 1.098V77.5h-1.05v-4.536c0-.368-.024-.632-.072-.792-.044-.164-.172-.246-.384-.246a.973.973 0 00-.522.162c-.172.108-.342.288-.51.54V77.5h-1.008v-4.536c0-.368-.024-.632-.072-.792-.044-.164-.172-.246-.384-.246a.982.982 0 00-.528.162c-.168.108-.336.288-.504.54V77.5h-1.05v-6.324h.888l.072.708c.176-.248.37-.452.582-.612.216-.164.478-.246.786-.246.24 0 .462.058.666.174.208.116.36.332.456.648.172-.244.368-.442.588-.594a1.38 1.38 0 01.804-.228zm13.277 0c.56 0 1.008.138 1.344.414.336.272.578.656.726 1.152.148.492.222 1.072.222 1.74 0 .64-.09 1.21-.27 1.71-.18.5-.45.894-.81 1.182-.36.284-.812.426-1.356.426-.684 0-1.232-.24-1.644-.72v2.994l-1.152.138v-8.886h.99l.084.852c.236-.324.514-.572.834-.744.32-.172.664-.258 1.032-.258zm-.294.906c-.328 0-.618.1-.87.3-.252.196-.46.42-.624.672v3.06c.16.236.356.422.588.558.232.132.49.198.774.198.496 0 .87-.192 1.122-.576.252-.388.378-.992.378-1.812 0-.548-.05-.998-.15-1.35-.1-.356-.252-.62-.456-.792-.2-.172-.454-.258-.762-.258zm7.247-3.3v7.236c0 .304.094.52.282.648.188.124.43.186.726.186a2.3 2.3 0 00.534-.06 4.05 4.05 0 00.504-.156l.3.822a3.374 3.374 0 01-.66.234 3.401 3.401 0 01-.894.108c-.592 0-1.064-.166-1.416-.498-.352-.332-.528-.788-.528-1.368v-6.276h-1.926v-.876h3.078zm5.85 2.544v4.452c0 .4.082.688.246.864.164.172.414.258.75.258.324 0 .632-.094.924-.282.292-.188.52-.412.684-.672v-4.62h1.152V77.5h-.99l-.084-.834c-.24.316-.542.56-.906.732a2.612 2.612 0 01-1.104.252c-.612 0-1.07-.166-1.374-.498-.3-.332-.45-.792-.45-1.38v-4.596h1.152zm11.363-.732l.336 1.02a3.785 3.785 0 01-.852.162c-.3.024-.632.036-.996.036.372.168.652.384.84.648.188.264.282.58.282.948 0 .416-.098.786-.294 1.11a1.98 1.98 0 01-.834.762c-.36.184-.794.276-1.302.276-.2 0-.37-.008-.51-.024-.136-.02-.27-.05-.402-.09a.737.737 0 00-.222.246.686.686 0 00-.084.33c0 .14.056.26.168.36.112.096.33.144.654.144h1.122c.436 0 .824.076 1.164.228a2 2 0 01.81.618c.196.26.294.556.294.888 0 .628-.268 1.11-.804 1.446-.536.34-1.296.51-2.28.51-.696 0-1.244-.072-1.644-.216-.396-.144-.678-.358-.846-.642-.164-.284-.246-.64-.246-1.068h1.038c0 .236.046.43.138.582.092.152.26.266.504.342.244.076.596.114 1.056.114.456 0 .824-.038 1.104-.114.28-.076.486-.188.618-.336a.783.783 0 00.198-.54c0-.28-.126-.494-.378-.642-.252-.148-.574-.222-.966-.222h-1.11c-.568 0-.986-.12-1.254-.36-.264-.244-.396-.524-.396-.84 0-.208.058-.41.174-.606a1.65 1.65 0 01.522-.516c-.368-.196-.64-.436-.816-.72-.172-.284-.258-.63-.258-1.038 0-.436.108-.82.324-1.152.22-.332.524-.592.912-.78.388-.188.834-.282 1.338-.282.524 0 .952-.024 1.284-.072.336-.052.626-.12.87-.204.248-.088.496-.19.744-.306zm-2.892 1.398c-.472 0-.824.132-1.056.396-.232.26-.348.594-.348 1.002 0 .412.118.75.354 1.014.236.26.594.39 1.074.39.424 0 .748-.122.972-.366.224-.248.336-.598.336-1.05 0-.456-.112-.8-.336-1.032-.224-.236-.556-.354-.996-.354zm8.279-.666v5.448h1.758v.876h-4.836v-.876h1.926v-4.572h-1.866v-.876h3.018zm-.858-3.024c.24 0 .432.074.576.222a.735.735 0 01.222.54.77.77 0 01-.222.558c-.144.148-.336.222-.576.222a.78.78 0 01-.576-.222.781.781 0 01-.216-.558c0-.212.072-.392.216-.54a.78.78 0 01.576-.222zm4.842 9.348v-6.324h.99l.084.852a2.6 2.6 0 01.948-.744 2.68 2.68 0 011.122-.258c.608 0 1.056.166 1.344.498.288.328.432.786.432 1.374V77.5h-1.152v-3.894a5.3 5.3 0 00-.072-.972c-.044-.252-.138-.434-.282-.546-.144-.112-.362-.168-.654-.168-.228 0-.444.05-.648.15a2.29 2.29 0 00-.552.378c-.16.152-.296.31-.408.474V77.5h-1.152zm9.509-.768c.46 0 .822-.084 1.086-.252.268-.168.402-.396.402-.684a.976.976 0 00-.108-.474c-.068-.132-.212-.252-.432-.36-.216-.108-.544-.218-.984-.33a6.802 6.802 0 01-1.122-.378 1.874 1.874 0 01-.744-.564c-.172-.232-.258-.532-.258-.9 0-.36.1-.672.3-.936.204-.264.49-.468.858-.612.372-.144.804-.216 1.296-.216.52 0 .972.07 1.356.21.388.136.716.304.984.504l-.492.75a3.598 3.598 0 00-.804-.402 3.005 3.005 0 00-1.02-.156c-.468 0-.802.072-1.002.216a.654.654 0 00-.294.558c0 .172.048.316.144.432.1.112.27.216.51.312s.572.202.996.318c.412.112.772.244 1.08.396.308.152.546.352.714.6.172.244.258.566.258.966 0 .452-.13.82-.39 1.104a2.3 2.3 0 01-1.014.618 4.301 4.301 0 01-1.32.198c-.576 0-1.072-.084-1.488-.252a3.68 3.68 0 01-1.038-.618l.636-.732c.248.204.532.37.852.498.32.124.666.186 1.038.186zM27.432 84.494c.36 0 .684.032.972.096.288.06.56.146.816.258l-.36.828a3.107 3.107 0 00-.654-.198 3.697 3.697 0 00-.702-.066c-.432 0-.754.084-.966.252-.212.168-.318.426-.318.774v1.212h2.136l-.126.876h-2.01V93.5h-1.146v-4.974h-1.482v-.876h1.482v-1.206c0-.396.1-.74.3-1.032.204-.292.482-.518.834-.678.356-.16.764-.24 1.224-.24zm5.975 2.532c.604 0 1.11.136 1.518.408.412.272.722.656.93 1.152.212.492.318 1.074.318 1.746 0 .652-.108 1.228-.324 1.728a2.646 2.646 0 01-.936 1.17c-.412.28-.918.42-1.518.42s-1.108-.136-1.524-.408a2.531 2.531 0 01-.936-1.152c-.212-.496-.318-1.078-.318-1.746 0-.656.106-1.232.318-1.728.216-.5.532-.89.948-1.17.416-.28.924-.42 1.524-.42zm0 .918c-.52 0-.912.196-1.176.588-.264.388-.396.992-.396 1.812 0 .812.13 1.414.39 1.806.26.388.65.582 1.17.582.52 0 .91-.194 1.17-.582.26-.392.39-.998.39-1.818 0-.816-.13-1.418-.39-1.806-.256-.388-.642-.582-1.158-.582zm4.89 5.556v-.852h.96v-4.62h-.96v-.852h1.842l.21 1.482c.24-.524.534-.926.882-1.206.352-.284.808-.426 1.368-.426a2.5 2.5 0 01.486.042c.144.028.29.064.438.108l-.342 1.008a2.537 2.537 0 00-.36-.084 2.563 2.563 0 00-.372-.024 1.66 1.66 0 00-1.224.516c-.34.344-.612.85-.816 1.518v2.538h1.284v.852h-3.396zm4.158-4.104v-1.452l.132-.768h.936l-.18 2.22h-.888zm14.284-4.212v8.076h-1.848v-6.21l-1.71 1.068-.804-1.302 2.682-1.632h1.68zm1.554 6.882V93.5h-5.406v-1.434h5.406zm3.528-7.092l1.614.594-1.968 4.764h4.152v1.422H59.51v-1.26l2.31-5.52zm2.964 3.354V93.5h-1.818l-.024-2.976.24-2.196h1.602zm2.489 2.154v-1.476h5.196v1.476h-5.196zm10.757-6.084l1.896.198V93.5h-1.68l-.096-.702a2.37 2.37 0 01-.702.642c-.292.176-.646.264-1.062.264-.528 0-.966-.142-1.314-.426-.344-.284-.602-.68-.774-1.188-.168-.512-.252-1.11-.252-1.794 0-.656.102-1.238.306-1.746.204-.508.496-.906.876-1.194.38-.292.832-.438 1.356-.438a1.98 1.98 0 011.446.588v-3.108zm-.936 3.906c-.328 0-.592.156-.792.468-.2.308-.3.82-.3 1.536 0 .524.042.932.126 1.224.084.288.2.49.348.606a.804.804 0 00.51.174.923.923 0 00.576-.198c.176-.132.332-.312.468-.54v-2.748a1.697 1.697 0 00-.42-.384.957.957 0 00-.516-.138zm9.972 3.36c0 .24.032.414.096.522a.63.63 0 00.324.246l-.39 1.248a2.75 2.75 0 01-.954-.246 1.445 1.445 0 01-.606-.594c-.245.292-.556.51-.937.654-.38.14-.767.21-1.163.21-.656 0-1.18-.186-1.572-.558-.388-.376-.582-.858-.582-1.446 0-.692.27-1.226.81-1.602.543-.376 1.307-.564 2.291-.564h.859v-.24c0-.332-.108-.578-.325-.738-.212-.16-.524-.24-.936-.24-.204 0-.466.03-.785.09-.32.056-.64.138-.96.246l-.438-1.26c.411-.156.84-.274 1.283-.354.449-.08.849-.12 1.2-.12.949 0 1.648.194 2.1.582.456.384.684.94.684 1.668v2.496zm-2.976.684c.204 0 .418-.06.642-.18a1.24 1.24 0 00.51-.522v-1.032h-.468c-.529 0-.916.082-1.165.246-.248.16-.371.396-.371.708 0 .244.073.436.221.576.153.136.363.204.63.204zm10.93-5.22L92.899 93.5c-.188.564-.438 1.036-.75 1.416a3.07 3.07 0 01-1.158.888c-.46.208-1.014.33-1.662.366l-.216-1.338c.42-.052.758-.13 1.014-.234.26-.104.468-.246.624-.426.16-.176.298-.4.414-.672h-.648l-2.022-6.372h2.004l1.236 5.16 1.344-5.16h1.944zm3.828 5.22c.316 0 .57-.05.762-.15.196-.1.294-.25.294-.45a.52.52 0 00-.114-.342c-.076-.092-.222-.18-.438-.264a10.454 10.454 0 00-.96-.3 4.867 4.867 0 01-1.032-.396 1.905 1.905 0 01-.696-.618c-.164-.252-.246-.566-.246-.942 0-.38.106-.718.318-1.014.212-.296.524-.528.936-.696.412-.172.916-.258 1.512-.258.568 0 1.062.074 1.482.222.424.144.79.328 1.098.552l-.756 1.116a3.744 3.744 0 00-.852-.39 2.92 2.92 0 00-.918-.15c-.308 0-.538.042-.69.126a.39.39 0 00-.222.366c0 .108.038.202.114.282.08.076.228.156.444.24.216.08.532.18.948.3.412.116.77.25 1.074.402.308.152.546.356.714.612.168.252.252.586.252 1.002 0 .464-.138.854-.414 1.17-.276.312-.642.546-1.098.702a4.607 4.607 0 01-1.5.234c-.616 0-1.16-.088-1.632-.264a3.897 3.897 0 01-1.206-.696l.954-1.068c.248.192.528.352.84.48.316.128.66.192 1.032.192zm11.519-1.866v-1.476h6.552v1.476h-6.552zm17.536-3.894v2.202h2.916v1.41h-2.916v3.3h-1.974v-8.316h5.466l-.204 1.404h-3.288zm10.764 1.122c0 .396-.074.742-.222 1.038a2.243 2.243 0 01-.6.75 3.233 3.233 0 01-.846.492l2.178 3.51h-2.226l-1.8-3.18h-.558v3.18h-1.968v-8.316h2.616c1.132 0 1.986.206 2.562.618.576.412.864 1.048.864 1.908zm-2.028 0c0-.4-.118-.69-.354-.87-.232-.184-.578-.276-1.038-.276h-.654v2.406h.732c.428 0 .754-.1.978-.3.224-.2.336-.52.336-.96zm5.669-1.122v1.998h2.88v1.38h-2.88v2.124h3.474v1.41h-5.442v-8.316h5.436l-.198 1.404h-3.27zm7.295 0v1.998h2.88v1.38h-2.88v2.124h3.474v1.41h-5.442v-8.316h5.436l-.198 1.404h-3.27z" fill="#fff"/><path fill-rule="evenodd" clip-rule="evenodd" d="M177.5 20.5c-5.523 0-10 4.477-10 10s4.477 10 10 10 10-4.477 10-10a10.002 10.002 0 00-10-10zm0 18a8 8 0 110-16 8 8 0 010 16zm5-8.09v.09a.987.987 0 01-.08.39.993.993 0 01-.21.32l-3 3a1 1 0 01-1.42 0 1.002 1.002 0 010-1.42l1.3-1.29h-5.59a1 1 0 010-2h5.66l-1.23-1.31a1.001 1.001 0 011.45-1.38l2.86 3a1 1 0 01.09.13.731.731 0 01.11.19.9.9 0 01.06.28z" fill="#fff"/></svg>